<?xml version="1.0" encoding="UTF-8"?>
<!DOCTYPE svg PUBLIC "-//W3C//DTD SVG 1.1//EN" "http://www.w3.org/Graphics/SVG/1.1/DTD/svg11.dtd">
<!-- Creator: CorelDRAW X7 -->
<svg xmlns="http://www.w3.org/2000/svg" xml:space="preserve" width="887.886mm" height="229.905mm" version="1.1" style="shape-rendering:geometricPrecision; text-rendering:geometricPrecision; image-rendering:optimizeQuality; fill-rule:evenodd; clip-rule:evenodd"
viewBox="0 0 14942 3869"
 xmlns:xlink="http://www.w3.org/1999/xlink">
 <defs>
  <style type="text/css">
   <![CDATA[
    .str0 {stroke:#3E4095;stroke-width:408.688}
    .fil0 {fill:#00AFEF}
    .fil1 {fill:#FEFEFE;fill-rule:nonzero}
   ]]>
  </style>
 </defs>
 <g id="Camada_x0020_1">
  <metadata id="CorelCorpID_0Corel-Layer"/>
  <rect class="fil0 str0" x="204" y="204" width="14533" height="3460" rx="1352" ry="1352"/>
  <path class="fil1" d="M2535 1231l-19 261c-52,-22 -101,-39 -150,-51 -48,-11 -93,-17 -135,-17 -64,0 -114,13 -149,39 -35,26 -52,62 -52,109 0,44 14,81 44,111 29,30 89,67 180,110 151,73 249,139 294,200 44,61 67,141 67,240 0,140 -46,250 -138,331 -93,82 -218,122 -378,122 -55,0 -113,-5 -174,-16 -61,-10 -127,-26 -198,-47l26 -262c61,30 119,52 174,67 55,14 108,21 158,21 66,0 118,-15 155,-45 37,-31 56,-73 56,-127 0,-76 -78,-153 -232,-231 -20,-10 -34,-17 -43,-22 -123,-62 -206,-122 -246,-180 -41,-58 -62,-133 -62,-223 0,-137 45,-244 135,-322 89,-77 214,-116 373,-116 48,0 98,4 150,12 52,7 107,20 164,36z"/>
  <path id="1" class="fil1" d="M3384 1428c-84,0 -149,44 -194,132 -45,88 -68,213 -68,375 0,162 23,286 68,374 45,88 110,132 194,132 84,0 148,-44 194,-132 45,-88 68,-212 68,-374 0,-162 -23,-287 -68,-375 -46,-88 -111,-132 -194,-132zm0 -245c194,0 345,66 454,198 108,133 162,317 162,554 0,237 -54,422 -162,554 -109,131 -260,197 -454,197 -195,0 -347,-66 -455,-197 -108,-131 -162,-316 -162,-554 0,-237 55,-421 163,-554 109,-132 260,-198 454,-198z"/>
  <path id="2" class="fil1" d="M4215 1208l335 0 0 931c0,114 15,192 44,236 29,44 79,66 151,66 72,0 123,-22 153,-66 30,-44 44,-123 44,-236l0 -931 319 0 0 893c0,199 -43,346 -129,442 -85,95 -217,143 -395,143 -178,0 -309,-47 -394,-142 -86,-96 -128,-243 -128,-443l0 -893z"/>
  <path id="3" class="fil1" d="M7052 1252l-16 273c-45,-28 -89,-47 -133,-60 -44,-12 -92,-18 -144,-18 -122,0 -215,42 -282,127 -66,84 -98,204 -98,359 0,158 33,280 102,366 67,86 164,129 290,129 46,0 91,-7 136,-20 45,-14 92,-35 139,-64l14 281c-52,20 -106,36 -163,46 -56,10 -116,15 -178,15 -212,0 -380,-68 -505,-204 -125,-135 -188,-319 -188,-549 0,-227 62,-409 186,-545 124,-137 289,-205 496,-205 57,0 114,6 171,17 57,12 115,29 173,52z"/>
  <polygon id="4" class="fil1" points="7260,1208 7593,1208 7593,2399 8069,2399 8069,2663 7260,2663 "/>
  <polygon id="5" class="fil1" points="8228,1208 8561,1208 8561,2663 8228,2663 "/>
  <polygon id="6" class="fil1" points="8850,1208 9679,1208 9679,1451 9184,1451 9184,1799 9651,1799 9651,2042 9184,2042 9184,2418 9702,2418 9702,2663 8850,2663 "/>
  <polygon id="7" class="fil1" points="9941,1208 10324,1208 10763,2269 10763,1208 11048,1208 11048,2663 10665,2663 10224,1600 10224,2663 9941,2663 "/>
  <polygon id="8" class="fil1" points="11226,1208 12195,1208 12195,1468 11878,1468 11878,2663 11543,2663 11543,1468 11226,1468 "/>
  <polygon id="9" class="fil1" points="12377,1208 13206,1208 13206,1451 12711,1451 12711,1799 13178,1799 13178,2042 12711,2042 12711,2418 13229,2418 13229,2663 12377,2663 "/>
 </g>
</svg>
