<?xml version="1.0" encoding="UTF-8"?>
<!DOCTYPE svg PUBLIC "-//W3C//DTD SVG 1.1//EN" "http://www.w3.org/Graphics/SVG/1.1/DTD/svg11.dtd">
<!-- Creator: CorelDRAW X7 -->
<svg xmlns="http://www.w3.org/2000/svg" xml:space="preserve" width="886.943mm" height="229.661mm" version="1.1" style="shape-rendering:geometricPrecision; text-rendering:geometricPrecision; image-rendering:optimizeQuality; fill-rule:evenodd; clip-rule:evenodd"
viewBox="0 0 402298 104169"
 xmlns:xlink="http://www.w3.org/1999/xlink">
 <defs>
  <style type="text/css">
   <![CDATA[
    .str0 {stroke:#A8CF45;stroke-width:11003.8}
    .fil0 {fill:#3E4095}
    .fil1 {fill:#FEFEFE;fill-rule:nonzero}
   ]]>
  </style>
 </defs>
 <g id="Camada_x0020_1">
  <metadata id="CorelCorpID_0Corel-Layer"/>
  <rect class="fil0 str0" x="5502" y="5502" width="391294" height="93165" rx="36391" ry="36391"/>
  <path class="fil1" d="M76617 33134l-518 7048c-1383,-602 -2719,-1063 -4027,-1374 -1298,-310 -2512,-470 -3632,-470 -1731,0 -3067,348 -4008,1044 -951,706 -1421,1684 -1421,2955 0,1176 395,2173 1185,2982 791,800 2409,1788 4856,2946 4074,1966 6709,3763 7904,5401 1204,1637 1806,3782 1806,6445 0,3773 -1242,6747 -3717,8930 -2484,2192 -5871,3284 -10171,3284 -1487,0 -3049,-142 -4686,-424 -1628,-292 -3406,-715 -5316,-1279l686 -7048c1657,809 3219,1402 4696,1788 1468,385 2888,583 4243,583 1788,0 3181,-405 4178,-1223 1007,-819 1506,-1957 1506,-3406 0,-2042 -2089,-4122 -6258,-6239 -517,-254 -903,-452 -1157,-574 -3312,-1675 -5523,-3293 -6624,-4855 -1101,-1562 -1656,-3566 -1656,-6003 0,-3680 1204,-6568 3622,-8657 2419,-2099 5768,-3143 10050,-3143 1298,0 2653,103 4046,320 1402,207 2870,536 4413,969z"/>
  <path id="1" class="fil1" d="M98005 40238l-4686 15940 8854 0 -4168 -15940zm-5044 -7716l10398 0 12147 39182 -9315 0 -2258 -8751 -12590 0 -2371 8751 -8751 0 12740 -39182z"/>
  <path id="2" class="fil1" d="M127532 54654l0 10444 2183 0c2201,0 3801,-404 4798,-1214 988,-809 1487,-2117 1487,-3923 0,-1882 -489,-3237 -1477,-4065 -979,-828 -2588,-1242 -4808,-1242l-2183 0zm0 -15583l0 9542 2013 0c1995,0 3435,-367 4329,-1101 894,-734 1336,-1929 1336,-3585 0,-1713 -452,-2945 -1355,-3708 -903,-762 -2390,-1148 -4470,-1148l-1853 0zm-8582 -6549l12035 0c4357,0 7593,810 9701,2428 2108,1619 3162,4121 3162,7500 0,2408 -612,4375 -1835,5899 -1223,1534 -2992,2522 -5298,2983 2691,480 4686,1515 6004,3115 1317,1599 1976,3792 1976,6586 0,3642 -1148,6333 -3435,8064 -2286,1741 -5853,2607 -10689,2607l-11621 0 0 -39182z"/>
  <polygon id="3" class="fil1" points="150510,32522 172810,32522 172810,39071 159486,39071 159486,48443 172076,48443 172076,54992 159486,54992 159486,65098 173431,65098 173431,71704 150510,71704 "/>
  <path id="4" class="fil1" d="M188674 39071l0 10050 1901 0c2240,0 3849,-386 4827,-1158 969,-771 1459,-2023 1459,-3744 0,-1892 -442,-3219 -1336,-3990 -894,-772 -2494,-1158 -4809,-1158l-2042 0zm-8807 -6549l9250 0c480,0 959,-9 1458,-28 499,-19 762,-28 800,-28 4987,0 8610,837 10887,2522 2267,1684 3406,4366 3406,8045 0,2409 -621,4394 -1872,5956 -1252,1562 -3077,2635 -5467,3228 1176,291 2107,846 2794,1656 697,809 1402,2333 2117,4582l4301 13249 -9269 0 -3124 -11104c-546,-2023 -1157,-3349 -1825,-3980 -678,-630 -1666,-950 -2964,-950l-1685 0 0 16034 -8807 0 0 -39182z"/>
  <polygon id="5" class="fil1" points="226726,32522 239363,32522 246374,58775 253487,32522 266246,32522 266246,71704 258286,71704 258286,39109 249130,71704 243560,71704 234292,39166 234292,71704 226726,71704 "/>
  <path id="6" class="fil1" d="M287295 40238l-4686 15940 8855 0 -4169 -15940zm-5043 -7716l10397 0 12148 39182 -9315 0 -2259 -8751 -12590 0 -2371 8751 -8751 0 12741 -39182z"/>
  <polygon id="7" class="fil1" points="308241,32522 317218,32522 317218,71704 308241,71704 "/>
  <path id="8" class="fil1" d="M345662 33134l-517 7048c-1383,-602 -2719,-1063 -4027,-1374 -1299,-310 -2513,-470 -3632,-470 -1732,0 -3068,348 -4009,1044 -950,706 -1421,1684 -1421,2955 0,1176 396,2173 1186,2982 790,800 2409,1788 4855,2946 4075,1966 6709,3763 7904,5401 1205,1637 1807,3782 1807,6445 0,3773 -1242,6747 -3717,8930 -2484,2192 -5871,3284 -10172,3284 -1486,0 -3048,-142 -4686,-424 -1627,-292 -3406,-715 -5316,-1279l687 -7048c1656,809 3218,1402 4695,1788 1468,385 2889,583 4244,583 1788,0 3180,-405 4178,-1223 1007,-819 1505,-1957 1505,-3406 0,-2042 -2089,-4122 -6257,-6239 -517,-254 -903,-452 -1157,-574 -3312,-1675 -5524,-3293 -6625,-4855 -1101,-1562 -1656,-3566 -1656,-6003 0,-3680 1205,-6568 3623,-8657 2418,-2099 5768,-3143 10049,-3143 1299,0 2654,103 4046,320 1402,207 2870,536 4413,969z"/>
 </g>
</svg>
