<?xml version="1.0" encoding="UTF-8"?>
<!DOCTYPE svg PUBLIC "-//W3C//DTD SVG 1.1//EN" "http://www.w3.org/Graphics/SVG/1.1/DTD/svg11.dtd">
<!-- Creator: CorelDRAW X7 -->
<svg xmlns="http://www.w3.org/2000/svg" xml:space="preserve" width="880.878mm" height="223.596mm" version="1.1" style="shape-rendering:geometricPrecision; text-rendering:geometricPrecision; image-rendering:optimizeQuality; fill-rule:evenodd; clip-rule:evenodd"
viewBox="0 0 384877 97694"
 xmlns:xlink="http://www.w3.org/1999/xlink">
 <defs>
  <style type="text/css">
   <![CDATA[
    .str0 {stroke:#3E4095;stroke-width:7949.8}
    .fil0 {fill:#FEFEFE}
    .fil1 {fill:#A8CF45}
    .fil2 {fill:#3E4095;fill-rule:nonzero}
   ]]>
  </style>
   <mask id="id0">
  <linearGradient id="id1" gradientUnits="userSpaceOnUse" x1="189597" y1="13149.3" x2="195280" y2="84545.2">
   <stop offset="0" style="stop-opacity:1; stop-color:white"/>
   <stop offset="1" style="stop-opacity:0; stop-color:white"/>
  </linearGradient>
    <rect style="fill:url(#id1)" x="3931" y="3931" width="377015" height="89832"/>
   </mask>
 </defs>
 <g id="Camada_x0020_1">
  <metadata id="CorelCorpID_0Corel-Layer"/>
  <path class="fil0" style="mask:url(#id0)" d="M39030 3975l306817 0c19281,0 35055,15775 35055,35055l0 19635c0,19280 -15774,35055 -35055,35055l-306817 0c-19280,0 -35055,-15775 -35055,-35055l0 -19635c0,-19280 15775,-35055 35055,-35055z"/>
  <rect class="fil1 str0" x="3975" y="3975" width="376927" height="89745" rx="35055" ry="35055"/>
  <path class="fil2" d="M101159 31155l-426 7070c-1151,-716 -2302,-1224 -3435,-1541 -1133,-317 -2384,-480 -3744,-480 -3154,0 -5583,1096 -7296,3290 -1713,2193 -2565,5302 -2565,9317 0,4106 879,7270 2646,9499 1759,2230 4270,3345 7533,3345 1187,0 2365,-181 3534,-535 1170,-353 2366,-897 3590,-1640l371 7269c-1350,534 -2755,933 -4223,1196 -1469,263 -3010,399 -4623,399 -5493,0 -9861,-1758 -13106,-5284 -3236,-3517 -4859,-8276 -4859,-14249 0,-5900 1605,-10613 4822,-14148 3218,-3544 7496,-5312 12853,-5312 1486,0 2964,154 4450,453 1478,300 2964,753 4478,1351z"/>
  <path id="1" class="fil2" d="M120791 35714c-2175,0 -3852,1142 -5030,3426 -1179,2284 -1768,5520 -1768,9717 0,4196 589,7432 1768,9707 1178,2275 2855,3417 5030,3417 2175,0 3852,-1142 5031,-3417 1178,-2275 1767,-5511 1767,-9707 0,-4197 -589,-7433 -1776,-9717 -1188,-2284 -2865,-3426 -5022,-3426zm0 -6363c5031,0 8955,1713 11765,5149 2819,3435 4224,8220 4224,14357 0,6163 -1405,10949 -4224,14366 -2810,3417 -6734,5121 -11765,5121 -5067,0 -8991,-1704 -11792,-5112 -2801,-3408 -4196,-8194 -4196,-14375 0,-6137 1404,-10922 4223,-14357 2810,-3436 6735,-5149 11765,-5149z"/>
  <polygon id="2" class="fil2" points="142553,30004 154726,30004 161479,55292 168331,30004 180622,30004 180622,67746 172954,67746 172954,36349 164134,67746 158769,67746 149841,36403 149841,67746 142553,67746 "/>
  <path id="3" class="fil2" d="M196710 36312l0 11258 2021 0c1931,0 3318,-435 4142,-1315 825,-879 1233,-2338 1233,-4396 0,-1994 -417,-3426 -1251,-4269 -834,-852 -2275,-1278 -4332,-1278l-1813 0zm-8647 -6308l9417 0c2547,0 4550,127 6019,381 1459,262 2674,670 3643,1241 1777,1025 3118,2420 4025,4197 915,1767 1368,3852 1368,6236 0,3952 -1151,6915 -3453,8900 -2302,1985 -5728,2973 -10296,2973l-2076 0 0 13814 -8647 0 0 -37742z"/>
  <path id="4" class="fil2" d="M226022 36312l0 9680 1831 0c2158,0 3707,-371 4650,-1114 934,-744 1405,-1949 1405,-3608 0,-1822 -426,-3100 -1287,-3843 -861,-743 -2402,-1115 -4632,-1115l-1967 0zm-8483 -6308l8909 0c463,0 925,-9 1405,-27 481,-18 735,-28 771,-28 4804,0 8293,807 10487,2430 2184,1622 3281,4205 3281,7749 0,2321 -598,4233 -1804,5738 -1205,1504 -2964,2537 -5266,3108 1133,281 2030,816 2692,1596 671,779 1350,2248 2039,4414l4142 12762 -8927 0 -3010 -10696c-525,-1948 -1114,-3226 -1758,-3834 -653,-607 -1604,-915 -2855,-915l-1623 0 0 15445 -8483 0 0 -37742z"/>
  <path id="5" class="fil2" d="M263483 37436l-4513 15354 8529 0 -4016 -15354zm-4858 -7432l10016 0 11701 37742 -8973 0 -2175 -8430 -12128 0 -2284 8430 -8429 0 12272 -37742z"/>
  <path id="6" class="fil2" d="M292143 36312l0 9680 1831 0c2157,0 3707,-371 4650,-1114 934,-744 1405,-1949 1405,-3608 0,-1822 -426,-3100 -1287,-3843 -861,-743 -2402,-1115 -4632,-1115l-1967 0zm-8483 -6308l8909 0c463,0 925,-9 1405,-27 481,-18 734,-28 771,-28 4803,0 8293,807 10486,2430 2185,1622 3282,4205 3282,7749 0,2321 -599,4233 -1804,5738 -1206,1504 -2964,2537 -5266,3108 1133,281 2030,816 2692,1596 670,779 1350,2248 2039,4414l4142 12762 -8928 0 -3009 -10696c-525,-1948 -1115,-3226 -1758,-3834 -653,-607 -1604,-915 -2855,-915l-1623 0 0 15445 -8483 0 0 -37742z"/>
 </g>
</svg>
