<?xml version="1.0" encoding="UTF-8"?>
<!DOCTYPE svg PUBLIC "-//W3C//DTD SVG 1.1//EN" "http://www.w3.org/Graphics/SVG/1.1/DTD/svg11.dtd">
<!-- Creator: CorelDRAW X7 -->
<svg xmlns="http://www.w3.org/2000/svg" xml:space="preserve" width="279.505mm" height="496.899mm" version="1.1" style="shape-rendering:geometricPrecision; text-rendering:geometricPrecision; image-rendering:optimizeQuality; fill-rule:evenodd; clip-rule:evenodd"
viewBox="0 0 1886 3353"
 xmlns:xlink="http://www.w3.org/1999/xlink">
 <defs>
  <style type="text/css">
   <![CDATA[
    .str0 {stroke:#4745F1;stroke-width:20.2442}
    .fil3 {fill:none}
    .fil6 {fill:#FEFEFE}
    .fil4 {fill:#00AFEF}
    .fil5 {fill:#0EB540}
    .fil0 {fill:#4745F1}
    .fil2 {fill:#FE7213}
    .fil1 {fill:#FEFEFE;fill-rule:nonzero}
   ]]>
  </style>
   <clipPath id="id0">
    <path d="M943 1486c105,0 191,85 191,191 0,105 -86,190 -191,190 -105,0 -191,-85 -191,-190 0,-106 86,-191 191,-191z"/>
   </clipPath>
   <clipPath id="id1">
    <path d="M943 663c105,0 191,86 191,191 0,105 -86,191 -191,191 -105,0 -191,-86 -191,-191 0,-105 86,-191 191,-191z"/>
   </clipPath>
 </defs>
 <g id="Camada_x0020_1">
  <metadata id="CorelCorpID_0Corel-Layer"/>
  <rect class="fil0" width="1886" height="3353"/>
  <path class="fil1" d="M854 1157l-12 0 -3 -10 -18 0 -3 10 -12 0 18 -48 13 0 17 48zm-18 -19l-5 -16c0,-1 -1,-3 -1,-4l0 0c0,1 -1,3 -1,4l-5 16 12 0z"/>
  <path id="1" class="fil1" d="M892 1153c0,7 -1,12 -5,15 -4,4 -9,5 -16,5 -5,0 -8,0 -11,-2l0 -8c3,2 7,3 11,3 3,0 6,-1 8,-3 2,-2 3,-5 3,-8l0 -3 0 0c-3,4 -6,6 -11,6 -4,0 -8,-1 -10,-4 -3,-4 -4,-8 -4,-13 0,-6 1,-10 4,-14 3,-3 7,-5 11,-5 4,0 8,2 10,5l0 0 0 -4 10 0 0 30zm-10 -12l0 -3c0,-2 -1,-4 -2,-5 -1,-2 -3,-3 -5,-3 -2,0 -4,1 -6,3 -1,2 -2,4 -2,8 0,3 1,5 2,7 2,1 3,2 6,2 2,0 4,-1 5,-3 1,-1 2,-3 2,-6z"/>
  <path id="2" class="fil1" d="M932 1143l-22 0c0,5 3,8 9,8 4,0 7,-1 10,-3l0 8c-3,1 -7,2 -12,2 -6,0 -10,-1 -13,-4 -3,-4 -5,-8 -5,-13 0,-6 2,-11 5,-14 3,-3 8,-5 12,-5 5,0 9,2 12,5 3,3 4,7 4,12l0 4zm-10 -6c0,-5 -2,-8 -6,-8 -1,0 -3,1 -4,2 -1,2 -2,4 -2,6l12 0z"/>
  <path id="3" class="fil1" d="M972 1157l-11 0 0 -19c0,-5 -2,-8 -6,-8 -2,0 -3,1 -4,2 -1,2 -2,4 -2,6l0 19 -11 0 0 -34 11 0 0 5 0 0c3,-4 6,-6 11,-6 8,0 12,5 12,14l0 21z"/>
  <path id="4" class="fil1" d="M1013 1157l-10 0 0 -4 0 0c-3,3 -6,5 -11,5 -4,0 -8,-1 -10,-4 -3,-3 -4,-8 -4,-13 0,-6 1,-10 4,-14 3,-3 7,-5 11,-5 5,0 8,2 10,5l0 0 0 -21 10 0 0 51zm-10 -16l0 -3c0,-2 -1,-4 -2,-6 -1,-1 -3,-2 -5,-2 -2,0 -4,1 -5,3 -2,2 -2,4 -2,8 0,3 0,5 2,7 1,1 3,2 5,2 2,0 4,-1 5,-3 1,-1 2,-4 2,-6z"/>
  <path id="5" class="fil1" d="M1051 1157l-10 0 0 -5 0 0c-3,4 -6,6 -10,6 -4,0 -6,-1 -8,-3 -2,-2 -3,-4 -3,-7 0,-7 4,-11 12,-12l9 -1c0,-4 -2,-6 -6,-6 -4,0 -8,2 -12,4l0 -8c2,-1 4,-1 6,-2 3,-1 5,-1 7,-1 10,0 15,5 15,15l0 20zm-10 -14l0 -2 -6 1c-4,0 -5,2 -5,4 0,2 0,3 1,3 1,1 2,2 3,2 2,0 4,-1 5,-2 1,-2 2,-4 2,-6z"/>
  <path id="6" class="fil1" d="M1082 1133c-2,-1 -3,-2 -5,-2 -2,0 -4,1 -5,3 -1,2 -2,4 -2,7l0 16 -11 0 0 -34 11 0 0 6 0 0c2,-4 5,-7 9,-7 1,0 2,0 3,1l0 10z"/>
  <path id="7" class="fil1" d="M780 1249l-12 0 -3 -11 -17 0 -4 11 -12 0 18 -48 13 0 17 48zm-18 -19l-5 -17c0,-1 -1,-2 -1,-4l0 0c0,2 0,3 -1,4l-5 17 12 0z"/>
  <path id="8" class="fil1" d="M804 1248c-1,1 -4,1 -7,1 -7,0 -11,-3 -11,-11l0 -16 -6 0 0 -8 6 0 0 -7 11 -3 0 10 7 0 0 8 -7 0 0 14c0,4 1,5 4,5 1,0 2,0 3,-1l0 8z"/>
  <path id="9" class="fil1" d="M841 1234l-23 0c1,5 4,8 10,8 4,0 7,-1 10,-3l0 8c-3,2 -8,2 -13,2 -5,0 -9,-1 -13,-4 -3,-3 -4,-8 -4,-13 0,-6 2,-10 5,-14 3,-3 7,-5 12,-5 5,0 9,2 12,5 2,3 4,7 4,12l0 4zm-10 -6c0,-5 -2,-7 -6,-7 -2,0 -3,0 -4,2 -2,1 -2,3 -3,5l13 0z"/>
  <path id="10" class="fil1" d="M880 1249l-10 0 0 -19c0,-6 -2,-8 -6,-8 -2,0 -3,0 -5,2 -1,1 -1,3 -1,5l0 20 -11 0 0 -35 11 0 0 6 0 0c2,-4 6,-7 11,-7 7,0 11,5 11,15l0 21z"/>
  <path id="11" class="fil1" d="M922 1249l-10 0 0 -5 -1 0c-2,4 -6,5 -10,5 -4,0 -8,-1 -11,-4 -2,-3 -3,-7 -3,-13 0,-5 1,-10 4,-13 3,-4 7,-6 11,-6 5,0 8,2 9,5l1 0 0 -20 10 0 0 51zm-10 -17l0 -3c0,-2 -1,-4 -2,-5 -1,-2 -3,-2 -5,-2 -3,0 -4,0 -6,2 -1,2 -2,5 -2,8 0,3 1,5 2,7 1,2 3,2 6,2 2,0 3,-1 5,-2 1,-2 2,-4 2,-7z"/>
  <path id="12" class="fil1" d="M936 1209c-1,0 -3,-1 -4,-2 -1,-1 -2,-2 -2,-4 0,-1 1,-3 2,-4 1,-1 3,-1 4,-1 2,0 4,0 5,1 1,1 2,3 2,4 0,2 -1,3 -2,4 -1,1 -3,2 -5,2zm6 40l-11 0 0 -35 11 0 0 35z"/>
  <path id="13" class="fil1" d="M1005 1249l-10 0 0 -20c0,-5 -2,-7 -6,-7 -2,0 -3,0 -4,2 -1,1 -2,3 -2,5l0 20 -10 0 0 -20c0,-5 -2,-7 -6,-7 -2,0 -3,0 -4,2 -1,1 -2,3 -2,6l0 19 -10 0 0 -35 10 0 0 6 0 0c1,-2 3,-4 5,-5 2,-1 4,-2 6,-2 5,0 9,3 10,7 3,-4 7,-7 12,-7 7,0 11,5 11,14l0 22z"/>
  <path id="14" class="fil1" d="M1044 1234l-22 0c0,5 3,8 9,8 4,0 7,-1 10,-3l0 8c-3,2 -7,2 -12,2 -6,0 -10,-1 -13,-4 -3,-3 -5,-8 -5,-13 0,-6 2,-10 5,-14 4,-3 8,-5 13,-5 5,0 8,2 11,5 3,3 4,7 4,12l0 4zm-10 -6c0,-5 -2,-7 -5,-7 -2,0 -4,0 -5,2 -1,1 -2,3 -2,5l12 0z"/>
  <path id="15" class="fil1" d="M1084 1249l-11 0 0 -19c0,-6 -2,-8 -6,-8 -1,0 -3,0 -4,2 -1,1 -2,3 -2,5l0 20 -10 0 0 -35 10 0 0 6 0 0c3,-4 7,-7 11,-7 8,0 12,5 12,15l0 21z"/>
  <path id="16" class="fil1" d="M1113 1248c-2,1 -4,1 -7,1 -8,0 -11,-3 -11,-11l0 -16 -6 0 0 -8 6 0 0 -7 10 -3 0 10 8 0 0 8 -8 0 0 14c0,4 2,5 4,5 2,0 3,0 4,-1l0 8z"/>
  <path id="17" class="fil1" d="M1135 1249c-6,0 -10,-1 -14,-4 -3,-4 -4,-8 -4,-13 0,-6 1,-11 5,-14 3,-3 8,-5 13,-5 6,0 11,2 14,5 3,3 5,8 5,13 0,6 -2,10 -5,13 -4,4 -8,5 -14,5zm0 -27c-2,0 -4,0 -6,2 -1,2 -2,4 -2,7 0,7 3,10 8,10 5,0 8,-3 8,-10 0,-6 -3,-9 -8,-9z"/>
  <path class="fil1" d="M858 1979c-4,2 -8,3 -14,3 -7,0 -13,-2 -17,-7 -4,-4 -7,-10 -7,-17 0,-8 3,-14 8,-19 4,-4 10,-7 18,-7 5,0 9,1 12,2l0 10c-3,-1 -7,-2 -11,-2 -5,0 -8,1 -11,4 -3,3 -4,7 -4,11 0,5 1,9 4,11 2,3 6,5 10,5 5,0 8,-1 12,-3l0 9z"/>
  <path id="1" class="fil1" d="M898 1981l-10 0 0 -19c0,-5 -2,-8 -6,-8 -2,0 -3,1 -4,2 -2,2 -2,3 -2,6l0 19 -11 0 0 -51 11 0 0 22 0 0c3,-4 6,-6 11,-6 7,0 11,5 11,14l0 21z"/>
  <path id="2" class="fil1" d="M935 1981l-10 0 0 -5 0 0c-2,4 -6,6 -10,6 -4,0 -6,-1 -8,-3 -2,-2 -3,-4 -3,-7 0,-7 4,-11 12,-12l9 -1c0,-4 -2,-6 -6,-6 -4,0 -8,1 -12,4l0 -8c2,-1 4,-2 6,-2 3,-1 5,-1 7,-1 10,0 15,5 15,15l0 20zm-10 -14l0 -2 -6 1c-4,0 -5,2 -5,4 0,2 0,3 1,3 1,1 2,1 3,1 2,0 4,0 5,-2 2,-1 2,-3 2,-5z"/>
  <path id="3" class="fil1" d="M998 1981l-11 0 0 -19c0,-5 -1,-8 -5,-8 -2,0 -3,1 -4,2 -1,2 -2,4 -2,6l0 19 -11 0 0 -20c0,-5 -1,-7 -5,-7 -2,0 -3,1 -4,2 -1,2 -2,4 -2,6l0 19 -11 0 0 -34 11 0 0 5 0 0c1,-2 3,-3 5,-4 2,-1 4,-2 6,-2 5,0 8,2 10,6 3,-4 7,-6 12,-6 7,0 11,5 11,14l0 21z"/>
  <path id="4" class="fil1" d="M1035 1981l-10 0 0 -5 0 0c-3,4 -6,6 -10,6 -4,0 -6,-1 -8,-3 -2,-2 -3,-4 -3,-7 0,-7 4,-11 12,-12l9 -1c0,-4 -2,-6 -6,-6 -4,0 -8,1 -12,4l0 -8c2,-1 4,-2 6,-2 3,-1 5,-1 7,-1 10,0 15,5 15,15l0 20zm-10 -14l0 -2 -6 1c-4,0 -5,2 -5,4 0,2 0,3 1,3 1,1 2,1 3,1 2,0 4,0 5,-2 1,-1 2,-3 2,-5z"/>
  <path id="5" class="fil1" d="M1066 1956c-2,0 -3,-1 -5,-1 -2,0 -4,1 -5,3 -1,2 -2,4 -2,7l0 16 -11 0 0 -34 11 0 0 6 0 0c2,-4 5,-7 9,-7 1,0 2,0 3,1l0 9z"/>
  <path id="6" class="fil1" d="M853 2069c-4,3 -10,4 -17,4 -8,0 -14,-2 -19,-6 -4,-4 -6,-10 -6,-18 0,-7 2,-14 7,-18 5,-5 11,-7 19,-7 6,0 10,0 14,2l0 10c-4,-2 -8,-3 -14,-3 -4,0 -8,1 -11,4 -2,3 -4,7 -4,12 0,5 1,8 4,11 2,3 6,4 10,4 3,0 5,0 6,-1l0 -9 -9 0 0 -9 20 0 0 24z"/>
  <path id="7" class="fil1" d="M894 2072l-10 0 0 -5 -1 0c-2,4 -6,6 -10,6 -8,0 -12,-5 -12,-14l0 -21 11 0 0 20c0,5 1,7 5,7 2,0 4,-1 5,-2 1,-1 2,-3 2,-5l0 -20 10 0 0 34z"/>
  <path id="8" class="fil1" d="M908 2033c-1,0 -3,-1 -4,-2 -1,-1 -2,-2 -2,-4 0,-1 1,-3 2,-4 1,-1 3,-1 4,-1 2,0 4,0 5,1 1,1 2,3 2,4 0,2 -1,3 -2,4 -1,1 -3,2 -5,2zm6 39l-11 0 0 -34 11 0 0 34z"/>
  <path id="9" class="fil1" d="M956 2072l-11 0 0 -19c0,-5 -2,-8 -6,-8 -1,0 -3,1 -4,2 -1,2 -2,4 -2,6l0 19 -10 0 0 -34 10 0 0 6 0 0c3,-5 6,-7 11,-7 8,0 12,5 12,14l0 21z"/>
  <path id="10" class="fil1" d="M990 2071c-2,2 -6,2 -10,2 -6,0 -10,-1 -13,-5 -3,-3 -5,-7 -5,-12 0,-6 2,-10 5,-14 4,-3 8,-5 14,-5 4,0 7,1 9,2l0 9c-2,-2 -5,-3 -7,-3 -3,0 -6,1 -8,3 -1,2 -2,4 -2,7 0,3 1,6 2,8 2,1 4,2 7,2 3,0 6,-1 8,-2l0 8z"/>
  <path id="11" class="fil1" d="M1030 2072l-11 0 0 -19c0,-5 -1,-8 -5,-8 -2,0 -3,1 -5,2 -1,2 -1,4 -1,6l0 19 -11 0 0 -50 11 0 0 21 0 0c2,-4 6,-6 10,-6 8,0 12,5 12,14l0 21z"/>
  <path id="12" class="fil1" d="M1055 2073c-6,0 -11,-1 -14,-5 -3,-3 -5,-7 -5,-13 0,-5 2,-10 5,-13 4,-3 8,-5 14,-5 6,0 10,2 14,5 3,3 4,8 4,13 0,5 -1,10 -5,13 -3,4 -7,5 -13,5zm0 -28c-3,0 -4,1 -6,3 -1,2 -2,4 -2,7 0,7 3,10 8,10 5,0 8,-3 8,-10 0,-6 -3,-10 -8,-10z"/>
  <path class="fil2" d="M943 1486c105,0 191,85 191,191 0,105 -86,190 -191,190 -105,0 -191,-85 -191,-190 0,-106 86,-191 191,-191z"/>
  <g style="clip-path:url(#id0)">
   <g id="_1898406398912">
    <g>
     <path id="1" class="fil0" d="M850 1704c16,0 28,13 28,28 0,15 -12,27 -28,27 -15,0 -27,-12 -27,-27 0,-15 12,-28 27,-28zm0 14c8,0 14,6 14,14 0,7 -6,14 -14,14 -7,0 -14,-7 -14,-14 0,-8 7,-14 14,-14z"/>
     <path class="fil0" d="M964 1656c14,0 25,10 25,24 0,13 -11,24 -25,24 -13,0 -24,-11 -24,-24 0,-14 11,-24 24,-24zm0 13c6,0 11,5 11,11 0,6 -5,10 -11,10 -5,0 -10,-4 -10,-10 0,-6 5,-11 10,-11z"/>
     <path class="fil0" d="M1054 1656c13,0 24,10 24,24 0,13 -11,24 -24,24 -14,0 -24,-11 -24,-24 0,-14 10,-24 24,-24zm0 13c5,0 10,5 10,11 0,6 -5,10 -10,10 -6,0 -11,-4 -11,-10 0,-6 5,-11 11,-11z"/>
     <path class="fil0" d="M1036 1704c16,0 28,13 28,28 0,15 -12,27 -28,27 -15,0 -27,-12 -27,-27 0,-15 12,-28 27,-28zm0 14c8,0 14,6 14,14 0,7 -6,14 -14,14 -7,0 -14,-7 -14,-14 0,-8 7,-14 14,-14z"/>
     <path class="fil0" d="M811 1732l25 0 0 0c0,7 5,12 12,13l-37 0 0 -13zm53 0l158 0 0 0c0,7 5,12 12,13l-181 0c6,-1 11,-6 11,-13l0 0zm186 0l48 0 0 13 -59 0c6,-1 11,-6 11,-13l0 0z"/>
     <path class="fil0" d="M912 1676l43 0c-1,1 -1,3 -1,4 0,5 4,9 8,10l-50 0 0 -14zm62 0l70 0c0,1 -1,3 -1,4 0,5 4,9 9,10l-86 0c5,-1 9,-5 9,-10 0,-1 0,-3 -1,-4zm89 0l35 0 0 14 -42 0c4,-1 8,-5 8,-10 0,-1 0,-3 -1,-4z"/>
     <rect class="fil0" transform="matrix(4.47141E-016 0.0398251 -0.119589 7.47118E-015 897.901 1593.76)" width="3050" height="114"/>
     <rect class="fil0" x="973" y="1594" width="111.776" height="13.6651"/>
     <path class="fil0" d="M926 1652l0 38 -14 0 0 -38 0 0 0 0c0,-13 11,-24 25,-24l0 0 161 0 0 14 -161 0 0 0c-6,0 -11,5 -11,10l0 0 0 0z"/>
     <rect class="fil0" transform="matrix(4.47141E-016 0.0130804 -0.119589 2.45388E-015 1098.12 1704.3)" width="3050" height="114"/>
     <rect class="fil0" transform="matrix(-4.47141E-016 -0.011329 0.119589 -2.12532E-015 1070.79 1630.23)" width="3050" height="114"/>
     <polygon class="fil0" points="788,1642 809,1594 817,1594 823,1596 800,1648 788,1643 "/>
     <rect class="fil0" x="795" y="1642" width="95.9449" height="13.6651"/>
     <rect class="fil0" transform="matrix(4.47141E-016 0.0249301 -0.119589 4.67688E-015 801.668 1641.88)" width="3050" height="114"/>
     <polygon class="fil0" points="810,1594 811,1594 898,1594 898,1607 804,1607 "/>
     <polygon class="fil0" points="953,1636 971,1594 986,1594 966,1641 "/>
     <polygon class="fil0" points="1098,1630 1098,1690 1084,1690 1084,1630 "/>
     <rect class="fil0" x="795" y="1704" width="303.28" height="13.6651"/>
     <path class="fil0" d="M802 1721l0 -37 -14 0 0 37 0 0 0 0c0,14 11,24 24,24l0 0 36 0c-7,-1 -12,-6 -12,-13 0,0 0,0 0,0l-24 0 0 0c-6,0 -10,-5 -10,-11l0 0 0 0z"/>
    </g>
   </g>
  </g>
  <path class="fil3" d="M943 1486c105,0 191,85 191,191 0,105 -86,190 -191,190 -105,0 -191,-85 -191,-190 0,-106 86,-191 191,-191z"/>
  <path class="fil4" d="M943 663c105,0 191,86 191,191 0,105 -86,191 -191,191 -105,0 -191,-86 -191,-191 0,-105 86,-191 191,-191z"/>
  <g style="clip-path:url(#id1)">
   <g id="_1898406406112">
    <path id="1" class="fil3 str0" d="M885 750c49,3 75,-2 118,26 30,27 13,64 35,109 20,39 30,50 59,81l20 21 -52 52 -15 -18c-34,-35 -43,-50 -84,-68 -25,-11 -53,1 -77,-19 -12,-11 -75,-77 -62,-94 14,-12 60,73 110,22l12 -16c8,-18 15,-33 4,-44 -20,-15 -43,-28 -64,-43 -5,-3 -12,-6 -4,-9z"/>
   </g>
  </g>
  <path class="fil3" d="M943 663c105,0 191,86 191,191 0,105 -86,191 -191,191 -105,0 -191,-86 -191,-191 0,-105 86,-191 191,-191z"/>
  <g id="_1898406407456">
   <g>
    <circle class="fil5" cx="943" cy="2502" r="191"/>
    <g>
     <path class="fil6" d="M943 2379c68,0 123,55 123,123 0,68 -55,123 -123,123 -22,0 -43,-6 -61,-17l-40 11 0 0 -24 6 0 0 0 0 6 -24 0 0 10 -43c-9,-17 -14,-36 -14,-56 0,-68 55,-123 123,-123zm-84 212l26 -7 0 0 0 0 0 0 0 1 0 0 0 0 0 0 0 0 0 0 0 0 0 0 0 0 0 0 0 0 0 0 0 0 0 0 1 0 0 0 0 0 0 0 0 0 0 0 0 0 0 0 0 0 0 0 0 0 0 0 0 0 0 0 0 0 0 0 0 0 0 0 0 0 0 0 0 0 0 0 0 0 0 0 0 0 0 0 0 0 0 0 0 0 0 0 0 0 0 0 0 0 0 0 0 0 0 1 0 0 1 0 0 0 0 0 0 0 0 0 0 0 0 0 0 0 0 0 0 0 0 0 1 0 0 0 0 0 0 0 0 0 0 0 0 0 0 0 0 1 0 0 0 0 0 0 0 0 0 0 0 0 0 0 1 0 0 0 0 0 0 0 0 0 0 0 0 0 0 0 0 0 0 0 0 0 0 0 0 0 0 0 0 0 0 0 0 0 0 0 0 0 0 0 0 0 0 1 1 0 0 0 0 0 0 0 0 0 0 0 0 0 0 0 0 0 0 0 0 0 0 0 0 0 0 0 0 0 0 0 0 0 0 0 0 0 0 0 0 0 0 0 0 0 0 0 0 0 0 0 0 0 0 0 0 0 0 0 0 0 0 0 0 0 0 0 0 0 0 0 1 0 0 0 0 0 0 0 0 0 0 0 0 1 0 0 0 0 0 0 0 0 0 0 0 0 0 0 0 0 0 0 1 0 0 0 0 0 0 0 0 0 0 0 0 0 0 0 0 0 0 0 0 0 0 0 0 0 0 0 0 0 0 0 0 0 0 0 0 0 0 0 0 0 0 0 0 0 0 0 0 0 0 0 0 0 0 0 0 0 0 0 0 0 1 0 0 0 0 0 0 0 0 0 0 1 0 0 0 0 0 0 0 0 0 0 0 0 0 0 0 0 0 0 0 0 0 0 0 0 0 0 0 0 1 0 0 0 0 0 0 0 0 0 0 0 0 0 0 0 0 0 0 0 0 0 0 0 0 0 0 0 0 0 0 0 0 0 0 0 0 0 0 0 0 0 0 0 0 0 0 0 0 0 0 0 0 0 0 0 0 0 1 0 0 0 0 1 0 0 0 0 0 0 0 0 0 0 0 0 0 0 0 0 0 0 0 0 0 0 0 0 0 0 0 0 0 0 0 0 1 0 0 0 0 0 0 0 0 0 0 0 0 0 0 0 0 0 0 0 0 0 0 0 0 0 0 0 0 0 0 0 0 0 0 0 0 0 0 0 0 0 0 0 0 0 0 0 0 0 0 0 0 0 0 0 0 0 0 1 0 0 0 0 1 0 0 0 0 0 0 0 0 0 0 0 0 0 0 0 0 0 0 0 0 0 0 0 0 0 0 0 0 0 1 0 0 0 0 0 0 0 0 0 0 0 0 0 0 0 0 0 0 0 0 0 0 0 0 0 0 0 0 0 0 0 0 0 0 0 0 0 0 0 0 0 0 0 0 1 0 0 1 0 0 0 0 0 0 0 0 0 0 0 0 0 0 0 0 0 0 0 0 0 0 0 0 0 0 0 0 0 0 0 0 0 1 0 0 0 0 0 0 0 0 0 0 0 0 0 0 0 0 0 0 0 0 0 0 0 1 1 0 0 0 0 0 0 0 0 0 0 0 0 0 0 0 0 0 0 0 0 0 0 0 0 0 0 0 0 1 0 0 0 0 0 0 0 0 0 0 0 0 0 0 0 0 0 0 0 0 0 0 0 0 0 0 0 0 0 0 0 0 0 0 0 0 0 0 0 0 0 0 0 0 0 0 0 0 0 0 0 0 0 0 0 0 0 0 0 0 0 0 0 0 0 0 0 0 0 0 0 0 0 0 0 0 0 0 0 0 0 0 0 0 0 0 0 0 0 0 0 1 0 0 0 0 0 0 0 0 0 0 0 0 0 0 0 0 0 0 0 0 0 0 0 0 0 0 1 0 0 0 0 0 0 0 0c12,5 26,8 40,8 56,0 101,-45 101,-101 0,-56 -45,-102 -101,-102 -56,0 -101,46 -101,102 0,11 2,21 5,31l0 0c1,4 3,8 5,12l0 0 0 1 0 0 0 0 0 1 1 0 0 0 0 1 0 0 0 0 1 1 0 0 0 0 0 1 0 0 1 1 0 0c0,0 0,0 0,0l0 1c0,0 0,0 0,0l1 0c0,1 0,1 0,2l0 0c1,0 1,0 1,0l0 1c0,0 0,0 0,0l0 0 -6 28 -3 11 11 -3z"/>
     <path class="fil6" d="M894 2443c-19,17 -15,34 -5,54 18,26 30,40 59,53l11 4c17,6 31,4 41,-7 5,-6 5,-9 5,-16 1,-3 0,-4 -2,-5 -7,-5 -18,-10 -26,-13 -3,0 -3,0 -5,1 -4,4 -7,9 -11,13 -1,2 -3,2 -4,2 -20,-9 -31,-18 -43,-37 -1,-2 -1,-4 2,-8 1,-1 2,-3 3,-4 1,-1 2,-2 3,-4 0,-1 1,-2 1,-4 -3,-9 -8,-18 -11,-27 -2,-4 -8,-4 -14,-4 -2,0 -3,1 -4,2z"/>
    </g>
   </g>
   <path class="fil1" d="M786 2806l-11 0 0 -5 0 0c-2,4 -6,6 -10,6 -5,0 -8,-2 -11,-5 -2,-3 -4,-7 -4,-13 0,-5 2,-10 5,-13 2,-4 6,-5 11,-5 4,0 7,1 9,4l0 0 0 -20 11 0 0 51zm-11 -17l0 -2c0,-3 0,-5 -1,-6 -2,-1 -3,-2 -6,-2 -2,0 -4,1 -5,3 -1,1 -2,4 -2,7 0,3 1,6 2,7 1,2 3,3 5,3 2,0 4,-1 5,-3 2,-2 2,-4 2,-7z"/>
   <path id="1" class="fil1" d="M826 2792l-23 0c1,5 4,7 10,7 3,0 7,-1 10,-2l0 7c-4,2 -8,3 -13,3 -5,0 -10,-2 -13,-5 -3,-3 -4,-7 -4,-13 0,-5 1,-10 5,-13 3,-4 7,-5 12,-5 5,0 9,1 12,4 2,3 4,7 4,12l0 5zm-10 -7c0,-5 -2,-7 -6,-7 -2,0 -3,1 -5,2 -1,1 -2,3 -2,5l13 0z"/>
   <path id="2" class="fil1" d="M849 2805l0 -9c1,1 3,2 5,3 2,0 3,0 5,0 2,0 3,0 4,0 1,-1 2,-2 2,-3 0,0 0,-1 -1,-1 0,-1 -1,-1 -2,-1 -1,-1 -1,-1 -2,-1 -1,-1 -2,-1 -3,-1 -1,-1 -3,-1 -4,-2 -1,-1 -2,-1 -2,-2 -1,-1 -1,-2 -2,-3 0,-1 0,-2 0,-3 0,-2 0,-4 1,-5 1,-2 2,-3 3,-4 2,-1 3,-1 5,-2 2,0 4,0 6,0 1,0 3,0 4,0 2,0 3,1 5,1l0 8c-1,-1 -3,-1 -4,-2 -2,0 -3,0 -5,0 -1,0 -1,0 -2,0 -1,0 -1,0 -2,1 0,0 0,0 -1,1 0,0 0,0 0,1 0,0 0,1 1,1 0,1 0,1 1,2 1,0 2,0 2,0 1,1 2,1 3,1 1,1 2,1 3,2 2,0 3,1 3,2 1,1 2,2 2,3 1,1 1,2 1,3 0,2 0,4 -1,6 -1,1 -2,2 -4,3 -1,1 -3,2 -5,2 -2,0 -4,1 -6,1 -4,0 -7,-1 -10,-2z"/>
   <path id="3" class="fil1" d="M912 2792l-22 0c0,5 3,7 9,7 4,0 7,-1 10,-2l0 7c-3,2 -7,3 -12,3 -6,0 -10,-2 -13,-5 -3,-3 -5,-7 -5,-13 0,-5 2,-10 5,-13 3,-4 7,-5 12,-5 5,0 9,1 12,4 3,3 4,7 4,12l0 5zm-10 -7c0,-5 -2,-7 -6,-7 -2,0 -3,1 -4,2 -2,1 -2,3 -3,5l13 0z"/>
   <path id="4" class="fil1" d="M952 2802c0,6 -2,11 -6,15 -3,3 -9,5 -16,5 -4,0 -8,-1 -11,-2l0 -9c4,2 7,3 11,3 4,0 6,-1 8,-3 2,-2 3,-4 3,-7l0 -3 0 0c-2,4 -6,6 -11,6 -4,0 -7,-2 -10,-5 -3,-3 -4,-7 -4,-12 0,-6 2,-11 4,-14 3,-4 7,-5 12,-5 4,0 7,1 9,5l0 0 0 -4 11 0 0 30zm-11 -13l0 -2c0,-3 0,-4 -2,-6 -1,-1 -3,-2 -5,-2 -2,0 -4,1 -5,3 -1,1 -2,4 -2,7 0,3 1,5 2,7 1,2 3,3 5,3 2,0 4,-1 5,-3 2,-2 2,-4 2,-7z"/>
   <path id="5" class="fil1" d="M1008 2806l-10 0 0 -5 0 0c-2,4 -6,6 -10,6 -4,0 -6,-1 -8,-3 -2,-2 -3,-5 -3,-8 0,-6 4,-10 12,-11l9 -1c0,-4 -2,-6 -6,-6 -4,0 -8,1 -12,4l0 -8c2,-1 4,-2 7,-2 2,-1 4,-1 7,-1 9,0 14,5 14,14l0 21zm-10 -14l0 -2 -6 0c-3,1 -5,2 -5,5 0,1 0,2 1,3 1,1 2,1 3,1 2,0 4,-1 5,-2 2,-1 2,-3 2,-5zm3 -26l-7 0 -11 -11 9 0 9 11z"/>
   <path id="6" class="fil1" d="M1033 2805l0 -9c2,1 4,2 5,3 2,0 4,0 5,0 2,0 4,0 5,0 1,-1 1,-2 1,-3 0,0 0,-1 0,-1 -1,-1 -1,-1 -2,-1 -1,-1 -2,-1 -3,-1 -1,-1 -2,-1 -2,-1 -2,-1 -3,-1 -4,-2 -1,-1 -2,-1 -3,-2 0,-1 -1,-2 -1,-3 -1,-1 -1,-2 -1,-3 0,-2 1,-4 2,-5 0,-2 1,-3 3,-4 1,-1 3,-1 5,-2 1,0 3,0 5,0 2,0 3,0 5,0 1,0 3,1 5,1l0 8c-2,-1 -3,-1 -5,-2 -1,0 -3,0 -4,0 -1,0 -2,0 -2,0 -1,0 -1,0 -2,1 0,0 -1,0 -1,1 0,0 0,0 0,1 0,0 0,1 0,1 1,1 1,1 2,2 0,0 1,0 2,0 1,1 2,1 2,1 2,1 3,1 4,2 1,0 2,1 3,2 1,1 2,2 2,3 0,1 1,2 1,3 0,2 -1,4 -2,6 -1,1 -2,2 -3,3 -2,1 -3,2 -5,2 -2,0 -4,1 -6,1 -4,0 -8,-1 -11,-2z"/>
   <path id="7" class="fil1" d="M1097 2792l-23 0c0,5 4,7 10,7 3,0 7,-1 10,-2l0 7c-4,2 -8,3 -13,3 -5,0 -10,-2 -13,-5 -3,-3 -4,-7 -4,-13 0,-5 1,-10 5,-13 3,-4 7,-5 12,-5 5,0 9,1 11,4 3,3 5,7 5,12l0 5zm-10 -7c0,-5 -2,-7 -6,-7 -2,0 -3,1 -5,2 -1,1 -2,3 -2,5l13 0z"/>
   <path id="8" class="fil1" d="M1136 2772l-11 16 11 18 -12 0 -5 -9c-1,-1 -1,-2 -2,-4l0 0c0,1 -1,2 -1,4l-5 9 -12 0 11 -17 -11 -17 13 0 5 9c0,1 1,2 1,3l0 0c0,-1 1,-2 1,-3l5 -9 12 0z"/>
   <path id="9" class="fil1" d="M763 2897l-11 0 0 -5 0 0c-2,4 -6,6 -11,6 -4,0 -7,-2 -10,-5 -3,-3 -4,-7 -4,-12 0,-6 2,-10 4,-14 3,-3 7,-5 12,-5 4,0 7,2 9,5l0 0 0 -21 11 0 0 51zm-11 -17l0 -2c0,-2 0,-4 -2,-6 -1,-1 -3,-2 -5,-2 -2,0 -4,1 -5,3 -1,2 -2,4 -2,7 0,3 1,6 2,7 1,2 3,3 5,3 2,0 4,-1 5,-3 2,-1 2,-4 2,-7z"/>
   <path id="10" class="fil1" d="M800 2897l-10 0 0 -5 0 0c-2,4 -6,6 -10,6 -3,0 -6,-1 -8,-3 -2,-2 -3,-4 -3,-7 0,-7 4,-11 12,-12l9 -1c0,-4 -2,-6 -6,-6 -4,0 -8,1 -11,4l0 -8c1,-1 3,-2 6,-2 2,-1 4,-1 7,-1 9,0 14,5 14,15l0 20zm-10 -14l0 -2 -6 1c-3,0 -5,2 -5,4 0,2 0,3 1,3 1,1 2,1 4,1 2,0 3,0 4,-2 2,-1 2,-3 2,-5z"/>
   <path id="11" class="fil1" d="M806 2896l0 -8c2,1 4,2 6,2 1,1 3,1 4,1 2,0 4,0 5,-1 1,0 2,-1 2,-2 0,-1 -1,-2 -1,-2 -1,0 -1,-1 -2,-1 -1,-1 -2,-1 -3,-1 -1,0 -1,-1 -2,-1 -2,-1 -3,-1 -4,-2 -1,0 -2,-1 -2,-2 -1,0 -2,-1 -2,-2 0,-1 -1,-3 -1,-4 0,-2 1,-4 2,-5 0,-1 2,-3 3,-3 1,-1 3,-2 5,-2 2,-1 3,-1 5,-1 2,0 3,0 5,0 2,1 3,1 5,1l0 9c-2,-1 -3,-2 -5,-2 -1,-1 -3,-1 -4,-1 -1,0 -2,0 -2,0 -1,1 -1,1 -2,1 0,0 -1,0 -1,1 0,0 0,1 0,1 0,1 0,1 0,2 1,0 1,1 2,1 1,0 1,0 2,1 1,0 2,0 2,1 2,0 3,1 4,1 1,1 2,1 3,2 1,1 2,2 2,3 0,1 1,2 1,4 0,2 -1,3 -2,5 0,1 -2,2 -3,3 -2,1 -3,2 -5,2 -2,1 -4,1 -6,1 -4,0 -7,-1 -11,-2z"/>
   <path id="12" class="fil1" d="M856 2884c0,-1 0,-2 1,-4 0,-1 1,-2 1,-3 1,-1 2,-2 3,-3 1,-1 3,-1 4,-2 -2,-1 -4,-3 -5,-5 -2,-2 -2,-4 -2,-6 0,-2 0,-3 1,-5 1,-2 2,-3 3,-4 1,-1 3,-2 5,-3 2,0 4,-1 6,-1 2,0 5,1 6,1 2,1 4,2 5,3 2,1 3,2 4,4 0,1 1,3 1,5 0,2 -1,4 -2,6 -2,2 -4,4 -6,5 1,0 3,1 4,2 1,1 2,2 3,3 0,1 1,2 1,3 1,1 1,3 1,4 0,2 0,4 -1,6 -1,1 -2,3 -4,4 -1,1 -3,2 -5,3 -2,1 -4,1 -7,1 -2,0 -5,0 -7,-1 -2,-1 -4,-2 -5,-3 -2,-1 -3,-3 -4,-4 -1,-2 -1,-4 -1,-6zm10 -1c0,1 0,2 0,3 1,1 1,2 2,2 1,1 1,2 2,2 1,0 2,0 3,0 1,0 2,0 3,0 1,0 2,-1 2,-2 1,0 1,-1 2,-2 0,-1 0,-2 0,-3 0,-1 0,-2 0,-2 -1,-1 -1,-2 -2,-3 0,0 -1,-1 -2,-1 -1,-1 -2,-1 -3,-1 -1,0 -2,0 -3,1 -1,0 -1,1 -2,1 -1,1 -1,2 -1,2 -1,1 -1,2 -1,3zm1 -21c0,1 1,2 1,2 0,1 1,2 1,2 1,1 1,1 2,2 1,0 1,0 2,0 1,0 2,0 2,0 1,-1 2,-1 2,-2 1,0 1,-1 2,-2 0,0 0,-1 0,-2 0,-1 0,-2 0,-2 -1,-1 -1,-2 -2,-2 0,-1 -1,-1 -2,-2 0,0 -1,0 -2,0 -1,0 -1,0 -2,0 -1,1 -1,1 -2,2 0,0 -1,1 -1,2 0,0 -1,1 -1,2z"/>
   <path id="13" class="fil1" d="M930 2897l-10 0 0 -19c0,-5 -2,-8 -6,-8 -2,0 -3,1 -4,2 -2,2 -2,3 -2,6l0 19 -11 0 0 -51 11 0 0 22 0 0c3,-4 6,-6 11,-6 7,0 11,5 11,14l0 21z"/>
   <path id="14" class="fil1" d="M986 2897l-10 0 0 -5 0 0c-2,4 -6,6 -10,6 -4,0 -6,-1 -8,-3 -2,-2 -3,-4 -3,-7 0,-7 4,-11 12,-12l9 -1c0,-4 -2,-6 -6,-6 -4,0 -8,1 -12,4l0 -8c2,-1 4,-2 6,-2 3,-1 5,-1 7,-1 10,0 15,5 15,15l0 20zm-10 -14l0 -2 -6 1c-4,0 -5,2 -5,4 0,2 0,3 1,3 1,1 2,1 3,1 2,0 4,0 5,-2 1,-1 2,-3 2,-5zm3 -26l-8 0 -10 -10 9 0 9 10z"/>
   <path id="15" class="fil1" d="M992 2896l0 -8c2,1 4,2 5,2 2,1 4,1 5,1 2,0 4,0 5,-1 1,0 1,-1 1,-2 0,-1 0,-2 0,-2 -1,0 -1,-1 -2,-1 -1,-1 -2,-1 -3,-1 -1,0 -2,-1 -2,-1 -2,-1 -3,-1 -4,-2 -1,0 -2,-1 -3,-2 0,0 -1,-1 -1,-2 -1,-1 -1,-3 -1,-4 0,-2 1,-4 1,-5 1,-1 2,-3 4,-3 1,-1 3,-2 5,-2 1,-1 3,-1 5,-1 2,0 3,0 5,0 1,1 3,1 4,1l0 9c-1,-1 -2,-2 -4,-2 -1,-1 -3,-1 -4,-1 -1,0 -2,0 -2,0 -1,1 -1,1 -2,1 0,0 -1,0 -1,1 0,0 0,1 0,1 0,1 0,1 0,2 1,0 1,1 2,1 0,0 1,0 2,1 1,0 1,0 2,1 2,0 3,1 4,1 1,1 2,1 3,2 1,1 1,2 2,3 0,1 1,2 1,4 0,2 -1,3 -2,5 -1,1 -2,2 -3,3 -2,1 -3,2 -5,2 -2,1 -4,1 -6,1 -4,0 -8,-1 -11,-2z"/>
   <path id="16" class="fil1" d="M1067 2848l0 49 -11 0 0 -37c0,0 -1,1 -2,1 0,1 -1,1 -2,2 -1,0 -2,0 -3,1 -1,0 -2,0 -3,0l0 -9c3,-1 6,-2 8,-3 2,-1 5,-2 7,-4l6 0z"/>
   <path id="17" class="fil1" d="M1081 2884c0,-1 0,-2 1,-4 0,-1 1,-2 2,-3 0,-1 1,-2 3,-3 1,-1 2,-1 4,-2 -3,-1 -5,-3 -6,-5 -1,-2 -2,-4 -2,-6 0,-2 0,-3 1,-5 1,-2 2,-3 3,-4 2,-1 3,-2 5,-3 2,0 4,-1 6,-1 3,0 5,1 7,1 2,1 3,2 5,3 1,1 2,2 3,4 1,1 1,3 1,5 0,2 -1,4 -2,6 -2,2 -4,4 -6,5 1,0 3,1 4,2 1,1 2,2 3,3 1,1 1,2 2,3 0,1 0,3 0,4 0,2 0,4 -1,6 -1,1 -2,3 -3,4 -2,1 -4,2 -6,3 -2,1 -4,1 -7,1 -2,0 -4,0 -7,-1 -2,-1 -3,-2 -5,-3 -1,-1 -3,-3 -3,-4 -1,-2 -2,-4 -2,-6zm10 -1c0,1 0,2 1,3 0,1 1,2 1,2 1,1 2,2 2,2 1,0 2,0 3,0 1,0 2,0 3,0 1,0 2,-1 2,-2 1,0 2,-1 2,-2 0,-1 0,-2 0,-3 0,-1 0,-2 0,-2 0,-1 -1,-2 -2,-3 0,0 -1,-1 -2,-1 -1,-1 -2,-1 -3,-1 -1,0 -2,0 -2,1 -1,0 -2,1 -3,1 0,1 -1,2 -1,2 -1,1 -1,2 -1,3zm2 -21c0,1 0,2 0,2 1,1 1,2 1,2 1,1 2,1 2,2 1,0 2,0 2,0 1,0 2,0 3,0 0,-1 1,-1 2,-2 0,0 0,-1 1,-2 0,0 0,-1 0,-2 0,-1 0,-2 0,-2 0,-1 -1,-2 -1,-2 -1,-1 -2,-1 -2,-2 -1,0 -2,0 -3,0 0,0 -1,0 -2,0 -1,1 -1,1 -2,2 0,0 -1,1 -1,2 0,0 0,1 0,2z"/>
   <path id="18" class="fil1" d="M1155 2897l-10 0 0 -19c0,-5 -2,-8 -6,-8 -1,0 -3,1 -4,2 -1,2 -2,3 -2,6l0 19 -10 0 0 -51 10 0 0 22 0 0c3,-4 6,-6 11,-6 8,0 11,5 11,14l0 21z"/>
  </g>
 </g>
</svg>
