<?xml version="1.0" encoding="UTF-8"?>
<!DOCTYPE svg PUBLIC "-//W3C//DTD SVG 1.1//EN" "http://www.w3.org/Graphics/SVG/1.1/DTD/svg11.dtd">
<!-- Creator: CorelDRAW X7 -->
<svg xmlns="http://www.w3.org/2000/svg" xml:space="preserve" width="279.755mm" height="497.149mm" version="1.1" style="shape-rendering:geometricPrecision; text-rendering:geometricPrecision; image-rendering:optimizeQuality; fill-rule:evenodd; clip-rule:evenodd"
viewBox="0 0 1598 2840"
 xmlns:xlink="http://www.w3.org/1999/xlink">
 <defs>
  <style type="text/css">
   <![CDATA[
    .str1 {stroke:#FEFEFE;stroke-width:1.42799}
    .str0 {stroke:#FEFEFE;stroke-width:1.42799}
    .fil3 {fill:none}
    .fil0 {fill:#4745F1}
    .fil2 {fill:#FEFEFE;fill-rule:nonzero}
    .fil1 {fill:#0098DA;fill-rule:nonzero}
   ]]>
  </style>
 </defs>
 <g id="Camada_x0020_1">
  <metadata id="CorelCorpID_0Corel-Layer"/>
  <rect class="fil0" x="1" y="1" width="1597" height="2838"/>
  <g id="_1898404349472" transform="translate(0,-450)">
   <path class="fil1" d="M230 1367l0 111 -27 0 0 -11c-3,5 -6,8 -10,10 -4,3 -8,4 -14,4 -10,0 -18,-4 -25,-12 -6,-8 -9,-19 -9,-31 0,-13 3,-24 9,-32 7,-8 15,-12 25,-12 5,0 10,1 14,3 4,2 8,5 11,10l0 -40 26 0zm-58 69c0,8 2,13 5,17 2,4 6,6 11,6 5,0 9,-2 12,-6 3,-3 4,-9 4,-17 0,-6 -1,-12 -4,-16 -3,-3 -7,-5 -12,-5 -5,0 -9,2 -11,6 -3,4 -5,9 -5,15z"/>
   <path class="fil1" d="M244 1478l0 -82 25 0 0 15c3,-6 7,-10 11,-13 4,-2 10,-4 16,-4l0 27c-1,0 -2,0 -3,-1 -1,0 -2,0 -3,0 -4,0 -8,1 -10,2 -3,1 -5,3 -7,6 -1,2 -2,4 -2,7 0,3 -1,9 -1,16l0 27 -26 0z"/>
   <path class="fil2" d="M310 1478l0 -111 39 0 14 54c2,5 3,10 4,14 1,5 2,9 3,13 1,-4 2,-9 3,-14 1,-5 2,-10 4,-16l14 -51 39 0 0 111 -26 0 0 -49c0,-3 0,-8 0,-14 0,-7 1,-14 1,-22l-21 85 -29 0 -20 -85c0,10 0,19 0,26 1,8 1,14 1,19l0 40 -26 0z"/>
   <path class="fil2" d="M469 1429l30 -1c0,-5 -1,-9 -4,-12 -3,-3 -6,-4 -11,-4 -4,0 -8,1 -11,4 -2,3 -4,7 -4,13zm29 23l26 0c-3,9 -7,16 -15,21 -7,5 -15,8 -26,8 -12,0 -22,-4 -30,-12 -7,-8 -11,-18 -11,-31 0,-14 4,-25 11,-33 8,-7 18,-11 30,-11 13,0 23,4 31,12 7,8 11,19 11,33 0,1 0,2 0,3 0,1 0,1 0,2l-55 0c0,5 1,10 3,13 3,3 6,4 11,4 4,0 7,0 9,-2 2,-1 4,-4 5,-7z"/>
   <path class="fil2" d="M616 1448c-1,10 -5,18 -12,24 -7,6 -17,9 -28,9 -12,0 -22,-4 -29,-12 -8,-8 -11,-18 -11,-31 0,-14 3,-25 11,-33 7,-8 18,-12 31,-12 11,0 20,3 27,9 7,6 10,13 11,23l-27 0c-1,-3 -2,-6 -4,-8 -2,-2 -5,-3 -8,-3 -4,0 -8,2 -10,6 -3,4 -4,10 -4,17 0,8 1,13 4,17 2,4 5,6 10,6 4,0 6,-1 8,-3 2,-2 4,-5 5,-9l26 0z"/>
   <path class="fil2" d="M714 1478l0 -82 26 0 0 12c3,-5 7,-8 11,-10 4,-3 9,-4 14,-4 10,0 17,3 21,8 4,4 7,12 7,23l0 53 -27 0 0 -41c0,-10 -1,-16 -3,-18 -1,-3 -4,-4 -9,-4 -4,0 -8,1 -10,4 -2,4 -3,9 -3,15l0 44 -27 0z"/>
   <polygon class="fil2" points="806,1478 806,1396 833,1396 833,1478 "/>
   <path class="fil2" d="M925 1448c-1,10 -5,18 -12,24 -8,6 -17,9 -28,9 -12,0 -22,-4 -29,-12 -8,-8 -11,-18 -11,-31 0,-14 3,-25 11,-33 7,-8 18,-12 30,-12 12,0 21,3 28,9 6,6 10,13 11,23l-27 0c-1,-3 -2,-6 -4,-8 -2,-2 -5,-3 -8,-3 -4,0 -8,2 -10,6 -3,4 -4,10 -4,17 0,8 1,13 4,17 2,4 5,6 10,6 4,0 6,-1 8,-3 2,-2 4,-5 5,-9l26 0z"/>
   <path class="fil2" d="M964 1437c0,8 1,13 4,17 3,4 7,7 12,7 5,0 9,-3 12,-7 3,-4 4,-9 4,-17 0,-7 -1,-13 -4,-17 -3,-4 -7,-6 -12,-6 -5,0 -9,2 -12,6 -3,4 -4,10 -4,17zm-27 0c0,-14 3,-24 11,-32 8,-8 18,-12 32,-12 13,0 24,4 32,12 8,8 11,18 11,32 0,14 -3,25 -11,32 -8,8 -19,12 -32,12 -14,0 -24,-4 -32,-12 -8,-7 -11,-18 -11,-32z"/>
   <path class="fil2" d="M675 1440c-2,1 -5,2 -11,3 -2,1 -4,1 -5,2 -3,1 -6,2 -7,3 -1,1 -2,3 -2,6 0,3 1,5 3,7 1,2 4,2 7,2 4,0 8,-1 11,-4 3,-2 4,-6 4,-10l0 -9zm30 38l-27 0c-1,-1 -1,-2 -1,-4 0,-1 -1,-3 -1,-4 -4,4 -8,6 -12,8 -4,2 -9,3 -14,3 -8,0 -14,-2 -19,-7 -4,-4 -7,-10 -7,-17 0,-7 2,-12 6,-17 3,-4 9,-7 16,-9 4,-1 9,-2 15,-3 10,-1 14,-3 14,-6l0 -2c0,-3 -1,-4 -2,-6 -2,-1 -5,-1 -8,-1 -4,0 -7,0 -9,2 -3,1 -4,4 -5,7l-24 0c1,-9 5,-16 11,-21 7,-4 16,-7 27,-7 8,0 14,1 19,3 5,2 9,4 11,8 2,3 4,6 5,9 0,4 1,9 1,17l0 31c0,4 0,7 1,9 0,2 1,4 3,4l0 3zm-65 -92l15 -27 19 0 14 27 -11 0 -13 -14 -12 14 -12 0z"/>
  </g>
  <g id="_1898404352800">
   <g>
    <path class="fil2" d="M1597 1l-1596 0 0 -1 1596 0 1 1 -1 0zm0 -1l1 0 0 1 -1 -1zm0 2839l0 -2838 1 0 0 2838 -1 1 0 -1zm1 0l0 1 -1 0 1 -1zm-1597 -1l1596 0 0 2 -1596 0 -1 -1 1 -1zm0 2l-1 0 0 -1 1 1zm0 -2839l0 2838 -1 0 0 -2838 1 -1 0 1zm-1 0l0 -1 1 0 -1 1z"/>
   </g>
   <rect class="fil3 str0" x="828" y="2014" width="638" height="209" rx="105" ry="105"/>
   <rect class="fil3 str1" x="133" y="2014" width="638" height="209" rx="105" ry="105"/>
  </g>
  
  
  
  
  
  
  
  
  
  
  
  
  
  
  
 </g>
</svg>
