<?xml version="1.0" encoding="UTF-8"?>
<!DOCTYPE svg PUBLIC "-//W3C//DTD SVG 1.1//EN" "http://www.w3.org/Graphics/SVG/1.1/DTD/svg11.dtd">
<!-- Creator: CorelDRAW X7 -->
<svg xmlns="http://www.w3.org/2000/svg" xml:space="preserve" width="279.705mm" height="497.099mm" version="1.1" style="shape-rendering:geometricPrecision; text-rendering:geometricPrecision; image-rendering:optimizeQuality; fill-rule:evenodd; clip-rule:evenodd"
viewBox="0 0 9296 16521"
 xmlns:xlink="http://www.w3.org/1999/xlink">
 <defs>
  <style type="text/css">
   <![CDATA[
    .str0 {stroke:#373435;stroke-width:6.64708}
    .str1 {stroke:#ED3237;stroke-width:16.6177}
    .fil0 {fill:none}
    .fil12 {fill:#FEFEFE}
    .fil2 {fill:#00AFEF}
    .fil1 {fill:#0EB540}
    .fil11 {fill:#4745F1}
    .fil7 {fill:#9BD300}
    .fil10 {fill:#FE7213}
    .fil6 {fill:#FEFEFE;fill-rule:nonzero}
    .fil9 {fill:#ED3237;fill-rule:nonzero}
    .fil3 {fill:#0098DA;fill-rule:nonzero}
    .fil4 {fill:#3E4095;fill-rule:nonzero}
    .fil5 {fill:#201E1E;fill-rule:nonzero}
    .fil8 {fill:#4745F1;fill-rule:nonzero}
   ]]>
  </style>
    <clipPath id="id0">
     <path d="M1075 2564l7146 0c170,0 308,139 308,308l0 3743c0,169 -138,307 -308,307l-7146 0c-169,0 -308,-138 -308,-307l0 -3743c0,-169 139,-308 308,-308z"/>
    </clipPath>
     <clipPath id="id1">
      <path d="M1075 2564l7146 0c170,0 308,139 308,308l0 3743c0,169 -138,307 -308,307l-7146 0c-169,0 -308,-138 -308,-307l0 -3743c0,-169 139,-308 308,-308z"/>
     </clipPath>
     <clipPath id="id2">
      <path d="M1075 2564l7146 0c170,0 308,139 308,308l0 3743c0,169 -138,307 -308,307l-7146 0c-169,0 -308,-138 -308,-307l0 -3743c0,-169 139,-308 308,-308z"/>
     </clipPath>
 </defs>
 <g id="Camada_x0020_1">
  <metadata id="CorelCorpID_0Corel-Layer"/>
  <rect class="fil0" x="3" y="3" width="9289" height="16515"/>
  <path class="fil1" d="M4649 15335l-3578 0c-166,0 -302,-136 -302,-302l0 -1465c0,-165 136,-301 302,-301l3578 0 3579 0c165,0 301,136 301,301l0 1465c0,166 -136,302 -301,302l-3579 0z"/>
  <path class="fil2" d="M1071 7252l3113 0c166,0 301,136 301,302l0 3524c0,166 -135,301 -301,301l-3113 0c-166,0 -302,-135 -302,-301l0 -3524c0,-166 136,-302 302,-302z"/>
  <g id="_1898717733168">
   <path class="fil3" d="M1339 987l0 645 -156 0 0 -62c-17,26 -38,45 -61,57 -23,13 -49,19 -80,19 -60,0 -108,-23 -145,-69 -37,-46 -56,-107 -56,-181 0,-75 19,-136 56,-184 37,-47 85,-71 143,-71 31,0 59,7 84,19 24,13 44,31 60,56l0 -229 155 0zm-336 402c0,43 8,75 24,98 15,23 38,34 68,34 30,0 52,-11 68,-33 15,-23 23,-56 23,-99 0,-40 -8,-71 -24,-93 -16,-22 -39,-33 -69,-33 -27,0 -49,12 -66,34 -16,23 -24,53 -24,92z"/>
   <path class="fil3" d="M1417 1632l0 -476 150 0 0 83c17,-33 38,-57 62,-71 25,-16 57,-23 95,-24l0 154c-7,0 -13,-1 -20,-2 -6,0 -13,0 -18,0 -24,0 -44,3 -60,11 -16,7 -28,18 -37,33 -6,9 -10,24 -13,42 -2,19 -4,49 -4,90l0 160 -155 0z"/>
   <path class="fil4" d="M1801 1632l0 -645 227 0 85 314c8,28 14,55 21,81 6,26 11,52 16,76 5,-26 12,-53 19,-82 7,-29 15,-60 24,-93l80 -296 227 0 0 645 -151 0 0 -286c0,-20 1,-48 2,-85 1,-36 2,-78 4,-125l-124 496 -164 0 -121 -496c2,57 4,108 5,154 1,46 2,81 2,107l0 235 -152 0z"/>
   <path class="fil4" d="M2727 1343l177 0c0,-31 -8,-55 -24,-72 -16,-17 -37,-26 -64,-26 -26,0 -47,9 -62,26 -15,17 -24,41 -27,72zm169 139l150 0c-14,53 -41,93 -82,122 -41,28 -92,43 -153,43 -74,0 -132,-23 -175,-68 -43,-44 -65,-106 -65,-183 0,-79 22,-141 65,-187 43,-46 102,-69 175,-69 76,0 135,23 178,70 43,47 65,111 65,194 0,7 0,13 0,17 0,4 0,7 -1,10l-322 0c0,34 7,59 22,77 14,18 35,27 64,27 20,0 37,-5 51,-14 13,-8 23,-21 28,-39z"/>
   <path class="fil4" d="M3584 1456c-8,60 -32,107 -73,141 -41,34 -94,51 -160,51 -71,0 -128,-23 -171,-69 -43,-45 -65,-105 -65,-180 0,-81 22,-144 66,-191 44,-46 103,-69 178,-69 66,0 118,16 158,49 40,33 63,78 68,136l-157 0c-5,-22 -13,-38 -25,-49 -11,-11 -26,-17 -45,-17 -27,0 -47,12 -61,35 -14,23 -21,57 -21,101 0,44 6,77 20,98 13,22 33,33 60,33 21,0 37,-6 49,-18 12,-11 21,-28 25,-51l154 0z"/>
   <path class="fil4" d="M4155 1632l0 -476 153 0 0 65c16,-26 36,-45 60,-58 23,-13 52,-19 84,-19 56,0 97,14 122,42 25,28 37,73 37,137l0 309 -156 0 0 -239c0,-56 -5,-92 -14,-107 -10,-16 -27,-23 -52,-23 -27,0 -47,9 -60,27 -12,18 -19,47 -19,87l0 255 -155 0z"/>
   <polygon class="fil4" points="4688,1632 4688,1156 4843,1156 4843,1632 "/>
   <path class="fil4" d="M5382 1456c-8,60 -33,107 -73,141 -41,34 -94,51 -160,51 -71,0 -128,-23 -171,-69 -43,-45 -65,-105 -65,-180 0,-81 22,-144 66,-191 43,-46 103,-69 178,-69 66,0 118,16 158,49 40,33 63,78 67,136l-157 0c-4,-22 -12,-38 -24,-49 -11,-11 -27,-17 -45,-17 -27,0 -47,12 -61,35 -14,23 -21,57 -21,101 0,44 6,77 20,98 13,22 33,33 60,33 21,0 37,-6 49,-18 12,-11 21,-28 25,-51l154 0z"/>
   <path class="fil4" d="M5608 1394c0,43 8,77 24,100 16,23 39,35 69,35 29,0 52,-12 69,-35 16,-24 24,-57 24,-100 0,-43 -8,-77 -24,-100 -17,-23 -40,-35 -69,-35 -30,0 -53,12 -69,35 -16,23 -24,56 -24,100zm-160 -1c0,-79 23,-142 67,-187 45,-45 107,-67 186,-67 79,0 141,22 186,67 44,45 67,108 67,187 0,80 -23,143 -67,188 -45,45 -107,68 -186,68 -80,0 -142,-23 -186,-68 -44,-45 -67,-108 -67,-188z"/>
   <path class="fil4" d="M3929 1408c-12,8 -33,15 -63,21 -15,3 -26,6 -34,8 -19,5 -32,12 -40,20 -7,8 -11,19 -11,33 0,17 5,30 16,41 10,10 24,15 41,15 27,0 49,-7 66,-23 16,-15 25,-35 25,-60l0 -55zm171 224l-158 0c-2,-7 -4,-15 -5,-23 -1,-8 -3,-17 -4,-26 -22,22 -45,38 -70,49 -25,10 -52,16 -81,16 -46,0 -83,-13 -109,-38 -27,-26 -40,-60 -40,-103 0,-39 10,-71 31,-96 21,-24 53,-42 95,-52 23,-5 53,-10 89,-17 54,-8 81,-21 81,-38l0 -12c0,-13 -5,-24 -16,-31 -10,-7 -26,-11 -46,-11 -22,0 -40,4 -53,14 -13,9 -21,22 -24,40l-144 0c8,-54 30,-94 67,-120 37,-27 89,-40 157,-40 43,0 79,5 108,15 29,11 51,26 68,47 11,15 19,33 24,53 5,21 7,54 7,100l0 180c0,22 2,39 6,51 4,13 9,21 17,24l0 18zm-376 -534l85 -161 112 0 84 161 -67 0 -73 -87 -73 87 -68 0z"/>
  </g>
  <g id="_1898717734512">
   <g>
   </g>
   <g style="clip-path:url(#id0)">
    <g id="_1898717743600">
    </g>
    <g style="clip-path:url(#id1)">
     
    </g>
    <g style="clip-path:url(#id2)">
    </g>
   </g>
   <path class="fil0" d="M1075 2564l7146 0c170,0 308,139 308,308l0 3743c0,169 -138,307 -308,307l-7146 0c-169,0 -308,-138 -308,-307l0 -3743c0,-169 139,-308 308,-308z"/>
   <!-- text removed -->
   
   
   
   
   
   
   
   
   
   
   
   
   
   
   
   
   
   
   
   
   
   
   
   
   
   
   
   
   
   
   
   
   
   
   
   
   
   
   <!-- text removed -->
   
   
   
   
   
   
   
   
   
   
   
   
   
   
   
   
   
   
   
   
   
   
   
   
   
   
   
   
   
   
   
   
   
   
   
   
   
   
  </g>
  <path class="fil7" d="M5114 7252l3114 0c165,0 301,136 301,302l0 3524c0,166 -136,301 -301,301l-3114 0c-165,0 -301,-135 -301,-301l0 -3524c0,-166 136,-302 301,-302z"/>
  <path class="fil8" d="M5676 8059l-78 0 0 -210c0,-23 1,-48 3,-75l-2 0c-4,21 -8,37 -11,46l-82 239 -65 0 -83 -236c-2,-6 -6,-23 -11,-49l-2 0c2,35 3,65 3,91l0 194 -71 0 0 -351 115 0 72 208c6,17 10,33 12,50l2 0c4,-19 9,-36 14,-51l71 -207 113 0 0 351z"/>
  <path id="1" class="fil8" d="M5973 7956l-163 0c2,36 25,54 69,54 27,0 51,-6 72,-19l0 55c-23,13 -53,19 -90,19 -40,0 -72,-11 -94,-34 -23,-22 -34,-53 -34,-93 0,-42 12,-75 37,-99 24,-25 53,-37 88,-37 37,0 65,11 85,33 20,21 30,51 30,88l0 33zm-71 -48c0,-36 -15,-54 -44,-54 -12,0 -23,5 -32,16 -9,10 -15,23 -17,38l93 0z"/>
  <path id="2" class="fil8" d="M6209 8050c-18,10 -43,15 -76,15 -38,0 -69,-12 -93,-35 -24,-23 -36,-53 -36,-90 0,-43 13,-76 38,-101 26,-24 60,-37 103,-37 29,0 51,4 64,12l0 66c-16,-12 -34,-19 -54,-19 -22,0 -40,7 -53,20 -13,13 -19,31 -19,54 0,22 6,39 18,52 13,12 30,19 51,19 20,0 38,-6 57,-18l0 62z"/>
  <path id="3" class="fil8" d="M6468 8059l-73 0 0 -36 -1 0c-17,28 -42,42 -75,42 -24,0 -43,-7 -57,-21 -14,-14 -21,-32 -21,-55 0,-48 29,-77 86,-84l68 -9c0,-27 -15,-41 -44,-41 -30,0 -59,9 -85,27l0 -59c10,-5 25,-10 44,-14 18,-5 35,-7 51,-7 71,0 107,36 107,107l0 150zm-73 -102l0 -17 -45 6c-25,3 -38,15 -38,34 0,9 3,16 9,22 6,5 15,8 25,8 15,0 26,-5 36,-15 9,-10 13,-23 13,-38zm55 -188l-50 0 -39 -46 -36 46 -50 0 57 -80 61 0 57 80z"/>
  <path id="4" class="fil8" d="M6771 8059l-77 0 0 -139c0,-39 -14,-59 -42,-59 -13,0 -24,6 -33,16 -8,10 -13,23 -13,39l0 143 -77 0 0 -251 77 0 0 40 1 0c19,-30 45,-46 81,-46 55,0 83,35 83,103l0 154z"/>
  <path id="5" class="fil8" d="M6871 7769c-13,0 -24,-4 -32,-12 -8,-8 -12,-17 -12,-28 0,-12 4,-21 12,-29 8,-7 19,-11 32,-11 13,0 24,4 32,11 8,8 13,17 13,29 0,11 -5,21 -13,29 -8,7 -19,11 -32,11zm38 290l-77 0 0 -251 77 0 0 251z"/>
  <path id="6" class="fil8" d="M7164 8050c-18,10 -43,15 -76,15 -38,0 -69,-12 -93,-35 -24,-23 -36,-53 -36,-90 0,-43 13,-76 39,-101 25,-24 59,-37 102,-37 29,0 51,4 64,12l0 66c-16,-12 -34,-19 -54,-19 -22,0 -40,7 -53,20 -13,13 -19,31 -19,54 0,22 6,39 18,52 13,12 30,19 51,19 20,0 38,-6 57,-18l0 62z"/>
  <path id="7" class="fil8" d="M7334 8065c-42,0 -75,-12 -99,-35 -23,-24 -35,-55 -35,-95 0,-42 12,-74 37,-98 25,-23 58,-35 100,-35 42,0 74,12 98,35 24,24 36,55 36,93 0,42 -13,75 -37,99 -24,24 -58,36 -100,36zm2 -204c-18,0 -33,7 -43,19 -10,13 -15,31 -15,54 0,48 20,72 58,72 37,0 56,-25 56,-74 0,-47 -19,-71 -56,-71z"/>
  <path id="8" class="fil8" d="M5564 8617c-34,20 -76,29 -127,29 -57,0 -101,-15 -134,-46 -32,-32 -48,-75 -48,-129 0,-55 17,-100 53,-135 35,-35 83,-52 142,-52 37,0 70,5 98,15l0 74c-27,-15 -60,-23 -99,-23 -33,0 -60,10 -80,32 -21,21 -31,49 -31,85 0,36 9,64 27,84 19,19 44,29 75,29 19,0 34,-3 45,-8l0 -68 -70 0 0 -64 149 0 0 177z"/>
  <path id="9" class="fil8" d="M5863 8640l-77 0 0 -38 -1 0c-19,30 -45,44 -77,44 -58,0 -87,-35 -87,-105l0 -151 77 0 0 144c0,35 14,53 42,53 14,0 25,-5 33,-14 9,-10 13,-23 13,-40l0 -143 77 0 0 250z"/>
  <path id="10" class="fil8" d="M5967 8350c-13,0 -24,-4 -32,-11 -8,-8 -12,-18 -12,-29 0,-11 4,-21 12,-28 8,-8 19,-11 32,-11 13,0 24,3 32,11 8,7 13,17 13,28 0,12 -5,22 -13,29 -8,8 -19,11 -32,11zm38 290l-77 0 0 -250 77 0 0 250z"/>
  <path id="11" class="fil8" d="M6312 8640l-77 0 0 -139c0,-39 -14,-58 -42,-58 -13,0 -24,5 -32,15 -9,11 -13,24 -13,39l0 143 -78 0 0 -250 78 0 0 40 1 0c18,-31 45,-46 80,-46 55,0 83,34 83,103l0 153z"/>
  <path id="12" class="fil8" d="M6563 8631c-17,10 -43,15 -76,15 -38,0 -69,-11 -93,-35 -24,-23 -36,-53 -36,-90 0,-42 13,-76 39,-100 25,-25 59,-37 102,-37 29,0 51,4 64,11l0 66c-16,-12 -34,-18 -54,-18 -22,0 -40,6 -53,19 -13,13 -19,31 -19,54 0,22 6,40 18,52 13,13 30,19 51,19 20,0 39,-6 57,-18l0 62z"/>
  <path id="13" class="fil8" d="M6854 8640l-77 0 0 -142c0,-37 -13,-55 -40,-55 -14,0 -25,5 -33,15 -9,11 -13,24 -13,39l0 143 -77 0 0 -370 77 0 0 157 1 0c19,-29 44,-43 77,-43 57,0 85,34 85,102l0 154z"/>
  <path id="14" class="fil8" d="M7034 8646c-41,0 -74,-11 -98,-35 -24,-23 -36,-55 -36,-95 0,-41 12,-74 37,-97 25,-24 59,-35 101,-35 41,0 74,11 98,35 23,23 35,54 35,93 0,41 -12,74 -37,98 -24,24 -57,36 -100,36zm2 -203c-18,0 -32,6 -42,19 -10,12 -15,30 -15,53 0,48 19,72 58,72 37,0 55,-25 55,-74 0,-47 -18,-70 -56,-70z"/>
  <path id="15" class="fil8" d="M7432 8576l148 0 0 64 -233 0 0 -26c0,-18 3,-34 9,-48 6,-15 14,-27 23,-39 9,-11 19,-21 30,-30 11,-9 21,-16 31,-23 10,-8 19,-15 27,-22 7,-6 14,-13 19,-19 6,-7 9,-14 12,-20 3,-7 4,-14 4,-22 0,-15 -4,-26 -13,-34 -8,-8 -21,-12 -39,-12 -30,0 -59,12 -86,36l0 -68c30,-19 65,-29 103,-29 18,0 34,2 48,7 14,4 26,11 36,20 10,8 17,19 22,31 5,12 8,26 8,41 0,16 -3,31 -8,43 -5,13 -11,24 -20,35 -8,10 -17,19 -28,28 -11,8 -22,17 -33,25 -8,5 -16,11 -23,16 -7,6 -14,11 -19,16 -6,6 -10,11 -14,16 -3,5 -4,10 -4,14z"/>
  <path id="16" class="fil8" d="M7848 8290l0 221 42 0 0 57 -42 0 0 72 -71 0 0 -72 -153 0 0 -60c14,-15 28,-32 42,-50 15,-18 29,-36 42,-55 14,-19 27,-39 38,-58 12,-19 22,-38 30,-55l72 0zm-155 221l84 0 0 -123c-6,11 -12,22 -18,32 -7,11 -14,22 -21,32 -8,11 -15,21 -23,31 -7,10 -15,19 -22,28z"/>
  <path id="17" class="fil8" d="M8176 8640l-77 0 0 -142c0,-37 -14,-55 -41,-55 -13,0 -24,5 -33,15 -8,11 -12,24 -12,39l0 143 -78 0 0 -370 78 0 0 157 1 0c18,-29 44,-43 77,-43 56,0 85,34 85,102l0 154z"/>
  <polygon class="fil8" points="8021,7917 7882,7917 7882,8056 7809,8056 7809,7917 7669,7917 7669,7843 7809,7843 7809,7704 7882,7704 7882,7843 8021,7843 "/>
  <path class="fil6" d="M5275 9176l0 -228 81 0c81,0 122,37 122,111 0,35 -12,64 -34,85 -22,21 -51,32 -88,32l-81 0zm52 -187l0 145 25 0c22,0 40,-7 53,-20 12,-13 19,-32 19,-55 0,-21 -7,-38 -19,-51 -13,-12 -31,-19 -53,-19l-25 0z"/>
  <polygon id="1" class="fil6" points="5652,9176 5515,9176 5515,8948 5647,8948 5647,8989 5567,8989 5567,9040 5641,9040 5641,9082 5567,9082 5567,9134 5652,9134 "/>
  <path id="2" class="fil6" d="M5970 9176l-59 0 -36 -59c-2,-4 -5,-8 -7,-12 -3,-3 -5,-6 -8,-9 -2,-2 -5,-4 -7,-6 -3,-1 -6,-2 -9,-2l-14 0 0 88 -51 0 0 -228 81 0c55,0 83,20 83,62 0,8 -1,15 -4,22 -2,6 -6,12 -10,18 -4,5 -10,10 -16,14 -7,4 -14,7 -21,9l0 1c3,1 6,2 10,5 3,2 6,5 9,8 3,3 6,7 8,10 3,4 6,8 8,11l43 68zm-140 -190l0 64 22 0c11,0 20,-4 27,-10 6,-6 10,-14 10,-24 0,-20 -12,-30 -36,-30l-23 0z"/>
  <path id="3" class="fil6" d="M6072 9174l0 35 -23 0 0 -34c-22,0 -42,-5 -60,-14l0 -44c6,5 15,9 27,13 13,5 23,7 33,8l0 -58c-25,-9 -42,-19 -51,-30 -9,-11 -13,-24 -13,-39 0,-17 6,-31 17,-43 12,-12 28,-18 47,-20l0 -30 23 0 0 29c23,1 39,5 50,11l0 43c-15,-9 -31,-15 -50,-17l0 60c23,9 40,18 50,29 10,11 15,24 15,39 0,18 -5,32 -17,43 -11,10 -27,17 -48,19zm-23 -139l0 -50c-15,2 -22,10 -22,23 0,11 7,20 22,27zm23 54l0 48c15,-2 23,-10 23,-23 0,-10 -8,-18 -23,-25z"/>
  <path id="4" class="fil6" d="M6285 8943l0 233 -50 0 0 -177c-3,3 -6,5 -10,7 -4,2 -8,4 -12,6 -4,2 -9,3 -13,4 -5,2 -10,2 -14,3l0 -42c13,-4 25,-9 37,-15 12,-6 22,-12 31,-19l31 0z"/>
  <path id="5" class="fil6" d="M6516 9100c0,11 -2,22 -6,31 -4,10 -9,18 -16,26 -7,7 -15,12 -25,16 -10,5 -20,7 -32,7 -13,0 -24,-3 -34,-8 -10,-4 -19,-11 -26,-20 -7,-9 -12,-20 -16,-34 -4,-13 -5,-28 -5,-44 0,-20 2,-38 7,-54 5,-16 11,-29 20,-41 9,-11 20,-20 33,-26 13,-6 27,-9 43,-9 18,0 31,2 41,6l0 42c-12,-7 -24,-10 -38,-10 -8,0 -16,2 -23,5 -7,3 -13,8 -18,14 -5,6 -9,13 -11,22 -3,8 -5,18 -5,28l1 0c11,-15 27,-22 48,-22 9,0 18,2 26,5 7,4 14,8 19,15 6,6 10,13 13,22 3,9 4,18 4,29zm-49 3c0,-25 -10,-37 -30,-37 -5,0 -9,1 -12,3 -4,1 -7,4 -10,7 -3,3 -5,7 -6,11 -2,4 -2,9 -2,14 0,5 0,11 2,15 1,5 4,10 6,13 3,4 6,7 10,9 4,2 8,3 12,3 5,0 9,-1 13,-3 3,-1 6,-4 9,-7 3,-4 5,-8 6,-13 1,-4 2,-9 2,-15z"/>
  <path id="6" class="fil6" d="M6619 9180c-54,0 -81,-38 -81,-115 0,-39 7,-69 22,-90 15,-21 36,-31 64,-31 53,0 79,39 79,116 0,39 -7,68 -21,89 -15,20 -36,31 -63,31zm3 -198c-22,0 -33,27 -33,82 0,51 11,77 32,77 21,0 31,-26 31,-79 0,-53 -10,-80 -30,-80z"/>
  <polygon id="7" class="fil6" points="6783,9136 6760,9216 6720,9216 6737,9136 "/>
  <path id="8" class="fil6" d="M6895 9180c-54,0 -82,-38 -82,-115 0,-39 8,-69 22,-90 15,-21 36,-31 64,-31 53,0 80,39 80,116 0,39 -7,68 -22,89 -14,20 -35,31 -62,31zm2 -198c-22,0 -32,27 -32,82 0,51 10,77 31,77 21,0 32,-26 32,-79 0,-53 -11,-80 -31,-80z"/>
  <path id="9" class="fil6" d="M7082 9180c-54,0 -81,-38 -81,-115 0,-39 7,-69 22,-90 14,-21 36,-31 64,-31 53,0 79,39 79,116 0,39 -7,68 -22,89 -14,20 -35,31 -62,31zm2 -198c-21,0 -32,27 -32,82 0,51 10,77 32,77 21,0 31,-26 31,-79 0,-53 -10,-80 -31,-80z"/>
  <path class="fil9" d="M5328 9475l0 78 -51 0 0 -228 80 0c58,0 86,25 86,73 0,23 -8,42 -25,56 -16,14 -38,21 -66,21l-24 0zm0 -110l0 71 20 0c27,0 41,-12 41,-36 0,-23 -14,-35 -41,-35l-20 0z"/>
  <path id="1" class="fil9" d="M5573 9557c-33,0 -59,-10 -80,-31 -20,-22 -31,-49 -31,-83 0,-37 11,-66 32,-88 21,-22 48,-33 83,-33 32,0 59,10 79,32 20,21 30,49 30,84 0,36 -11,65 -32,87 -20,21 -48,32 -81,32zm2 -191c-18,0 -32,7 -43,20 -10,14 -16,32 -16,54 0,22 6,40 16,53 11,14 25,20 42,20 18,0 32,-6 42,-19 10,-13 16,-31 16,-53 0,-24 -5,-42 -15,-55 -11,-14 -24,-20 -42,-20z"/>
  <path id="2" class="fil9" d="M5915 9553l-59 0 -36 -58c-2,-5 -5,-9 -7,-12 -3,-4 -5,-7 -8,-9 -2,-3 -5,-4 -7,-6 -3,-1 -6,-2 -9,-2l-14 0 0 87 -51 0 0 -228 81 0c55,0 83,21 83,62 0,8 -1,16 -4,23 -2,6 -6,12 -10,18 -4,5 -10,10 -16,14 -6,4 -13,7 -21,9l0 1c3,1 6,2 10,5 3,2 6,5 9,8 3,3 6,7 8,10 3,4 6,8 8,11l43 67zm-140 -189l0 63 22 0c11,0 20,-3 27,-9 7,-7 10,-15 10,-24 0,-20 -12,-30 -36,-30l-23 0z"/>
  <path id="3" class="fil9" d="M6227 9553l-56 0 -17 -50 -81 0 -16 50 -56 0 84 -228 60 0 82 228zm-84 -90l-25 -76c-2,-6 -3,-13 -4,-21l-1 0c-1,7 -2,13 -4,20l-25 77 59 0z"/>
  <path id="4" class="fil9" d="M6306 9475l0 78 -51 0 0 -228 80 0c58,0 87,25 87,73 0,23 -9,42 -25,56 -17,14 -39,21 -66,21l-25 0zm0 -110l0 71 21 0c27,0 41,-12 41,-36 0,-23 -14,-35 -41,-35l-21 0z"/>
  <polygon id="5" class="fil9" points="6592,9553 6455,9553 6455,9325 6587,9325 6587,9367 6506,9367 6506,9418 6581,9418 6581,9460 6506,9460 6506,9512 6592,9512 "/>
  <path id="6" class="fil9" d="M6833 9553l-51 0 -94 -143c-6,-8 -10,-14 -12,-19l0 0c0,8 1,21 1,37l0 125 -49 0 0 -228 56 0 90 139c4,7 8,13 12,19l0 0c-1,-5 -1,-16 -1,-31l0 -127 48 0 0 228z"/>
  <path id="7" class="fil9" d="M7086 9553l-56 0 -16 -50 -81 0 -16 50 -56 0 83 -228 61 0 81 228zm-84 -90l-24 -76c-2,-6 -3,-13 -4,-21l-1 0c-1,7 -2,13 -4,20l-25 77 58 0z"/>
  <path id="8" class="fil9" d="M7104 9545l0 -51c9,8 19,13 30,17 11,4 22,6 33,6 6,0 12,-1 17,-2 5,-1 9,-2 12,-5 3,-2 6,-4 7,-7 2,-3 3,-6 3,-9 0,-4 -2,-8 -4,-12 -3,-3 -6,-7 -11,-10 -4,-3 -9,-5 -15,-8 -6,-3 -13,-6 -20,-9 -18,-7 -31,-16 -40,-27 -9,-11 -13,-23 -13,-39 0,-11 2,-22 7,-30 5,-9 12,-16 20,-21 8,-6 17,-10 28,-12 11,-3 23,-4 35,-4 12,0 22,0 31,2 9,1 18,3 26,6l0 48c-4,-3 -8,-5 -13,-7 -4,-2 -9,-4 -14,-5 -5,-1 -9,-2 -14,-3 -5,-1 -9,-1 -13,-1 -6,0 -12,1 -16,2 -5,1 -9,2 -12,4 -4,2 -6,5 -8,8 -2,2 -3,6 -3,9 0,4 1,7 3,10 2,3 5,6 9,9 4,3 8,5 13,8 6,2 12,5 18,8 9,4 18,8 25,12 7,4 13,9 18,15 6,5 10,11 12,18 3,7 5,15 5,24 0,13 -3,24 -8,32 -4,9 -11,16 -19,21 -9,6 -18,10 -29,12 -11,2 -23,3 -35,3 -12,0 -24,-1 -36,-3 -11,-2 -21,-5 -29,-9z"/>
  <line class="fil0 str1" x1="5721" y1="9190" x2="7280" y2= "9002" />
  <path class="fil8" d="M5643 10567c0,-33 5,-66 15,-97 10,-31 24,-60 44,-87 20,-26 44,-50 74,-71 29,-21 64,-38 104,-52 -61,-30 -109,-69 -142,-117 -34,-47 -51,-100 -51,-157 0,-46 10,-89 29,-129 19,-39 46,-73 81,-101 34,-29 75,-51 122,-67 47,-16 99,-24 155,-24 58,0 110,8 158,24 47,16 89,38 123,66 35,29 62,62 81,101 19,39 28,81 28,126 0,57 -18,109 -54,156 -36,47 -85,86 -149,116 40,14 74,31 104,52 30,21 55,45 75,72 20,27 35,56 45,88 10,32 16,65 16,99 0,52 -11,99 -32,141 -20,42 -50,79 -88,110 -38,30 -83,54 -135,71 -53,16 -111,25 -174,25 -62,0 -120,-8 -172,-25 -53,-17 -98,-40 -136,-70 -38,-31 -67,-67 -89,-109 -21,-43 -32,-89 -32,-141zm252 -22c0,27 4,52 13,74 8,22 20,40 36,55 16,16 34,27 56,35 21,8 46,13 73,13 25,0 49,-5 71,-13 21,-8 40,-20 56,-35 16,-15 28,-34 37,-56 9,-22 13,-46 13,-73 0,-24 -4,-47 -12,-69 -9,-22 -21,-41 -36,-57 -16,-16 -35,-29 -56,-38 -22,-10 -46,-15 -73,-15 -25,0 -49,5 -71,13 -22,9 -41,21 -57,37 -15,16 -27,35 -37,57 -9,22 -13,46 -13,72zm37 -535c0,21 4,41 11,60 8,19 18,35 31,49 13,14 28,24 46,33 18,7 36,11 56,11 20,0 39,-4 57,-11 17,-9 32,-19 45,-33 14,-14 24,-31 32,-49 7,-19 11,-39 11,-60 0,-22 -4,-42 -11,-61 -7,-19 -18,-35 -31,-49 -13,-14 -28,-24 -46,-32 -18,-8 -37,-12 -57,-12 -21,0 -41,4 -58,12 -18,8 -33,19 -46,33 -13,14 -23,30 -29,49 -8,19 -11,39 -11,60z"/>
  <path id="1" class="fil8" d="M7318 9685l0 761 145 0 0 199 -145 0 0 248 -243 0 0 -248 -526 0 0 -208c46,-52 95,-109 145,-171 50,-62 98,-126 145,-192 46,-66 90,-132 130,-198 40,-67 74,-130 102,-191l247 0zm-531 761l288 0 0 -422c-19,37 -41,74 -64,111 -23,37 -47,74 -72,111 -25,36 -51,71 -77,105 -26,34 -51,66 -75,95z"/>
  <path class="fil8" d="M5468 9923l-59 0 -36 -59c-2,-4 -5,-8 -7,-12 -3,-3 -5,-6 -8,-9 -2,-2 -5,-4 -7,-6 -3,-1 -6,-1 -9,-1l-14 0 0 87 -51 0 0 -228 81 0c55,0 83,20 83,62 0,8 -1,15 -4,22 -2,7 -6,13 -10,18 -4,5 -10,10 -16,14 -6,4 -13,7 -21,9l0 1c3,1 6,3 10,5 3,2 6,5 9,8 3,4 6,7 8,11 3,3 6,7 8,10l43 68zm-140 -190l0 64 22 0c11,0 20,-3 27,-10 7,-6 10,-14 10,-24 0,-20 -12,-30 -36,-30l-23 0z"/>
  <path id="1" class="fil8" d="M5570 9922l0 34 -23 0 0 -34c-21,0 -42,-5 -60,-14l0 -44c6,5 15,9 27,14 13,4 24,6 33,7l0 -58c-25,-9 -42,-19 -51,-30 -9,-11 -13,-24 -13,-39 0,-17 6,-31 17,-43 12,-12 28,-18 47,-20l0 -30 23 0 0 29c23,1 39,5 50,11l0 43c-14,-9 -31,-15 -50,-17l0 61c23,8 40,18 50,28 10,11 15,24 15,39 0,18 -5,32 -17,43 -11,11 -27,17 -48,20zm-23 -140l0 -50c-15,3 -22,10 -22,23 0,11 7,20 22,27zm23 54l0 48c15,-2 23,-10 23,-22 0,-11 -8,-19 -23,-26z"/>
  <polygon class="fil8" points="7690,10680 7597,10997 7443,10997 7507,10680 "/>
  <path class="fil8" d="M7772 9869c0,34 -3,65 -11,93 -8,27 -19,50 -33,69 -15,19 -33,33 -54,44 -21,10 -45,15 -72,15 -32,0 -59,-5 -82,-16l0 -70c20,13 45,20 74,20 30,0 53,-10 69,-31 17,-20 26,-49 26,-87l-2 0c-17,25 -43,38 -79,38 -16,0 -30,-3 -44,-9 -13,-6 -25,-14 -35,-25 -10,-11 -18,-23 -23,-38 -6,-15 -8,-31 -8,-48 0,-21 3,-40 10,-57 6,-16 16,-31 28,-43 12,-12 26,-22 43,-28 17,-7 36,-10 56,-10 22,0 41,4 58,12 16,8 31,20 43,36 12,16 21,35 27,57 6,23 9,49 9,78zm-87 -46c0,-10 -1,-19 -3,-28 -3,-9 -6,-17 -11,-23 -4,-6 -10,-11 -17,-15 -6,-4 -13,-6 -21,-6 -7,0 -14,2 -21,5 -6,3 -11,8 -16,14 -4,5 -8,12 -10,20 -3,8 -4,17 -4,26 0,10 1,19 4,27 2,8 6,15 10,20 5,6 10,10 17,13 7,2 14,4 22,4 7,0 14,-2 21,-5 6,-3 11,-7 15,-12 5,-5 8,-11 11,-18 2,-7 3,-14 3,-22z"/>
  <path id="1" class="fil8" d="M7934 10090c-92,0 -139,-66 -139,-196 0,-68 13,-120 38,-155 25,-36 61,-53 109,-53 91,0 136,66 136,199 0,66 -12,117 -37,152 -25,35 -60,53 -107,53zm4 -339c-37,0 -55,47 -55,141 0,88 18,132 54,132 36,0 54,-46 54,-137 0,-90 -18,-136 -53,-136z"/>
  <path class="fil6" d="M7591 10284l0 63 -41 0 0 -182 64 0c45,0 68,20 68,58 0,18 -6,33 -19,44 -14,12 -31,17 -53,17l-19 0zm0 -87l0 56 16 0c21,0 32,-9 32,-28 0,-19 -11,-28 -32,-28l-16 0z"/>
  <path id="1" class="fil6" d="M7776 10350c-26,0 -47,-9 -64,-26 -16,-17 -24,-39 -24,-66 0,-28 8,-51 25,-69 16,-18 38,-27 66,-27 25,0 46,9 62,26 16,17 24,39 24,67 0,28 -8,51 -25,69 -16,17 -38,26 -64,26zm1 -153c-14,0 -25,6 -34,17 -8,10 -12,25 -12,42 0,18 4,32 12,43 9,10 20,15 33,15 15,0 26,-5 34,-15 8,-10 12,-24 12,-42 0,-19 -4,-33 -12,-44 -8,-10 -19,-16 -33,-16z"/>
  <path id="2" class="fil6" d="M8038 10347l-47 0 -28 -47c-2,-4 -5,-7 -6,-10 -2,-2 -4,-5 -6,-7 -2,-2 -4,-3 -7,-4 -2,-1 -4,-2 -7,-2l-11 0 0 70 -40 0 0 -182 64 0c44,0 66,17 66,50 0,6 -1,12 -3,17 -2,5 -4,10 -8,15 -3,4 -8,8 -13,11 -5,3 -10,5 -16,7l0 1c2,0 5,2 7,4 3,2 5,4 8,6 2,3 4,6 7,8 2,3 4,6 5,9l35 54zm-112 -151l0 50 18 0c9,0 16,-2 21,-7 6,-5 8,-12 8,-19 0,-16 -9,-24 -28,-24l-19 0z"/>
  <path id="3" class="fil6" d="M7756 10606l-40 0 0 -109c0,-12 0,-24 1,-39l-1 0c-2,12 -4,20 -5,24l-43 124 -33 0 -43 -122c-1,-4 -3,-12 -6,-26l-1 0c1,18 2,34 2,47l0 101 -37 0 0 -182 60 0 37 108c3,8 5,17 6,26l1 0c2,-10 4,-19 7,-26l37 -108 58 0 0 182z"/>
  <path id="4" class="fil6" d="M7896 10606l-108 0 0 -182 104 0 0 34 -63 0 0 40 59 0 0 33 -59 0 0 41 67 0 0 34zm-11 -198l-26 0 -20 -24 -19 24 -26 0 30 -41 31 0 30 41z"/>
  <path id="5" class="fil6" d="M7907 10599l0 -41c8,6 16,11 24,14 9,3 18,5 26,5 6,0 10,-1 14,-2 4,-1 7,-2 9,-4 3,-1 5,-3 6,-5 1,-3 2,-5 2,-8 0,-3 -1,-6 -3,-9 -2,-3 -5,-6 -8,-8 -4,-2 -8,-4 -13,-7 -4,-2 -10,-4 -15,-6 -14,-6 -25,-13 -32,-22 -7,-8 -10,-19 -10,-31 0,-9 2,-17 5,-24 4,-7 9,-12 16,-17 6,-4 14,-7 23,-10 8,-2 17,-3 27,-3 9,0 18,1 25,2 7,1 14,3 20,5l0 38c-3,-2 -6,-4 -10,-5 -3,-2 -7,-3 -11,-4 -4,-1 -7,-2 -11,-3 -4,0 -7,-1 -11,-1 -5,0 -9,1 -12,2 -4,1 -7,2 -10,4 -3,1 -5,3 -6,5 -2,3 -2,5 -2,8 0,3 0,6 2,8 2,2 4,5 7,7 3,2 6,4 11,6 4,2 9,4 14,6 7,3 14,7 19,10 6,4 11,7 15,12 4,4 8,9 10,14 2,6 3,12 3,20 0,10 -2,18 -6,25 -4,7 -9,13 -15,17 -7,4 -15,7 -23,9 -9,2 -18,3 -28,3 -10,0 -19,-1 -28,-3 -9,-1 -17,-4 -24,-7z"/>
  <rect class="fil10" x="4815" y="11715" width="3710" height="1217" rx="609" ry="609"/>
  <path class="fil6" d="M5709 12486c-25,13 -59,19 -100,19 -53,0 -96,-16 -127,-47 -30,-32 -46,-74 -46,-127 0,-56 17,-101 52,-136 35,-35 80,-53 135,-53 34,0 63,5 86,13l0 76c-23,-14 -50,-21 -80,-21 -33,0 -59,11 -79,31 -21,21 -31,49 -31,85 0,33 10,60 29,81 19,20 45,30 77,30 31,0 59,-8 84,-23l0 72z"/>
  <path id="1" class="fil6" d="M5913 12505c-51,0 -91,-16 -123,-49 -32,-33 -47,-75 -47,-128 0,-55 16,-100 48,-134 32,-34 74,-52 127,-52 50,0 91,17 122,50 31,32 46,76 46,129 0,55 -16,100 -48,133 -32,34 -74,51 -125,51zm3 -295c-28,0 -50,11 -66,32 -16,20 -24,48 -24,82 0,35 8,62 24,83 16,20 38,30 64,30 27,0 49,-10 65,-30 16,-19 24,-47 24,-81 0,-37 -8,-65 -23,-85 -16,-21 -37,-31 -64,-31z"/>
  <path id="2" class="fil6" d="M6544 12499l-78 0 0 -210c0,-23 1,-48 3,-75l-2 0c-4,22 -8,37 -11,47l-82 238 -65 0 -84 -236c-2,-6 -6,-23 -11,-49l-2 0c2,35 3,65 3,91l0 194 -71 0 0 -351 116 0 72 208c5,17 9,33 12,50l1 0c5,-19 10,-36 14,-50l72 -208 113 0 0 351z"/>
  <path id="3" class="fil6" d="M6702 12378l0 121 -79 0 0 -351 124 0c89,0 133,38 133,112 0,35 -13,64 -38,86 -26,21 -60,32 -102,32l-38 0zm0 -169l0 109 31 0c43,0 64,-18 64,-55 0,-36 -21,-54 -64,-54l-31 0z"/>
  <path id="4" class="fil6" d="M7225 12499l-91 0 -54 -90c-4,-7 -8,-13 -12,-19 -4,-5 -7,-10 -11,-13 -4,-4 -8,-7 -12,-9 -4,-2 -9,-3 -14,-3l-21 0 0 134 -79 0 0 -351 125 0c85,0 128,32 128,96 0,12 -2,23 -6,34 -4,10 -9,19 -16,28 -6,8 -15,15 -24,21 -10,6 -21,11 -33,14l0 1c5,2 10,4 15,8 5,4 10,8 14,13 5,5 9,10 14,16 4,5 8,11 11,16l66 104zm-215 -292l0 98 34 0c17,0 31,-5 41,-15 11,-10 16,-22 16,-37 0,-30 -19,-46 -55,-46l-36 0z"/>
  <path id="5" class="fil6" d="M7566 12499l-86 0 -25 -78 -124 0 -25 78 -86 0 128 -351 94 0 124 351zm-129 -139l-37 -118c-3,-8 -5,-19 -6,-31l-2 0c-1,10 -3,20 -6,30l-39 119 90 0z"/>
  <path id="6" class="fil6" d="M7904 12499l-91 0 -54 -90c-4,-7 -8,-13 -12,-19 -4,-5 -7,-10 -11,-13 -4,-4 -8,-7 -12,-9 -4,-2 -9,-3 -14,-3l-21 0 0 134 -79 0 0 -351 125 0c85,0 128,32 128,96 0,12 -2,23 -6,34 -4,10 -9,19 -16,28 -6,8 -15,15 -24,21 -10,6 -21,11 -33,14l0 1c5,2 10,4 15,8 5,4 10,8 14,13 5,5 9,10 14,16 4,5 8,11 11,16l66 104zm-215 -292l0 98 34 0c17,0 31,-5 41,-15 11,-10 16,-22 16,-37 0,-30 -19,-46 -55,-46l-36 0z"/>
  <rect class="fil11" x="771" y="11715" width="3710" height="1217" rx="609" ry="609"/>
  <path class="fil6" d="M1411 7986l-29 0 -24 -62 -93 0 -23 62 -28 0 85 -221 26 0 86 221zm-61 -85l-35 -95c-1,-3 -2,-8 -3,-15l-1 0c-1,7 -2,12 -3,15l-35 95 77 0z"/>
  <path id="1" class="fil6" d="M1751 7986l-25 0 0 -91c0,-17 -3,-30 -8,-38 -6,-8 -15,-11 -28,-11 -10,0 -20,4 -27,14 -8,10 -12,22 -12,36l0 90 -25 0 0 -94c0,-31 -12,-46 -36,-46 -11,0 -20,4 -27,13 -8,10 -11,22 -11,37l0 90 -25 0 0 -158 25 0 0 25 1 0c11,-19 27,-29 49,-29 10,0 20,3 28,9 8,6 13,14 16,24 12,-22 30,-33 53,-33 35,0 52,22 52,65l0 97z"/>
  <path id="2" class="fil6" d="M1912 7986l-25 0 0 -25 -1 0c-11,19 -27,29 -48,29 -16,0 -28,-4 -37,-13 -9,-8 -14,-19 -14,-33 0,-29 18,-47 52,-51l48 -7c0,-27 -11,-40 -33,-40 -19,0 -36,6 -51,19l0 -26c15,-10 33,-15 53,-15 38,0 56,20 56,59l0 103zm-25 -80l-38 5c-12,2 -21,5 -27,9 -6,4 -9,12 -9,22 0,8 3,14 9,19 5,5 12,7 21,7 13,0 23,-4 32,-13 8,-9 12,-20 12,-33l0 -16z"/>
  <path id="3" class="fil6" d="M2091 7986l-25 0 0 -90c0,-34 -12,-50 -37,-50 -12,0 -23,4 -31,14 -9,9 -13,21 -13,36l0 90 -25 0 0 -158 25 0 0 26 1 0c12,-20 29,-30 52,-30 17,0 30,6 40,17 9,11 13,27 13,48l0 97z"/>
  <path id="4" class="fil6" d="M2267 7986l-25 0 0 -25 -1 0c-11,19 -27,29 -49,29 -38,0 -56,-23 -56,-68l0 -94 25 0 0 90c0,34 13,50 38,50 12,0 23,-4 31,-13 8,-9 12,-21 12,-36l0 -91 25 0 0 158z"/>
  <path id="5" class="fil6" d="M2391 7985c-6,3 -13,4 -23,4 -28,0 -42,-15 -42,-46l0 -93 -27 0 0 -22 27 0 0 -39 26 -8 0 47 39 0 0 22 -39 0 0 89c0,10 1,18 5,22 4,5 10,7 18,7 6,0 12,-2 16,-5l0 22z"/>
  <path id="6" class="fil6" d="M2550 7913l-112 0c1,18 5,32 14,41 10,10 22,14 38,14 18,0 34,-5 49,-17l0 24c-14,10 -32,15 -55,15 -23,0 -40,-7 -53,-22 -13,-14 -19,-34 -19,-60 0,-25 7,-45 21,-61 14,-15 31,-23 52,-23 21,0 37,7 48,20 11,14 17,32 17,56l0 13zm-26 -21c0,-15 -4,-26 -11,-34 -7,-8 -16,-12 -29,-12 -12,0 -22,4 -30,12 -8,9 -14,20 -15,34l85 0z"/>
  <path id="7" class="fil6" d="M2720 7986l-26 0 0 -90c0,-34 -12,-50 -37,-50 -12,0 -23,4 -31,14 -8,9 -12,21 -12,36l0 90 -26 0 0 -158 26 0 0 26 0 0c12,-20 29,-30 52,-30 17,0 31,6 40,17 9,11 14,27 14,48l0 97z"/>
  <path id="8" class="fil6" d="M2875 7979c-12,7 -26,11 -43,11 -23,0 -41,-8 -55,-22 -14,-15 -21,-34 -21,-57 0,-26 8,-47 23,-63 15,-16 35,-24 60,-24 14,0 26,3 36,8l0 26c-11,-8 -24,-12 -37,-12 -16,0 -30,5 -40,17 -10,11 -16,27 -16,46 0,18 5,33 15,43 10,11 23,16 39,16 14,0 27,-4 39,-13l0 24zm-13 47c0,18 -14,27 -43,27 -4,0 -7,0 -10,0l0 -14c5,0 8,1 11,1 15,0 22,-5 22,-14 0,-8 -7,-12 -20,-12 -1,0 -3,0 -6,0l0 -28 16 0 0 16c9,0 17,2 22,6 5,4 8,10 8,18z"/>
  <path id="9" class="fil6" d="M3027 7986l-26 0 0 -25 0 0c-11,19 -28,29 -49,29 -16,0 -28,-4 -37,-13 -9,-8 -13,-19 -13,-33 0,-29 17,-47 52,-51l47 -7c0,-27 -11,-40 -32,-40 -19,0 -37,6 -52,19l0 -26c16,-10 34,-15 54,-15 37,0 56,20 56,59l0 103zm-26 -80l-38 5c-12,2 -20,5 -26,9 -6,4 -9,12 -9,22 0,8 2,14 8,19 5,5 13,7 22,7 12,0 23,-4 31,-13 8,-9 12,-20 12,-33l0 -16zm17 -145c0,11 -2,20 -7,26 -5,7 -12,11 -20,11 -8,0 -16,-3 -25,-8 -8,-5 -14,-7 -19,-7 -9,0 -13,6 -13,17l-15 0c0,-11 3,-19 8,-26 4,-7 11,-10 20,-10 7,0 15,3 23,8 8,5 14,7 20,7 9,0 13,-6 13,-18l15 0z"/>
  <path id="10" class="fil6" d="M3140 7990c-23,0 -42,-8 -56,-22 -13,-15 -20,-35 -20,-59 0,-27 7,-47 21,-62 15,-15 34,-23 59,-23 24,0 42,7 55,22 14,14 20,35 20,60 0,26 -7,46 -21,61 -14,15 -34,23 -58,23zm2 -144c-16,0 -29,5 -38,16 -10,11 -15,26 -15,46 0,19 5,33 15,44 9,11 22,16 38,16 17,0 29,-5 38,-15 9,-11 13,-26 13,-46 0,-19 -4,-35 -13,-45 -9,-11 -21,-16 -38,-16z"/>
  <path id="11" class="fil6" d="M1460 8459l-25 0 0 -91c0,-17 -3,-30 -8,-38 -5,-7 -15,-11 -27,-11 -11,0 -20,5 -28,15 -7,9 -11,21 -11,35l0 90 -26 0 0 -94c0,-31 -12,-46 -36,-46 -11,0 -20,4 -27,14 -7,9 -11,21 -11,36l0 90 -25 0 0 -158 25 0 0 25 1 0c11,-19 27,-29 49,-29 11,0 20,3 28,9 8,6 14,14 17,24 11,-22 29,-33 52,-33 35,0 52,22 52,65l0 97z"/>
  <path id="12" class="fil6" d="M1635 8387l-111 0c0,17 5,31 14,40 9,10 21,15 37,15 18,0 35,-6 49,-18l0 24c-13,10 -32,15 -55,15 -22,0 -40,-7 -52,-22 -13,-14 -20,-34 -20,-60 0,-25 7,-45 21,-60 14,-16 32,-24 52,-24 21,0 37,7 48,20 12,14 17,32 17,56l0 14zm-26 -22c0,-15 -3,-26 -10,-34 -7,-8 -17,-12 -29,-12 -12,0 -22,4 -31,13 -8,8 -13,19 -15,33l85 0z"/>
  <path id="13" class="fil6" d="M1782 8452c-13,7 -27,11 -44,11 -22,0 -40,-7 -54,-22 -14,-15 -21,-34 -21,-57 0,-26 7,-47 22,-63 15,-16 35,-24 60,-24 14,0 26,3 37,8l0 26c-12,-8 -24,-12 -38,-12 -16,0 -29,6 -40,17 -10,12 -15,27 -15,46 0,18 5,33 14,44 10,10 23,16 40,16 13,0 26,-5 39,-14l0 24z"/>
  <path id="14" class="fil6" d="M1933 8459l-25 0 0 -24 -1 0c-11,19 -27,28 -49,28 -15,0 -28,-4 -37,-13 -8,-8 -13,-19 -13,-33 0,-29 18,-47 52,-51l48 -7c0,-27 -11,-40 -33,-40 -19,0 -36,6 -51,19l0 -26c15,-10 33,-15 53,-15 37,0 56,20 56,59l0 103zm-25 -80l-38 6c-12,1 -21,4 -27,8 -6,4 -9,12 -9,22 0,8 3,14 8,19 6,5 13,8 22,8 13,0 23,-5 31,-14 9,-8 13,-19 13,-33l0 -16zm11 -108l-19 0 -26 -35 -25 35 -17 0 33 -51 20 0 34 51z"/>
  <path id="15" class="fil6" d="M2112 8459l-25 0 0 -90c0,-34 -12,-50 -37,-50 -13,0 -23,4 -31,14 -9,10 -13,22 -13,36l0 90 -25 0 0 -158 25 0 0 26 1 0c12,-20 29,-30 52,-30 17,0 30,6 39,17 10,11 14,27 14,49l0 96z"/>
  <path id="16" class="fil6" d="M2173 8261c-5,0 -9,-2 -12,-5 -3,-3 -5,-7 -5,-11 0,-5 2,-9 5,-12 3,-3 7,-5 12,-5 4,0 8,2 12,5 3,3 5,7 5,12 0,4 -2,8 -5,11 -4,3 -8,5 -12,5zm12 198l-25 0 0 -158 25 0 0 158z"/>
  <path id="17" class="fil6" d="M2344 8452c-12,7 -26,11 -43,11 -23,0 -41,-7 -55,-22 -13,-15 -20,-34 -20,-57 0,-26 7,-47 22,-63 15,-16 35,-24 60,-24 14,0 26,3 37,8l0 26c-12,-8 -25,-12 -38,-12 -16,0 -30,6 -40,17 -10,12 -15,27 -15,46 0,18 4,33 14,44 10,10 23,16 39,16 14,0 27,-5 39,-14l0 24z"/>
  <path id="18" class="fil6" d="M2496 8459l-26 0 0 -24 0 0c-11,19 -27,28 -49,28 -16,0 -28,-4 -37,-13 -9,-8 -13,-19 -13,-33 0,-29 17,-47 52,-51l47 -7c0,-27 -10,-40 -32,-40 -19,0 -36,6 -52,19l0 -26c16,-10 34,-15 54,-15 37,0 56,20 56,59l0 103zm-26 -80l-38 6c-11,1 -20,4 -26,8 -6,4 -9,12 -9,22 0,8 3,14 8,19 6,5 13,8 22,8 13,0 23,-5 31,-14 8,-8 12,-19 12,-33l0 -16z"/>
  <path id="19" class="fil6" d="M1262 8910l-1 0 0 95 -25 0 0 -231 25 0 0 28 1 0c12,-21 30,-31 54,-31 21,0 37,7 48,21 12,14 17,33 17,57 0,26 -6,47 -19,63 -13,16 -30,24 -53,24 -20,0 -36,-9 -47,-26zm-1 -64l0 22c0,13 4,24 13,33 8,9 19,14 32,14 16,0 28,-6 36,-18 9,-12 13,-28 13,-49 0,-17 -4,-31 -12,-41 -8,-10 -19,-15 -33,-15 -15,0 -26,5 -35,15 -9,11 -14,23 -14,39z"/>
  <path id="20" class="fil6" d="M1504 8800c-4,-3 -11,-5 -19,-5 -11,0 -20,5 -27,15 -7,10 -11,24 -11,42l0 80 -25 0 0 -158 25 0 0 33 1 0c3,-11 9,-20 16,-26 8,-6 16,-10 25,-10 7,0 12,1 15,3l0 26z"/>
  <path id="21" class="fil6" d="M1655 8860l-112 0c0,17 5,31 14,41 9,9 22,14 38,14 17,0 34,-6 49,-18l0 24c-14,10 -33,15 -55,15 -23,0 -40,-7 -53,-21 -13,-15 -19,-35 -19,-61 0,-25 7,-45 21,-60 14,-16 31,-23 52,-23 20,0 36,6 48,20 11,13 17,32 17,55l0 14zm-26 -22c0,-14 -4,-26 -11,-34 -7,-8 -16,-12 -29,-12 -12,0 -22,4 -30,13 -9,8 -14,19 -16,33l86 0z"/>
  <path id="22" class="fil6" d="M1817 8774l-63 158 -24 0 -60 -158 27 0 41 115c3,9 4,16 5,22l1 0c1,-8 2,-15 5,-21l42 -116 26 0z"/>
  <path id="23" class="fil6" d="M1970 8860l-112 0c1,17 5,31 14,41 9,9 22,14 38,14 18,0 34,-6 49,-18l0 24c-14,10 -32,15 -55,15 -23,0 -40,-7 -53,-21 -13,-15 -19,-35 -19,-61 0,-25 7,-45 21,-60 14,-16 31,-23 52,-23 21,0 37,6 48,20 11,13 17,32 17,55l0 14zm-26 -22c0,-14 -4,-26 -11,-34 -7,-8 -16,-12 -29,-12 -12,0 -22,4 -30,13 -8,8 -14,19 -16,33l86 0z"/>
  <path id="24" class="fil6" d="M2139 8932l-25 0 0 -90c0,-33 -12,-50 -37,-50 -12,0 -23,5 -31,14 -8,10 -12,22 -12,36l0 90 -26 0 0 -158 26 0 0 27 0 0c12,-20 29,-30 52,-30 17,0 31,5 40,16 9,11 13,28 13,49l0 96z"/>
  <path id="25" class="fil6" d="M2261 8931c-6,3 -14,5 -24,5 -28,0 -42,-16 -42,-47l0 -93 -27 0 0 -22 27 0 0 -38 26 -9 0 47 40 0 0 22 -40 0 0 89c0,11 2,18 5,23 4,4 10,7 18,7 6,0 12,-2 17,-6l0 22z"/>
  <path id="26" class="fil6" d="M2307 8734c-4,0 -8,-1 -11,-5 -3,-3 -5,-6 -5,-11 0,-5 2,-9 5,-12 3,-3 7,-5 11,-5 5,0 9,2 12,5 3,3 5,7 5,12 0,4 -2,8 -5,11 -3,4 -7,5 -12,5zm13 198l-26 0 0 -158 26 0 0 158z"/>
  <path id="27" class="fil6" d="M2495 8774l-63 158 -25 0 -59 -158 27 0 41 115c3,9 4,16 5,22l1 0c1,-8 2,-15 5,-21l42 -116 26 0z"/>
  <path id="28" class="fil6" d="M2630 8932l-25 0 0 -24 -1 0c-11,19 -27,28 -49,28 -15,0 -28,-4 -37,-12 -8,-9 -13,-20 -13,-34 0,-29 18,-46 52,-51l48 -7c0,-27 -11,-40 -33,-40 -19,0 -36,6 -51,19l0 -26c15,-9 33,-14 53,-14 37,0 56,19 56,59l0 102zm-25 -80l-38 6c-12,1 -21,4 -27,8 -6,5 -9,12 -9,23 0,7 3,14 8,19 6,4 13,7 22,7 13,0 23,-5 31,-13 9,-9 13,-20 13,-34l0 -16z"/>
  <path id="29" class="fil6" d="M2892 8860l-112 0c0,17 5,31 14,41 9,9 22,14 38,14 17,0 34,-6 49,-18l0 24c-14,10 -33,15 -55,15 -23,0 -40,-7 -53,-21 -13,-15 -19,-35 -19,-61 0,-25 7,-45 21,-60 14,-16 31,-23 52,-23 20,0 36,6 48,20 11,13 17,32 17,55l0 14zm-26 -22c0,-14 -4,-26 -11,-34 -7,-8 -16,-12 -29,-12 -12,0 -22,4 -30,13 -9,8 -14,19 -16,33l86 0z"/>
  <path id="30" class="fil6" d="M1318 9273c-4,-3 -10,-5 -19,-5 -11,0 -20,5 -27,15 -7,11 -11,24 -11,42l0 81 -25 0 0 -159 25 0 0 33 1 0c3,-11 9,-20 16,-26 8,-6 16,-9 25,-9 7,0 12,0 15,2l0 26z"/>
  <path id="31" class="fil6" d="M1469 9333l-112 0c0,18 5,31 14,41 9,9 22,14 38,14 18,0 34,-6 49,-18l0 24c-14,10 -33,15 -55,15 -23,0 -40,-7 -53,-21 -13,-15 -19,-35 -19,-61 0,-24 7,-44 21,-60 14,-15 31,-23 52,-23 20,0 36,6 48,20 11,13 17,32 17,56l0 13zm-26 -22c0,-14 -4,-26 -11,-34 -7,-8 -16,-12 -29,-12 -12,0 -22,4 -30,13 -9,8 -14,20 -16,33l86 0z"/>
  <path id="32" class="fil6" d="M1615 9398c-12,8 -27,11 -43,11 -23,0 -41,-7 -55,-22 -14,-14 -21,-33 -21,-57 0,-26 8,-47 23,-63 15,-15 35,-23 59,-23 14,0 27,2 37,7l0 26c-12,-8 -24,-12 -37,-12 -17,0 -30,6 -40,17 -11,12 -16,27 -16,46 0,19 5,33 15,44 10,11 23,16 39,16 14,0 27,-5 39,-14l0 24z"/>
  <path id="33" class="fil6" d="M1719 9409c-23,0 -42,-7 -56,-22 -14,-15 -21,-34 -21,-59 0,-26 8,-47 22,-62 15,-15 34,-22 59,-22 24,0 42,7 55,22 13,14 20,34 20,60 0,25 -7,45 -21,61 -15,15 -34,22 -58,22zm2 -144c-16,0 -29,6 -38,17 -10,11 -15,26 -15,46 0,18 5,33 15,44 9,11 22,16 38,16 17,0 29,-5 38,-16 9,-10 13,-26 13,-45 0,-20 -4,-35 -13,-46 -9,-11 -21,-16 -38,-16z"/>
  <path id="34" class="fil6" d="M1921 9273c-4,-3 -11,-5 -19,-5 -11,0 -20,5 -27,15 -7,11 -11,24 -11,42l0 81 -25 0 0 -159 25 0 0 33 1 0c3,-11 9,-20 16,-26 7,-6 16,-9 25,-9 7,0 12,0 15,2l0 26z"/>
  <path id="35" class="fil6" d="M2031 9273c-4,-3 -11,-5 -19,-5 -11,0 -20,5 -27,15 -7,11 -11,24 -11,42l0 81 -25 0 0 -159 25 0 0 33 1 0c3,-11 9,-20 16,-26 7,-6 16,-9 25,-9 6,0 12,0 15,2l0 26z"/>
  <path id="36" class="fil6" d="M2181 9333l-111 0c0,18 5,31 14,41 9,9 22,14 37,14 18,0 35,-6 50,-18l0 24c-14,10 -33,15 -56,15 -22,0 -40,-7 -52,-21 -13,-15 -19,-35 -19,-61 0,-24 7,-44 20,-60 14,-15 32,-23 52,-23 21,0 37,6 48,20 12,13 17,32 17,56l0 13zm-25 -22c-1,-14 -4,-26 -11,-34 -7,-8 -17,-12 -29,-12 -12,0 -22,4 -30,13 -9,8 -14,20 -16,33l86 0z"/>
  <path id="37" class="fil6" d="M2351 9406l-25 0 0 -91c0,-33 -12,-50 -37,-50 -13,0 -23,5 -31,14 -9,10 -13,22 -13,36l0 91 -25 0 0 -159 25 0 0 27 1 0c12,-20 29,-30 52,-30 17,0 30,5 39,17 10,11 14,27 14,48l0 97z"/>
  <path id="38" class="fil6" d="M2472 9404c-6,3 -14,5 -23,5 -28,0 -42,-15 -42,-46l0 -94 -27 0 0 -22 27 0 0 -38 25 -8 0 46 40 0 0 22 -40 0 0 89c0,11 2,18 6,23 3,4 9,7 18,7 6,0 12,-2 16,-6l0 22z"/>
  <path id="39" class="fil6" d="M2631 9333l-112 0c0,18 5,31 14,41 9,9 22,14 38,14 17,0 34,-6 49,-18l0 24c-14,10 -33,15 -55,15 -23,0 -40,-7 -53,-21 -13,-15 -19,-35 -19,-61 0,-24 7,-44 21,-60 14,-15 31,-23 52,-23 20,0 36,6 48,20 11,13 17,32 17,56l0 13zm-26 -22c0,-14 -4,-26 -11,-34 -7,-8 -16,-12 -29,-12 -12,0 -22,4 -30,13 -9,8 -14,20 -16,33l86 0z"/>
  <polygon id="40" class="fil6" points="2692,9370 2667,9446 2649,9446 2667,9370 "/>
  <path id="41" class="fil6" d="M1344 9872c-13,7 -27,11 -44,11 -22,0 -40,-8 -54,-22 -14,-15 -21,-34 -21,-58 0,-26 7,-47 22,-62 15,-16 35,-24 60,-24 14,0 26,3 37,8l0 26c-12,-9 -24,-13 -38,-13 -16,0 -29,6 -40,18 -10,11 -15,26 -15,45 0,19 5,33 15,44 9,11 22,16 39,16 14,0 26,-4 39,-14l0 25z"/>
  <path id="42" class="fil6" d="M1448 9883c-23,0 -42,-8 -56,-23 -14,-14 -21,-34 -21,-58 0,-27 7,-48 22,-63 14,-15 34,-22 59,-22 23,0 42,7 55,22 13,14 20,34 20,60 0,25 -7,46 -22,61 -14,15 -33,23 -57,23zm2 -145c-16,0 -29,6 -39,17 -9,11 -14,26 -14,46 0,18 5,33 14,44 10,11 23,16 39,16 16,0 29,-5 38,-16 8,-10 13,-25 13,-45 0,-20 -5,-35 -13,-46 -9,-10 -22,-16 -38,-16z"/>
  <path id="43" class="fil6" d="M1792 9879l-25 0 0 -91c0,-18 -3,-30 -9,-38 -5,-8 -14,-12 -27,-12 -11,0 -20,5 -27,15 -8,10 -12,22 -12,36l0 90 -25 0 0 -94c0,-31 -12,-47 -36,-47 -11,0 -20,5 -28,14 -7,10 -10,22 -10,37l0 90 -26 0 0 -158 26 0 0 25 0 0c11,-19 28,-29 49,-29 11,0 21,3 29,9 8,6 13,14 16,24 12,-22 29,-33 53,-33 34,0 52,21 52,64l0 98z"/>
  <path id="44" class="fil6" d="M2061 9866c0,58 -27,87 -83,87 -20,0 -37,-3 -51,-11l0 -25c18,10 35,15 51,15 39,0 58,-21 58,-62l0 -18 0 0c-13,20 -31,31 -55,31 -20,0 -35,-7 -47,-22 -12,-14 -18,-32 -18,-56 0,-27 6,-48 19,-64 13,-16 31,-24 53,-24 21,0 37,9 48,26l0 0 0 -22 25 0 0 145zm-25 -59l0 -23c0,-13 -4,-23 -13,-32 -8,-9 -19,-14 -31,-14 -16,0 -28,6 -37,17 -9,12 -13,28 -13,48 0,18 4,32 12,42 9,11 20,16 34,16 14,0 26,-5 35,-15 9,-10 13,-23 13,-39z"/>
  <path id="45" class="fil6" d="M2241 9879l-26 0 0 -25 0 0c-11,19 -27,29 -49,29 -38,0 -57,-23 -57,-68l0 -94 25 0 0 90c0,34 13,50 39,50 12,0 22,-4 30,-13 8,-10 12,-21 12,-36l0 -91 26 0 0 158z"/>
  <path id="46" class="fil6" d="M2305 9680c-5,0 -9,-1 -12,-4 -3,-3 -5,-7 -5,-12 0,-5 2,-9 5,-12 3,-3 7,-4 12,-4 4,0 8,1 12,4 3,3 4,7 4,12 0,5 -1,9 -4,12 -4,3 -8,4 -12,4zm12 199l-25 0 0 -158 25 0 0 158z"/>
  <path id="47" class="fil6" d="M2500 9879l-26 0 0 -90c0,-34 -12,-51 -36,-51 -13,0 -24,5 -32,15 -8,9 -12,21 -12,36l0 90 -26 0 0 -158 26 0 0 26 0 0c12,-20 30,-30 52,-30 18,0 31,6 40,17 9,11 14,27 14,48l0 97z"/>
  <path id="48" class="fil6" d="M2655 9872c-12,7 -26,11 -43,11 -23,0 -41,-8 -55,-22 -13,-15 -20,-34 -20,-58 0,-26 7,-47 22,-62 15,-16 35,-24 60,-24 14,0 26,3 37,8l0 26c-12,-9 -25,-13 -38,-13 -16,0 -30,6 -40,18 -10,11 -15,26 -15,45 0,19 4,33 14,44 10,11 23,16 39,16 14,0 27,-4 39,-14l0 25z"/>
  <path id="49" class="fil6" d="M2825 9879l-26 0 0 -91c0,-33 -12,-50 -36,-50 -13,0 -23,5 -31,15 -9,9 -13,21 -13,36l0 90 -25 0 0 -234 25 0 0 102 1 0c12,-20 29,-30 51,-30 36,0 54,21 54,64l0 98z"/>
  <path id="50" class="fil6" d="M2939 9883c-24,0 -42,-8 -56,-23 -14,-14 -21,-34 -21,-58 0,-27 7,-48 22,-63 14,-15 34,-22 58,-22 24,0 42,7 56,22 13,14 19,34 19,60 0,25 -7,46 -21,61 -14,15 -33,23 -57,23zm2 -145c-17,0 -30,6 -39,17 -10,11 -14,26 -14,46 0,18 4,33 14,44 10,11 23,16 39,16 16,0 29,-5 37,-16 9,-10 14,-25 14,-45 0,-20 -5,-35 -14,-46 -8,-10 -21,-16 -37,-16z"/>
  <polygon id="51" class="fil6" points="3081,9844 3056,9920 3038,9920 3056,9844 "/>
  <path id="52" class="fil6" d="M1362 10352l-46 0 0 -23 0 0c-11,18 -27,27 -48,27 -15,0 -27,-4 -36,-13 -9,-9 -13,-20 -13,-35 0,-31 18,-48 54,-53l43 -6c0,-17 -9,-26 -28,-26 -19,0 -36,6 -53,17l0 -37c6,-3 16,-6 27,-9 12,-3 23,-4 33,-4 45,0 67,23 67,67l0 95zm-46 -64l0 -11 -28 4c-16,2 -24,9 -24,21 0,6 2,10 6,14 4,4 9,5 15,5 10,0 17,-3 23,-9 6,-7 8,-15 8,-24z"/>
  <path id="53" class="fil6" d="M1556 10334c0,29 -8,52 -25,68 -17,16 -42,24 -74,24 -22,0 -38,-3 -51,-9l0 -41c16,10 33,14 49,14 17,0 30,-4 39,-13 9,-8 13,-20 13,-35l0 -13 0 0c-11,18 -28,27 -50,27 -20,0 -36,-7 -48,-21 -12,-15 -17,-34 -17,-58 0,-26 6,-48 19,-63 13,-16 31,-24 52,-24 20,0 34,7 44,22l0 0 0 -18 49 0 0 140zm-48 -58l0 -12c0,-10 -3,-19 -9,-26 -6,-7 -14,-11 -23,-11 -11,0 -19,5 -26,13 -6,8 -9,20 -9,36 0,13 3,23 9,31 6,8 14,11 24,11 10,0 18,-3 25,-11 6,-8 9,-18 9,-31z"/>
  <path id="54" class="fil6" d="M1672 10356c-26,0 -47,-8 -62,-22 -15,-15 -23,-35 -23,-60 0,-27 8,-47 24,-62 16,-15 37,-22 63,-22 27,0 47,7 62,22 15,15 23,34 23,59 0,26 -8,47 -24,62 -15,15 -36,23 -63,23zm1 -129c-11,0 -20,4 -26,12 -7,8 -10,19 -10,34 0,30 12,45 37,45 23,0 35,-15 35,-46 0,-30 -12,-45 -36,-45z"/>
  <path id="55" class="fil6" d="M1893 10238c-5,-3 -12,-5 -20,-5 -11,0 -19,4 -25,12 -6,8 -9,18 -9,31l0 76 -49 0 0 -158 49 0 0 29 1 0c7,-21 21,-32 41,-32 6,0 10,1 12,2l0 45z"/>
  <path id="56" class="fil6" d="M2048 10352l-46 0 0 -23 -1 0c-11,18 -26,27 -47,27 -16,0 -28,-4 -36,-13 -9,-9 -14,-20 -14,-35 0,-31 19,-48 55,-53l43 -6c0,-17 -10,-26 -28,-26 -19,0 -37,6 -54,17l0 -37c7,-3 16,-6 28,-9 12,-3 22,-4 32,-4 45,0 68,23 68,67l0 95zm-46 -64l0 -11 -29 4c-16,2 -24,9 -24,21 0,6 2,10 6,14 4,4 9,5 16,5 9,0 16,-3 22,-9 6,-7 9,-15 9,-24z"/>
  <path id="57" class="fil6" d="M2316 10287l-103 0c1,23 16,34 43,34 17,0 33,-4 46,-12l0 35c-15,8 -34,12 -57,12 -26,0 -46,-7 -60,-21 -14,-14 -21,-34 -21,-60 0,-26 8,-47 23,-62 15,-15 34,-23 56,-23 23,0 41,7 54,21 12,13 19,32 19,55l0 21zm-45 -30c0,-23 -10,-34 -28,-34 -8,0 -15,3 -20,10 -6,6 -9,14 -11,24l59 0z"/>
  <path id="58" class="fil6" d="M2334 10348l0 -40c8,5 16,9 24,11 8,3 16,4 23,4 9,0 16,-1 21,-4 5,-2 7,-6 7,-11 0,-3 -1,-5 -3,-7 -3,-2 -6,-4 -9,-6 -4,-1 -8,-3 -12,-4 -4,-1 -8,-3 -12,-4 -6,-3 -12,-5 -17,-8 -4,-3 -8,-6 -12,-9 -3,-4 -5,-8 -7,-13 -2,-5 -3,-10 -3,-17 0,-8 2,-16 6,-23 4,-6 9,-11 16,-15 6,-4 13,-7 22,-9 8,-2 17,-3 26,-3 7,0 14,1 21,2 7,1 14,2 21,4l0 38c-6,-4 -13,-6 -20,-8 -7,-2 -14,-3 -20,-3 -4,0 -7,0 -9,1 -3,1 -6,1 -8,3 -2,1 -4,2 -5,4 -1,1 -2,3 -2,6 0,2 1,5 3,7 2,2 4,4 7,5 3,2 7,3 10,4 4,1 7,3 11,4 7,2 12,5 18,7 5,3 9,6 13,10 4,3 7,8 9,12 2,5 3,11 3,18 0,9 -2,17 -6,24 -4,6 -10,12 -16,16 -7,4 -15,7 -24,9 -9,2 -18,3 -27,3 -18,0 -34,-3 -49,-8z"/>
  <path id="59" class="fil6" d="M2580 10350c-8,4 -19,6 -33,6 -34,0 -52,-18 -52,-54l0 -72 -25 0 0 -36 25 0 0 -34 49 -14 0 48 36 0 0 36 -36 0 0 64c0,16 7,24 20,24 5,0 10,-1 16,-4l0 36z"/>
  <path id="60" class="fil6" d="M2739 10352l-46 0 0 -23 -1 0c-11,18 -26,27 -47,27 -16,0 -28,-4 -36,-13 -9,-9 -14,-20 -14,-35 0,-31 19,-48 55,-53l43 -6c0,-17 -10,-26 -28,-26 -19,0 -37,6 -54,17l0 -37c7,-3 16,-6 28,-9 12,-3 22,-4 32,-4 45,0 68,23 68,67l0 95zm-46 -64l0 -11 -29 4c-16,2 -24,9 -24,21 0,6 2,10 6,14 4,4 9,5 16,5 9,0 16,-3 22,-9 6,-7 9,-15 9,-24zm31 -169l-48 50 -35 0 40 -50 43 0z"/>
  <path id="61" class="fil6" d="M1362 10825l-46 0 0 -23 0 0c-11,18 -27,27 -48,27 -15,0 -27,-4 -36,-13 -9,-9 -13,-20 -13,-35 0,-30 18,-48 54,-53l43 -6c0,-17 -9,-26 -28,-26 -19,0 -36,6 -53,17l0 -37c6,-3 16,-6 27,-9 12,-2 23,-4 33,-4 45,0 67,23 67,68l0 94zm-46 -64l0 -11 -28 4c-16,2 -24,9 -24,21 0,6 2,11 6,14 4,4 9,5 15,5 10,0 17,-3 23,-9 6,-6 8,-14 8,-24z"/>
  <path id="62" class="fil6" d="M1639 10825l-49 0 0 -24 -1 0c-12,19 -28,28 -48,28 -37,0 -55,-22 -55,-67l0 -95 48 0 0 91c0,23 9,34 27,34 9,0 16,-3 21,-9 5,-7 8,-15 8,-25l0 -91 49 0 0 158z"/>
  <path id="63" class="fil6" d="M1931 10825l-49 0 0 -90c0,-23 -8,-34 -25,-34 -8,0 -15,3 -20,10 -5,7 -7,15 -7,26l0 88 -49 0 0 -91c0,-22 -9,-33 -25,-33 -8,0 -15,3 -20,9 -5,7 -8,16 -8,27l0 88 -48 0 0 -158 48 0 0 25 1 0c5,-9 12,-16 21,-21 9,-5 19,-8 30,-8 23,0 38,10 46,30 12,-20 30,-30 53,-30 35,0 52,21 52,64l0 98z"/>
  <path id="64" class="fil6" d="M2177 10820c-12,6 -27,9 -48,9 -25,0 -44,-7 -59,-22 -15,-15 -23,-34 -23,-57 0,-27 8,-48 24,-64 17,-15 38,-23 65,-23 19,0 32,3 41,8l0 41c-11,-8 -22,-11 -35,-11 -14,0 -25,4 -33,12 -8,8 -12,19 -12,34 0,14 4,25 12,33 7,8 18,12 32,12 12,0 24,-4 36,-12l0 40z"/>
  <polygon id="65" class="fil6" points="2257,10825 2209,10825 2209,10591 2257,10591 "/>
  <path id="66" class="fil6" d="M2323 10642c-8,0 -15,-2 -20,-7 -5,-5 -8,-11 -8,-18 0,-8 3,-14 8,-18 5,-5 12,-7 20,-7 8,0 15,2 20,7 6,4 8,10 8,18 0,7 -2,13 -8,18 -5,5 -12,7 -20,7zm24 183l-49 0 0 -158 49 0 0 158z"/>
  <path id="67" class="fil6" d="M2543 10898l-49 0 0 -95 0 0c-11,18 -28,26 -49,26 -20,0 -36,-7 -48,-21 -12,-14 -18,-33 -18,-58 0,-26 7,-47 20,-63 13,-16 30,-24 52,-24 19,0 33,8 43,22l0 0 0 -18 49 0 0 231zm-48 -148l0 -13c0,-10 -3,-19 -9,-26 -6,-7 -13,-10 -23,-10 -11,0 -19,4 -25,12 -6,9 -10,21 -10,36 0,13 3,24 9,31 6,8 14,12 24,12 10,0 19,-4 25,-12 6,-8 9,-18 9,-30z"/>
  <path id="68" class="fil6" d="M2734 10825l-48 0 0 -24 -1 0c-12,19 -28,28 -48,28 -37,0 -55,-22 -55,-67l0 -95 48 0 0 91c0,23 9,34 27,34 9,0 16,-3 21,-9 5,-7 8,-15 8,-25l0 -91 48 0 0 158z"/>
  <path id="69" class="fil6" d="M2918 10760l-104 0c2,23 17,34 44,34 17,0 33,-4 46,-12l0 35c-15,8 -34,12 -57,12 -26,0 -46,-7 -60,-21 -14,-14 -21,-34 -21,-59 0,-27 8,-47 23,-63 15,-15 34,-23 56,-23 23,0 41,7 54,21 12,13 19,32 19,55l0 21zm-46 -30c0,-23 -9,-34 -27,-34 -8,0 -15,3 -20,10 -6,6 -10,14 -11,24l58 0z"/>
  <path id="70" class="fil6" d="M2968 10829c-8,0 -14,-2 -20,-7 -5,-5 -8,-11 -8,-19 0,-7 3,-13 9,-18 5,-5 12,-7 20,-7 9,0 15,3 21,7 5,5 8,11 8,18 0,8 -3,14 -8,19 -6,5 -13,7 -22,7z"/>
  <path class="fil6" d="M1170 12485l0 -78c14,12 29,21 46,27 17,6 33,9 50,9 10,0 19,-1 26,-3 8,-2 14,-4 19,-7 5,-3 9,-7 11,-11 3,-5 4,-9 4,-15 0,-6 -2,-12 -6,-18 -4,-5 -9,-10 -16,-15 -7,-4 -15,-9 -24,-13 -9,-4 -19,-9 -30,-13 -28,-11 -48,-25 -61,-42 -14,-16 -21,-36 -21,-59 0,-19 4,-34 11,-47 8,-14 18,-24 30,-33 13,-8 28,-15 44,-19 17,-4 34,-6 53,-6 18,0 34,2 49,4 14,2 27,5 39,10l0 73c-6,-4 -13,-8 -20,-11 -7,-3 -14,-5 -21,-8 -7,-2 -15,-3 -22,-4 -7,-1 -14,-1 -21,-1 -9,0 -17,0 -24,2 -7,2 -14,4 -19,7 -5,3 -9,7 -11,11 -3,5 -4,10 -4,15 0,6 1,11 4,16 3,4 8,9 13,13 6,4 13,8 21,12 8,4 18,8 28,13 14,5 26,12 37,18 12,7 21,14 29,23 8,8 14,17 19,28 4,11 6,23 6,37 0,20 -4,36 -11,50 -8,13 -18,24 -30,32 -13,8 -28,14 -45,18 -17,3 -34,5 -53,5 -19,0 -38,-2 -55,-5 -17,-3 -33,-8 -45,-15z"/>
  <path id="1" class="fil6" d="M1775 12499l-86 0 -25 -78 -125 0 -24 78 -86 0 128 -351 93 0 125 351zm-129 -139l-38 -118c-3,-8 -5,-19 -6,-31l-2 0c0,10 -2,20 -6,30l-38 119 90 0z"/>
  <path id="2" class="fil6" d="M1819 12499l0 -351 127 0c39,0 70,7 91,22 21,14 31,34 31,60 0,19 -6,36 -19,50 -13,14 -29,24 -49,30l0 1c25,3 45,12 60,27 15,16 22,34 22,56 0,32 -11,58 -34,77 -23,18 -55,28 -95,28l-134 0zm79 -293l0 84 34 0c17,0 30,-4 39,-12 9,-8 14,-19 14,-33 0,-26 -19,-39 -58,-39l-29 0zm0 142l0 93 43 0c18,0 32,-5 42,-13 11,-8 16,-20 16,-35 0,-14 -5,-25 -15,-33 -11,-8 -25,-12 -43,-12l-43 0z"/>
  <polygon id="3" class="fil6" points="2350,12499 2140,12499 2140,12148 2342,12148 2342,12213 2219,12213 2219,12291 2333,12291 2333,12355 2219,12355 2219,12435 2350,12435 "/>
  <path id="4" class="fil6" d="M2700 12499l-90 0 -55 -90c-4,-7 -8,-13 -12,-19 -3,-5 -7,-10 -11,-13 -4,-4 -8,-7 -12,-9 -4,-2 -9,-3 -14,-3l-21 0 0 134 -79 0 0 -351 125 0c85,0 128,32 128,96 0,12 -2,23 -6,34 -3,10 -9,19 -15,28 -7,8 -16,15 -25,21 -10,6 -21,11 -33,14l0 1c6,2 11,4 15,8 5,4 10,8 15,13 4,5 9,10 13,16 4,5 8,11 11,16l66 104zm-215 -292l0 98 34 0c17,0 31,-5 41,-15 11,-10 16,-22 16,-37 0,-30 -18,-46 -55,-46l-36 0z"/>
  <path id="5" class="fil6" d="M3271 12499l-78 0 0 -210c0,-23 1,-48 3,-75l-2 0c-4,22 -8,37 -11,47l-82 238 -65 0 -84 -236c-2,-6 -6,-23 -11,-49l-2 0c2,35 3,65 3,91l0 194 -71 0 0 -351 116 0 72 208c5,17 9,33 12,50l1 0c5,-19 9,-36 14,-50l72 -208 113 0 0 351z"/>
  <path id="6" class="fil6" d="M3659 12499l-86 0 -25 -78 -125 0 -25 78 -85 0 127 -351 94 0 125 351zm-129 -139l-38 -118c-3,-8 -5,-19 -6,-31l-2 0c-1,10 -3,20 -6,30l-38 119 90 0z"/>
  <polygon id="7" class="fil6" points="3811,12148 3811,12209 3782,12209 3782,12438 3811,12438 3811,12499 3673,12499 3673,12438 3702,12438 3702,12209 3673,12209 3673,12148 "/>
  <path id="8" class="fil6" d="M3845 12485l0 -78c14,12 30,21 46,27 17,6 34,9 51,9 10,0 18,-1 26,-3 7,-2 13,-4 18,-7 5,-3 9,-7 11,-11 3,-5 4,-9 4,-15 0,-6 -2,-12 -6,-18 -4,-5 -9,-10 -16,-15 -7,-4 -15,-9 -24,-13 -9,-4 -19,-9 -30,-13 -27,-11 -48,-25 -61,-42 -14,-16 -20,-36 -20,-59 0,-19 3,-34 11,-47 7,-14 17,-24 29,-33 13,-8 28,-15 44,-19 17,-4 35,-6 53,-6 18,0 35,2 49,4 14,2 27,5 39,10l0 73c-6,-4 -13,-8 -19,-11 -7,-3 -15,-5 -22,-8 -7,-2 -14,-3 -22,-4 -7,-1 -14,-1 -20,-1 -9,0 -17,0 -25,2 -7,2 -13,4 -18,7 -5,3 -9,7 -12,11 -3,5 -4,10 -4,15 0,6 1,11 4,16 3,4 8,9 14,13 5,4 12,8 20,12 8,4 18,8 28,13 14,5 27,12 38,18 11,7 20,14 28,23 8,8 15,17 19,28 4,11 6,23 6,37 0,20 -4,36 -11,50 -7,13 -17,24 -30,32 -13,8 -28,14 -45,18 -16,3 -34,5 -53,5 -19,0 -37,-2 -55,-5 -17,-3 -32,-8 -45,-15z"/>
  <g>
   <path class="fil12" d="M7415 13616c365,0 661,296 661,660 0,365 -296,661 -661,661 -120,0 -233,-32 -330,-89l-211 57 0 0 -131 35 0 -1 0 0 31 -131 0 0 54 -230c-47,-90 -73,-193 -73,-302 0,-364 296,-660 660,-660zm-452 1141l138 -37 0 0 1 1 0 0 1 1 0 0 0 0 0 0 1 0 0 0 0 0 0 0 0 0 0 0 0 0 0 1 1 0 0 0 0 0 1 0 0 0 0 0 0 0 0 1 0 0 0 0 0 0 1 0 0 0 0 0 0 0 0 1 1 0 0 0 0 0 0 0 0 0 0 0 0 0 0 0 1 0 0 0 0 1 0 0 0 0 0 0 1 0 0 0 0 0 0 0 0 0 0 0 0 1 0 0 1 0 1 1 0 0 0 0 1 0 0 0 0 0 1 1 1 0 0 0 0 1 0 0 1 1 1 0 0 0 0 0 0 0 0 0 0 0 0 0 2 1 0 0 0 0 0 0 0 1 2 1 0 0 0 0 1 0 1 1 0 0 1 0 0 0 0 0 0 0 0 1 0 0 0 0 1 0 0 0 0 0 0 0 0 0 1 1 0 0 0 0 0 0 0 0 1 0 0 0 0 0 0 0 0 1 0 0 0 0 1 0 0 0 0 0 0 0 0 0 0 0 0 0 1 0 0 1 0 0 0 0 0 0 0 0 1 0 0 0 0 0 0 0 0 0 0 1 1 0 0 0 0 0 0 0 0 0 0 0 0 0 1 0 0 0 0 0 0 1 0 0 0 0 0 0 1 0 0 0 1 1 1 1 0 0 1 0 0 0 0 0 0 0 0 0 0 0 1 0 0 1 1 0 0 0 0 0 0 0 0 0 0 0 0 0 1 0 0 1 0 0 0 0 0 0 1 0 0 0 0 0 0 0 0 0 0 1 0 0 1 0 0 0 0 0 0 0 0 0 0 0 1 0 0 0 0 0 0 0 0 1 0 0 0 0 1 0 1 0 0 0 0 1 0 0 2 1 0 0 1 0 0 0 0 0 0 0 0 0 0 1 0 0 1 0 0 0 0 0 0 0 0 0 0 0 0 0 1 1 0 0 0 0 1 0 0 0 0 0 0 0 0 0 0 0 1 0 0 1 0 0 0 0 0 0 0 0 0 0 1 0 0 0 0 0 0 0 0 0 0 0 0 0 1 1 0 0 0 0 1 0 0 0 0 0 0 0 0 0 0 0 0 1 1 0 0 0 0 0 0 0 0 0 2 1 0 0 1 0 0 0 0 1 0 0 1 0 0 0 0 0 0 0 0 0 0 0 1 0 0 0 0 0 0 1 1 0 0 0 0 0 0 0 0 0 0 0 0 0 1 0 0 1 0 0 0 0 0 0 0 0 1 0 0 0 0 0 0 0 0 0 1 0 0 1 0 0 0 0 0 0 0 0 0 0 1 0 0 0 1 0 0 1 0 0 0 0 0 0 0 0 0 0 1 0 0 0 0 0 2 1 0 0 0 0 1 1 0 0 1 0 0 0 0 0 0 0 0 0 0 0 0 0 1 1 0 0 1 0 0 0 0 0 0 0 0 0 1 1 0 0 0 0 0 0 0 0 0 0 1 0 0 0 0 0 0 0 1 1 0 0 0 0 0 0 0 0 0 0 1 0 1 1 0 0 0 0 0 0 0 0 0 0 0 0 1 0 2 1 2 1 0 0 1 0 0 0 1 1 0 0 0 0 0 0 1 0 0 0 0 0 0 1 2 0 0 0 0 1 0 0 1 0 0 0 0 0 1 0 0 0 0 0 0 0 0 0 0 1 1 0 2 1 0 0 0 0 0 0 0 0 0 0 0 0 0 0 0 0 0 0 1 0 0 0 0 0 0 0 0 0 0 0 0 0 0 0 0 0 0 0 0 0 0 0 1 0 0 0 0 1 0 0 0 0 0 0 0 0 0 0 0 0 0 0 0 0 0 0 1 0 0 0 0 0 0 0 0 0 0 0 0 0 0 0 0 0 0 0 0 0 1 0 0 0 0 0 0 0 0 1 0 0 0 0 0 0 0 0 0 0 1 0 0 0 0 0 0 0 0 0 0 0 0 0 0 0 0 0c67,29 140,45 217,45 301,0 544,-243 544,-544 0,-300 -243,-543 -544,-543 -300,0 -543,243 -543,543 0,60 9,117 27,171l0 0c7,21 15,42 25,62l0 1 2 3 0 0 1 2 1 2 0 1 2 3 1 2 1 2 1 2 1 2 1 2 1 1 1 3 1 2 1 2 1 2c1,1 1,2 2,3l0 0c1,2 2,3 2,4l0 0c2,3 3,5 5,8l0 0c1,1 2,3 2,4l1 0c0,1 1,3 2,4l0 0 -35 148 -14 61 58 -16z"/>
   <path class="fil12" d="M7152 13960c-103,92 -81,184 -28,294 97,138 159,212 317,283l58 22c92,31 167,18 220,-38 26,-33 30,-50 31,-89 0,-13 -2,-21 -13,-27 -41,-23 -97,-49 -142,-67 -15,-2 -12,-2 -26,4 -19,24 -37,48 -56,73 -6,7 -16,10 -24,6 -106,-45 -169,-97 -230,-195 -8,-12 -8,-24 8,-42 7,-9 14,-17 21,-26 4,-5 8,-11 13,-17 2,-10 4,-16 4,-26 -15,-48 -39,-95 -59,-141 -8,-21 -39,-22 -71,-22 -12,0 -17,3 -23,8z"/>
  </g>
  <path class="fil6" d="M1221 13793l0 -25c3,3 6,5 10,7 4,2 8,4 12,5 4,1 9,2 13,3 4,1 8,1 12,1 13,0 22,-2 28,-7 7,-5 10,-11 10,-20 0,-5 -1,-9 -3,-12 -3,-4 -5,-7 -9,-10 -4,-3 -8,-6 -13,-8 -5,-3 -11,-6 -16,-9 -6,-3 -12,-6 -18,-9 -5,-3 -9,-7 -13,-11 -4,-4 -7,-8 -10,-13 -2,-5 -3,-10 -3,-17 0,-8 2,-15 5,-21 4,-6 8,-11 14,-14 6,-4 12,-7 20,-9 7,-2 14,-3 22,-3 17,0 30,2 38,6l0 24c-10,-8 -24,-11 -40,-11 -5,0 -9,0 -14,1 -4,1 -8,3 -12,5 -3,2 -6,5 -8,8 -2,3 -3,7 -3,12 0,5 0,9 2,12 2,3 4,6 7,9 4,3 8,5 12,8 5,2 11,5 17,8 6,3 12,6 18,10 5,3 10,7 14,11 5,4 8,9 11,14 2,5 3,11 3,17 0,9 -1,16 -5,22 -3,6 -8,11 -14,15 -5,4 -12,7 -19,8 -8,2 -16,3 -24,3 -3,0 -6,0 -11,-1 -4,0 -8,-1 -12,-2 -4,-1 -8,-2 -12,-3 -4,-1 -7,-3 -9,-4z"/>
  <path id="1" class="fil6" d="M1460 13742l-88 0c0,14 4,25 11,32 7,8 17,12 30,12 14,0 27,-5 39,-14l0 19c-11,8 -26,12 -44,12 -18,0 -32,-6 -42,-17 -10,-12 -15,-28 -15,-48 0,-20 6,-36 17,-48 11,-12 24,-19 41,-19 16,0 29,6 38,16 9,11 13,26 13,45l0 10zm-20 -17c0,-12 -3,-21 -9,-27 -5,-6 -13,-10 -23,-10 -9,0 -17,4 -24,10 -6,7 -10,16 -12,27l68 0z"/>
  <path id="2" class="fil6" d="M1658 13674l-50 126 -19 0 -48 -126 22 0 32 91c2,7 4,13 4,18l1 0c1,-6 2,-12 4,-17l33 -92 21 0z"/>
  <path id="3" class="fil6" d="M1731 13803c-19,0 -34,-6 -45,-18 -11,-12 -16,-27 -16,-46 0,-22 6,-38 17,-50 12,-12 27,-18 47,-18 18,0 33,6 44,18 10,11 15,27 15,48 0,20 -5,36 -17,48 -11,12 -26,18 -45,18zm1 -115c-13,0 -23,5 -30,13 -8,9 -12,21 -12,37 0,15 4,26 12,35 7,9 18,13 30,13 13,0 23,-4 30,-13 7,-8 11,-20 11,-36 0,-15 -4,-27 -11,-36 -7,-8 -17,-13 -30,-13z"/>
  <path id="4" class="fil6" d="M1911 13794c-10,6 -21,9 -34,9 -18,0 -33,-6 -44,-18 -11,-11 -16,-26 -16,-45 0,-21 6,-37 18,-50 11,-12 27,-19 47,-19 11,0 21,2 29,7l0 20c-9,-6 -19,-10 -30,-10 -13,0 -23,5 -31,14 -9,9 -13,21 -13,36 0,15 4,27 12,35 8,9 18,13 31,13 11,0 21,-4 31,-11l0 19z"/>
  <path id="5" class="fil6" d="M2042 13742l-89 0c1,14 5,25 12,32 7,8 17,12 29,12 15,0 28,-5 39,-14l0 19c-11,8 -25,12 -43,12 -18,0 -32,-6 -42,-17 -10,-12 -15,-28 -15,-48 0,-20 5,-36 16,-48 11,-12 25,-19 41,-19 17,0 30,6 39,16 9,11 13,26 13,45l0 10zm-21 -17c0,-12 -2,-21 -8,-27 -5,-6 -13,-10 -23,-10 -9,0 -17,4 -24,10 -7,7 -11,16 -12,27l67 0zm3 -74l-15 0 -20 -29 -20 29 -14 0 26 -41 16 0 27 41z"/>
  <path id="6" class="fil6" d="M2231 13800l-20 0 0 -20 -1 0c-8,15 -21,23 -38,23 -13,0 -22,-4 -29,-10 -8,-7 -11,-16 -11,-27 0,-23 14,-37 41,-40l38 -6c0,-21 -9,-32 -26,-32 -15,0 -29,5 -41,16l0 -21c13,-8 27,-12 43,-12 29,0 44,16 44,47l0 82zm-20 -64l-30 4c-10,2 -17,4 -21,7 -5,4 -7,10 -7,18 0,6 2,11 6,15 4,4 10,6 18,6 9,0 18,-4 24,-11 7,-7 10,-15 10,-26l0 -13z"/>
  <path id="7" class="fil6" d="M2279 13642c-3,0 -6,-1 -9,-3 -3,-3 -4,-6 -4,-10 0,-3 1,-6 4,-9 3,-2 6,-4 9,-4 4,0 7,2 10,4 2,3 3,6 3,9 0,4 -1,7 -3,10 -3,2 -6,3 -10,3zm10 158l-20 0 0 -126 20 0 0 126z"/>
  <path id="8" class="fil6" d="M2434 13800l-20 0 0 -72c0,-26 -10,-40 -29,-40 -10,0 -19,4 -25,12 -7,7 -10,17 -10,28l0 72 -20 0 0 -126 20 0 0 21 0 0c10,-16 23,-24 41,-24 14,0 25,5 32,14 7,9 11,21 11,38l0 77z"/>
  <path id="9" class="fil6" d="M2579 13800l-20 0 0 -22 -1 0c-9,17 -24,25 -43,25 -16,0 -28,-6 -38,-17 -9,-11 -14,-27 -14,-46 0,-21 5,-37 16,-50 10,-12 24,-19 42,-19 17,0 29,7 37,21l1 0 0 -78 20 0 0 186zm-20 -57l0 -18c0,-11 -4,-19 -10,-26 -7,-7 -16,-11 -26,-11 -12,0 -22,5 -29,14 -7,9 -10,21 -10,37 0,14 3,26 10,34 7,9 16,13 27,13 11,0 20,-4 27,-12 7,-8 11,-19 11,-31z"/>
  <path id="10" class="fil6" d="M2709 13800l-20 0 0 -20 0 0c-9,15 -22,23 -39,23 -12,0 -22,-4 -29,-10 -7,-7 -11,-16 -11,-27 0,-23 14,-37 42,-40l37 -6c0,-21 -8,-32 -26,-32 -15,0 -28,5 -41,16l0 -21c13,-8 27,-12 43,-12 30,0 44,16 44,47l0 82zm-20 -64l-30 4c-9,2 -16,4 -21,7 -5,4 -7,10 -7,18 0,6 2,11 6,15 5,4 10,6 18,6 10,0 18,-4 24,-11 7,-7 10,-15 10,-26l0 -13z"/>
  <path id="11" class="fil6" d="M2836 13782l0 0 0 75 -20 0 0 -183 20 0 0 22 0 0c10,-16 25,-25 44,-25 16,0 29,6 38,17 9,11 13,27 13,45 0,21 -5,38 -15,51 -10,12 -24,19 -42,19 -16,0 -29,-7 -38,-21zm0 -51l0 18c0,10 3,19 10,26 7,7 15,11 26,11 12,0 21,-5 28,-14 7,-9 11,-22 11,-39 0,-14 -4,-25 -10,-33 -6,-8 -15,-12 -26,-12 -12,0 -21,4 -28,12 -7,9 -11,19 -11,31z"/>
  <path id="12" class="fil6" d="M3029 13695c-4,-3 -9,-4 -15,-4 -9,0 -16,4 -22,12 -6,8 -9,19 -9,33l0 64 -20 0 0 -126 20 0 0 26 1 0c3,-9 7,-16 13,-20 6,-5 13,-8 20,-8 5,0 9,1 12,2l0 21z"/>
  <path id="13" class="fil6" d="M3148 13742l-88 0c0,14 4,25 11,32 7,8 17,12 29,12 15,0 28,-5 39,-14l0 19c-11,8 -25,12 -43,12 -18,0 -32,-6 -42,-17 -10,-12 -15,-28 -15,-48 0,-20 5,-36 16,-48 11,-12 25,-19 42,-19 16,0 29,6 38,16 9,11 13,26 13,45l0 10zm-20 -17c-1,-12 -3,-21 -9,-27 -5,-6 -13,-10 -23,-10 -9,0 -17,4 -24,10 -7,7 -11,16 -12,27l68 0z"/>
  <path id="14" class="fil6" d="M3264 13794c-10,6 -21,9 -34,9 -18,0 -33,-6 -44,-18 -11,-11 -16,-26 -16,-45 0,-21 6,-37 18,-50 12,-12 27,-19 47,-19 11,0 21,2 29,7l0 20c-9,-6 -19,-10 -30,-10 -12,0 -23,5 -31,14 -8,9 -12,21 -12,36 0,15 3,27 11,35 8,9 18,13 31,13 11,0 21,-4 31,-11l0 19z"/>
  <path id="15" class="fil6" d="M3305 13642c-4,0 -7,-1 -9,-3 -3,-3 -4,-6 -4,-10 0,-3 1,-6 4,-9 2,-2 5,-4 9,-4 3,0 7,2 9,4 3,3 4,6 4,9 0,4 -1,7 -4,10 -2,2 -6,3 -9,3zm10 158l-21 0 0 -126 21 0 0 126z"/>
  <path id="16" class="fil6" d="M3348 13795l0 -21c11,8 23,12 36,12 17,0 26,-6 26,-18 0,-3 -1,-6 -2,-8 -2,-3 -4,-5 -6,-7 -3,-1 -6,-3 -9,-4 -4,-2 -7,-3 -11,-5 -6,-2 -11,-4 -15,-7 -4,-2 -8,-4 -11,-7 -2,-3 -5,-6 -6,-10 -1,-3 -2,-8 -2,-12 0,-6 1,-11 4,-16 3,-5 6,-8 11,-11 4,-3 9,-6 15,-7 6,-2 12,-3 18,-3 11,0 20,2 29,6l0 20c-9,-6 -20,-9 -32,-9 -4,0 -7,1 -10,2 -3,0 -6,2 -8,3 -2,2 -4,4 -5,6 -1,2 -2,4 -2,7 0,3 1,6 2,8 1,2 3,4 5,6 3,2 5,3 9,5 3,1 7,3 11,4 5,2 10,5 15,7 4,2 8,5 11,7 3,3 6,6 7,10 2,4 3,8 3,13 0,6 -2,12 -4,16 -3,5 -7,9 -11,12 -5,3 -10,5 -16,7 -6,1 -12,2 -19,2 -13,0 -24,-3 -33,-8z"/>
  <path id="17" class="fil6" d="M3551 13800l-20 0 0 -20 0 0c-9,15 -22,23 -39,23 -12,0 -22,-4 -29,-10 -7,-7 -11,-16 -11,-27 0,-23 14,-37 42,-40l37 -6c0,-21 -8,-32 -25,-32 -16,0 -29,5 -41,16l0 -21c12,-8 26,-12 42,-12 30,0 44,16 44,47l0 82zm-20 -64l-30 4c-9,2 -16,4 -21,7 -5,4 -7,10 -7,18 0,6 2,11 7,15 4,4 10,6 17,6 10,0 18,-4 25,-11 6,-7 9,-15 9,-26l0 -13z"/>
  <path id="18" class="fil6" d="M1333 14081l-20 0 0 -21 0 0c-10,16 -24,24 -43,24 -16,0 -29,-5 -38,-17 -10,-11 -14,-26 -14,-45 0,-21 5,-38 15,-50 11,-13 25,-19 42,-19 17,0 30,7 38,20l0 0 0 -77 20 0 0 185zm-20 -56l0 -19c0,-10 -3,-19 -10,-26 -6,-7 -15,-10 -25,-10 -13,0 -22,4 -29,13 -7,9 -11,22 -11,38 0,14 4,25 10,34 7,8 16,12 28,12 11,0 20,-4 27,-12 7,-8 10,-18 10,-30z"/>
  <path id="19" class="fil6" d="M1475 14024l-89 0c1,14 4,24 12,32 7,8 17,11 29,11 14,0 27,-4 39,-14l0 19c-11,8 -25,12 -44,12 -17,0 -31,-5 -41,-17 -10,-11 -16,-27 -16,-48 0,-19 6,-35 17,-48 11,-12 25,-18 41,-18 17,0 29,5 38,16 9,11 14,25 14,44l0 11zm-21 -17c0,-12 -3,-21 -8,-27 -6,-7 -13,-10 -23,-10 -10,0 -18,3 -24,10 -7,7 -11,16 -12,27l67 0z"/>
  <path id="20" class="fil6" d="M1752 14081l-20 0 0 -72c0,-14 -2,-24 -6,-30 -5,-6 -12,-9 -22,-9 -9,0 -16,4 -22,12 -6,8 -9,17 -9,28l0 71 -20 0 0 -74c0,-25 -9,-37 -29,-37 -8,0 -16,4 -21,11 -6,7 -9,17 -9,29l0 71 -20 0 0 -125 20 0 0 20 1 0c8,-15 21,-23 39,-23 8,0 16,2 22,7 6,5 11,11 13,19 9,-17 23,-26 42,-26 27,0 41,17 41,51l0 77z"/>
  <path id="21" class="fil6" d="M1880 14081l-20 0 0 -19 -1 0c-8,15 -21,22 -38,22 -13,0 -22,-3 -30,-10 -7,-6 -10,-15 -10,-26 0,-23 14,-37 41,-41l38 -5c0,-21 -9,-32 -26,-32 -15,0 -29,5 -41,15l0 -20c12,-8 27,-12 43,-12 29,0 44,16 44,47l0 81zm-20 -63l-30 4c-10,1 -17,4 -21,7 -5,3 -8,9 -8,18 0,6 3,11 7,15 4,4 10,5 17,5 10,0 19,-3 25,-10 7,-7 10,-16 10,-27l0 -12z"/>
  <path id="22" class="fil6" d="M1928 13924c-3,0 -7,-1 -9,-4 -3,-2 -4,-5 -4,-9 0,-4 1,-7 4,-9 2,-3 6,-4 9,-4 4,0 7,1 10,4 2,2 3,5 3,9 0,4 -1,7 -3,9 -3,3 -6,4 -10,4zm10 157l-20 0 0 -125 20 0 0 125z"/>
  <path id="23" class="fil6" d="M1971 14077l0 -22c11,8 23,12 36,12 18,0 27,-5 27,-17 0,-4 -1,-6 -3,-9 -1,-2 -3,-4 -6,-6 -2,-2 -5,-3 -9,-5 -3,-1 -7,-3 -11,-4 -6,-2 -10,-5 -15,-7 -4,-2 -7,-5 -10,-7 -3,-3 -5,-6 -7,-10 -1,-4 -2,-8 -2,-13 0,-6 2,-11 4,-15 3,-5 7,-9 11,-12 5,-3 10,-5 15,-7 6,-1 12,-2 18,-2 11,0 21,2 29,6l0 20c-9,-6 -19,-9 -31,-9 -4,0 -8,0 -11,1 -3,1 -5,2 -7,4 -3,1 -4,3 -5,5 -2,3 -2,5 -2,8 0,3 0,6 2,8 1,2 3,4 5,6 2,1 5,3 8,4 3,2 7,3 11,5 6,2 11,4 15,6 5,3 8,5 12,8 3,3 5,6 7,10 1,3 2,8 2,13 0,6 -1,11 -4,16 -3,5 -6,8 -11,11 -4,3 -10,6 -16,7 -6,2 -12,2 -18,2 -13,0 -25,-2 -34,-7z"/>
  <path id="24" class="fil6" d="M2164 13924c-3,0 -7,-1 -9,-4 -3,-2 -4,-5 -4,-9 0,-4 1,-7 4,-9 2,-3 6,-4 9,-4 4,0 7,1 10,4 2,2 3,5 3,9 0,4 -1,7 -3,9 -3,3 -6,4 -10,4zm10 157l-20 0 0 -125 20 0 0 125z"/>
  <path id="25" class="fil6" d="M2319 14081l-20 0 0 -71c0,-27 -10,-40 -30,-40 -10,0 -18,4 -24,11 -7,8 -10,17 -10,29l0 71 -20 0 0 -125 20 0 0 21 0 0c10,-16 23,-24 41,-24 14,0 25,4 32,13 7,9 11,22 11,39l0 76z"/>
  <path id="26" class="fil6" d="M2419 13913c-4,-2 -9,-3 -14,-3 -14,0 -21,9 -21,27l0 19 30 0 0 17 -30 0 0 108 -20 0 0 -108 -21 0 0 -17 21 0 0 -20c0,-14 4,-24 12,-32 7,-7 17,-11 28,-11 6,0 11,1 15,2l0 18z"/>
  <path id="27" class="fil6" d="M2488 14084c-19,0 -34,-6 -45,-17 -11,-12 -16,-27 -16,-47 0,-21 5,-37 17,-49 11,-12 27,-18 47,-18 18,0 33,6 43,17 11,12 16,28 16,48 0,20 -6,36 -17,48 -11,12 -26,18 -45,18zm1 -114c-13,0 -23,4 -31,13 -7,9 -11,21 -11,36 0,15 4,27 12,36 7,8 17,12 30,12 13,0 23,-4 30,-12 7,-9 10,-21 10,-36 0,-16 -3,-28 -10,-36 -7,-9 -17,-13 -30,-13z"/>
  <path id="28" class="fil6" d="M2648 13976c-4,-2 -9,-4 -16,-4 -8,0 -15,4 -21,12 -6,8 -9,19 -9,33l0 64 -20 0 0 -125 20 0 0 26 1 0c3,-9 7,-16 13,-21 6,-5 12,-7 20,-7 5,0 9,0 12,1l0 21z"/>
  <path id="29" class="fil6" d="M2847 14081l-20 0 0 -72c0,-14 -2,-24 -6,-30 -5,-6 -12,-9 -22,-9 -9,0 -16,4 -22,12 -6,8 -9,17 -9,28l0 71 -20 0 0 -74c0,-25 -10,-37 -29,-37 -8,0 -16,4 -21,11 -6,7 -9,17 -9,29l0 71 -20 0 0 -125 20 0 0 20 1 0c8,-15 21,-23 38,-23 9,0 17,2 23,7 6,5 11,11 13,19 9,-17 23,-26 42,-26 27,0 41,17 41,51l0 77z"/>
  <path id="30" class="fil6" d="M2975 14081l-20 0 0 -19 -1 0c-8,15 -21,22 -38,22 -13,0 -23,-3 -30,-10 -7,-6 -10,-15 -10,-26 0,-23 14,-37 41,-41l38 -5c0,-21 -9,-32 -26,-32 -15,0 -29,5 -41,15l0 -20c12,-8 27,-12 43,-12 29,0 44,16 44,47l0 81zm-20 -63l-30 4c-10,1 -17,4 -22,7 -4,3 -7,9 -7,18 0,6 3,11 7,15 4,4 10,5 17,5 10,0 19,-3 25,-10 7,-7 10,-16 10,-27l0 -12z"/>
  <path id="31" class="fil6" d="M3098 14076c-9,5 -21,8 -34,8 -18,0 -32,-5 -43,-17 -11,-12 -17,-27 -17,-45 0,-21 6,-38 18,-50 12,-13 28,-19 47,-19 11,0 21,2 29,6l0 21c-9,-7 -19,-10 -29,-10 -13,0 -24,5 -32,14 -8,9 -12,21 -12,36 0,15 4,26 11,35 8,8 18,12 31,12 11,0 22,-3 31,-10l0 19zm-10 37c0,14 -12,21 -34,21 -3,0 -6,0 -8,0l0 -11c4,1 6,1 9,1 11,0 17,-4 17,-11 0,-7 -5,-10 -16,-10 -1,0 -2,0 -5,1l0 -23 13 0 0 13c8,0 13,2 17,5 5,3 7,8 7,14z"/>
  <path id="32" class="fil6" d="M3218 14081l-20 0 0 -19 0 0c-9,15 -22,22 -39,22 -12,0 -22,-3 -29,-10 -7,-6 -11,-15 -11,-26 0,-23 14,-37 42,-41l37 -5c0,-21 -8,-32 -26,-32 -15,0 -28,5 -40,15l0 -20c12,-8 26,-12 42,-12 30,0 44,16 44,47l0 81zm-20 -63l-30 4c-9,1 -16,4 -21,7 -5,3 -7,9 -7,18 0,6 2,11 6,15 5,4 11,5 18,5 10,0 18,-3 25,-10 6,-7 9,-16 9,-27l0 -12zm14 -115c0,8 -2,15 -6,21 -4,5 -9,8 -16,8 -6,0 -13,-2 -20,-6 -6,-4 -11,-6 -15,-6 -7,0 -10,5 -10,14l-12 0c0,-9 2,-16 6,-21 4,-5 9,-8 16,-8 6,0 12,2 19,7 6,3 11,5 15,5 7,0 11,-5 11,-14l12 0z"/>
  <path id="33" class="fil6" d="M3309 14084c-19,0 -34,-6 -45,-17 -11,-12 -16,-27 -16,-47 0,-21 5,-37 17,-49 12,-12 27,-18 47,-18 18,0 33,6 43,17 11,12 16,28 16,48 0,20 -5,36 -17,48 -11,12 -26,18 -45,18zm1 -114c-13,0 -23,4 -30,13 -8,9 -12,21 -12,36 0,15 4,27 12,36 7,8 17,12 30,12 13,0 23,-4 30,-12 7,-9 11,-21 11,-36 0,-16 -4,-28 -11,-36 -7,-9 -17,-13 -30,-13z"/>
  <polygon id="34" class="fil6" points="3422,14053 3402,14114 3388,14114 3402,14053 "/>
  <path id="35" class="fil6" d="M1327 14305l-88 0c0,14 4,25 11,33 7,7 17,11 29,11 15,0 28,-5 39,-14l0 19c-11,8 -25,12 -43,12 -18,0 -32,-6 -42,-17 -10,-12 -15,-28 -15,-48 0,-20 5,-36 16,-48 11,-12 25,-18 42,-18 16,0 29,5 38,16 9,10 13,25 13,44l0 10zm-20 -17c-1,-11 -3,-20 -9,-27 -5,-6 -13,-9 -23,-9 -9,0 -17,3 -24,10 -7,6 -11,15 -12,26l68 0zm-4 -114l-32 40 -15 0 27 -40 20 0z"/>
  <path id="36" class="fil6" d="M1419 14359l0 -22c11,8 23,12 36,12 17,0 26,-6 26,-18 0,-3 0,-6 -2,-8 -2,-2 -4,-4 -6,-6 -3,-2 -6,-4 -9,-5 -4,-2 -7,-3 -11,-5 -6,-2 -11,-4 -15,-6 -4,-3 -8,-5 -11,-8 -2,-3 -5,-6 -6,-9 -1,-4 -2,-8 -2,-13 0,-6 1,-11 4,-16 3,-4 6,-8 11,-11 4,-3 9,-6 15,-7 6,-2 12,-2 18,-2 11,0 21,2 29,5l0 21c-9,-6 -20,-9 -32,-9 -3,0 -7,0 -10,1 -3,1 -6,2 -8,3 -2,2 -4,4 -5,6 -1,2 -1,5 -1,7 0,3 0,6 1,8 1,3 3,5 5,6 3,2 6,4 9,5 3,1 7,3 11,4 6,3 11,5 15,7 4,2 8,5 11,8 3,2 6,6 7,9 2,4 3,8 3,13 0,7 -2,12 -4,17 -3,4 -7,8 -11,11 -5,3 -10,5 -16,7 -6,1 -12,2 -19,2 -13,0 -24,-3 -33,-7z"/>
  <path id="37" class="fil6" d="M1585 14366c-18,0 -33,-6 -44,-18 -11,-11 -17,-27 -17,-46 0,-21 6,-38 17,-50 12,-11 28,-17 47,-17 19,0 33,5 44,17 10,11 16,27 16,48 0,20 -6,36 -17,48 -12,12 -27,18 -46,18zm2 -114c-13,0 -23,4 -31,13 -8,8 -11,21 -11,36 0,15 4,27 11,35 8,9 18,13 31,13 13,0 23,-4 30,-13 7,-8 10,-20 10,-35 0,-16 -3,-28 -10,-37 -7,-8 -17,-12 -30,-12zm29 -78l-32 40 -16 0 28 -40 20 0z"/>
  <path id="38" class="fil6" d="M1834 14357c-10,6 -21,9 -34,9 -18,0 -33,-6 -44,-17 -11,-12 -16,-27 -16,-46 0,-20 6,-37 18,-50 12,-12 27,-18 47,-18 11,0 21,2 29,6l0 20c-9,-6 -19,-9 -30,-9 -12,0 -23,4 -31,13 -8,9 -12,22 -12,37 0,14 3,26 11,34 8,9 18,13 31,13 11,0 21,-4 31,-11l0 19z"/>
  <path id="39" class="fil6" d="M1969 14363l-21 0 0 -72c0,-26 -9,-39 -29,-39 -9,0 -18,3 -24,11 -7,7 -10,17 -10,29l0 71 -21 0 0 -186 21 0 0 81 0 0c10,-15 23,-23 41,-23 28,0 43,17 43,51l0 77z"/>
  <path id="40" class="fil6" d="M2096 14363l-20 0 0 -20 0 0c-9,15 -22,23 -39,23 -12,0 -22,-3 -29,-10 -7,-7 -11,-15 -11,-26 0,-24 14,-37 42,-41l37 -5c0,-22 -8,-32 -26,-32 -15,0 -28,5 -41,15l0 -21c13,-7 27,-11 43,-11 30,0 44,15 44,46l0 82zm-20 -63l-30 4c-9,1 -16,3 -21,7 -5,3 -7,9 -7,17 0,6 2,11 6,15 5,4 10,6 18,6 10,0 18,-3 24,-10 7,-7 10,-16 10,-27l0 -12z"/>
  <path id="41" class="fil6" d="M2312 14363l-20 0 0 -72c0,-14 -2,-24 -6,-30 -5,-6 -12,-9 -22,-9 -8,0 -16,3 -22,11 -6,8 -9,18 -9,28l0 72 -20 0 0 -74c0,-25 -9,-37 -28,-37 -9,0 -16,3 -22,11 -6,7 -9,17 -9,28l0 72 -20 0 0 -125 20 0 0 19 1 0c9,-15 22,-22 39,-22 8,0 16,2 22,7 6,5 11,11 13,19 9,-18 23,-26 42,-26 27,0 41,17 41,51l0 77z"/>
  <path id="42" class="fil6" d="M2440 14363l-20 0 0 -20 -1 0c-8,15 -21,23 -38,23 -13,0 -22,-3 -29,-10 -8,-7 -11,-15 -11,-26 0,-24 14,-37 41,-41l38 -5c0,-22 -9,-32 -26,-32 -15,0 -29,5 -41,15l0 -21c13,-7 27,-11 43,-11 29,0 44,15 44,46l0 82zm-20 -63l-30 4c-10,1 -17,3 -21,7 -5,3 -7,9 -7,17 0,6 2,11 6,15 4,4 10,6 18,6 9,0 18,-3 24,-10 7,-7 10,-16 10,-27l0 -12z"/>
  <path id="43" class="fil6" d="M2543 14258c-3,-3 -8,-4 -15,-4 -8,0 -16,4 -21,12 -6,8 -9,19 -9,33l0 64 -20 0 0 -125 20 0 0 25 1 0c2,-8 7,-15 13,-20 6,-5 12,-8 19,-8 6,0 10,1 12,2l0 21z"/>
  <path id="44" class="fil6" d="M2591 14187l-3 127 -16 0 -2 -127 21 0zm-10 178c-4,0 -7,-1 -10,-4 -3,-2 -4,-6 -4,-9 0,-4 1,-7 4,-10 3,-3 6,-4 10,-4 3,0 6,1 9,4 3,3 4,6 4,10 0,3 -1,7 -4,9 -3,3 -6,4 -9,4z"/>
  <path id="45" class="fil6" d="M1229 14645l0 -176 48 0c62,0 93,28 93,86 0,27 -8,48 -25,65 -18,16 -41,25 -69,25l-47 0zm21 -157l0 138 26 0c23,0 41,-6 54,-18 12,-13 19,-30 19,-53 0,-45 -24,-67 -72,-67l-27 0z"/>
  <path id="46" class="fil6" d="M1503 14587l-89 0c1,14 5,25 12,32 7,8 17,12 29,12 15,0 28,-5 39,-14l0 19c-11,8 -25,12 -43,12 -18,0 -32,-6 -42,-17 -10,-12 -15,-28 -15,-49 0,-19 5,-35 16,-47 11,-13 25,-19 41,-19 17,0 30,6 39,16 9,11 13,26 13,44l0 11zm-21 -17c0,-12 -2,-21 -8,-27 -5,-7 -13,-10 -23,-10 -9,0 -17,4 -24,10 -7,7 -11,16 -12,27l67 0z"/>
  <path id="47" class="fil6" d="M1595 14640l0 -21c11,8 23,12 36,12 17,0 26,-6 26,-18 0,-3 -1,-6 -2,-8 -2,-3 -4,-5 -6,-7 -3,-1 -6,-3 -9,-4 -4,-2 -7,-3 -11,-5 -6,-2 -11,-4 -15,-7 -4,-2 -8,-4 -11,-7 -2,-3 -5,-6 -6,-10 -1,-3 -2,-8 -2,-12 0,-6 1,-12 4,-16 3,-5 6,-8 11,-11 4,-4 9,-6 15,-7 6,-2 12,-3 18,-3 11,0 20,2 29,6l0 20c-9,-6 -20,-9 -32,-9 -4,0 -7,1 -10,1 -3,1 -6,2 -8,4 -2,2 -4,3 -5,6 -1,2 -2,4 -2,7 0,3 1,6 2,8 1,2 3,4 5,6 3,2 5,3 9,5 3,1 7,2 11,4 5,2 10,4 15,7 4,2 8,4 11,7 3,3 6,6 7,10 2,4 3,8 3,13 0,6 -2,12 -4,16 -3,5 -7,9 -11,12 -5,3 -10,5 -16,6 -6,2 -12,3 -19,3 -13,0 -24,-3 -33,-8z"/>
  <path id="48" class="fil6" d="M1809 14587l-88 0c0,14 4,25 11,32 7,8 17,12 30,12 14,0 27,-5 39,-14l0 19c-11,8 -26,12 -44,12 -18,0 -32,-6 -42,-17 -10,-12 -15,-28 -15,-49 0,-19 6,-35 17,-47 11,-13 25,-19 41,-19 16,0 29,6 38,16 9,11 13,26 13,44l0 11zm-20 -17c0,-12 -3,-21 -8,-27 -6,-7 -14,-10 -23,-10 -10,0 -18,4 -25,10 -6,7 -10,16 -12,27l68 0z"/>
  <path id="49" class="fil6" d="M1947 14635c0,46 -22,69 -66,69 -16,0 -29,-3 -41,-9l0 -20c14,8 28,12 41,12 30,0 46,-17 46,-50l0 -13 -1 0c-9,16 -24,24 -43,24 -15,0 -28,-6 -37,-17 -10,-11 -15,-26 -15,-45 0,-21 5,-38 16,-51 10,-12 24,-19 42,-19 17,0 29,7 37,21l1 0 0 -18 20 0 0 116zm-20 -47l0 -19c0,-10 -3,-18 -10,-25 -7,-7 -15,-11 -25,-11 -13,0 -23,5 -30,14 -7,9 -10,21 -10,38 0,14 3,25 10,33 7,8 16,13 27,13 11,0 20,-4 27,-12 7,-8 11,-19 11,-31z"/>
  <path id="50" class="fil6" d="M2089 14645l-20 0 0 -20 0 0c-9,15 -22,23 -39,23 -30,0 -45,-18 -45,-54l0 -75 20 0 0 72c0,26 10,40 30,40 10,0 18,-4 25,-11 6,-7 9,-17 9,-29l0 -72 20 0 0 126z"/>
  <path id="51" class="fil6" d="M2234 14645l-20 0 0 -72c0,-27 -10,-40 -29,-40 -10,0 -19,4 -25,11 -7,8 -10,18 -10,29l0 72 -20 0 0 -126 20 0 0 21 0 0c10,-16 23,-24 41,-24 14,0 25,5 32,14 7,8 11,21 11,38l0 77z"/>
  <path id="52" class="fil6" d="M2379 14645l-20 0 0 -22 -1 0c-9,17 -23,25 -43,25 -16,0 -28,-6 -38,-17 -9,-11 -14,-27 -14,-46 0,-21 5,-38 16,-50 10,-13 24,-19 42,-19 17,0 29,7 37,21l1 0 0 -78 20 0 0 186zm-20 -57l0 -19c0,-10 -4,-18 -10,-25 -7,-7 -16,-11 -26,-11 -12,0 -22,5 -29,14 -7,9 -10,21 -10,37 0,14 3,26 10,34 7,8 16,13 27,13 11,0 20,-4 27,-12 7,-9 11,-19 11,-31z"/>
  <path id="53" class="fil6" d="M2509 14645l-20 0 0 -20 0 0c-9,15 -22,23 -39,23 -12,0 -22,-4 -29,-10 -7,-7 -11,-16 -11,-27 0,-23 14,-37 42,-41l37 -5c0,-21 -8,-32 -26,-32 -15,0 -28,5 -41,16l0 -21c13,-8 27,-12 43,-12 30,0 44,16 44,47l0 82zm-20 -64l-30 4c-9,2 -16,4 -21,7 -5,4 -7,9 -7,18 0,6 2,11 6,15 5,4 10,6 18,6 10,0 18,-4 24,-11 7,-7 10,-16 10,-26l0 -13z"/>
  <path id="54" class="fil6" d="M2706 14645l-20 0 0 -20 -1 0c-9,15 -21,23 -38,23 -13,0 -23,-4 -30,-10 -7,-7 -10,-16 -10,-27 0,-23 13,-37 41,-41l38 -5c0,-21 -9,-32 -26,-32 -15,0 -29,5 -41,16l0 -21c12,-8 26,-12 42,-12 30,0 45,16 45,47l0 82zm-20 -64l-31 4c-9,2 -16,4 -21,7 -4,4 -7,9 -7,18 0,6 2,11 7,15 4,4 10,6 17,6 10,0 18,-4 25,-11 6,-7 10,-16 10,-26l0 -13zm-8 -86l-15 0 -33 -40 21 0 27 40z"/>
  <path id="55" class="fil6" d="M2805 14640l0 -21c11,8 23,12 36,12 18,0 26,-6 26,-18 0,-3 0,-6 -2,-8 -1,-3 -3,-5 -6,-7 -3,-1 -6,-3 -9,-4 -4,-2 -7,-3 -11,-5 -6,-2 -11,-4 -15,-7 -4,-2 -8,-4 -11,-7 -2,-3 -4,-6 -6,-10 -1,-3 -2,-8 -2,-12 0,-6 1,-12 4,-16 3,-5 6,-8 11,-11 4,-4 9,-6 15,-7 6,-2 12,-3 18,-3 11,0 21,2 29,6l0 20c-9,-6 -20,-9 -32,-9 -3,0 -7,1 -10,1 -3,1 -5,2 -8,4 -2,2 -3,3 -5,6 -1,2 -1,4 -1,7 0,3 0,6 1,8 2,2 3,4 6,6 2,2 5,3 8,5 3,1 7,2 11,4 6,2 11,4 15,7 4,2 8,4 11,7 3,3 6,6 7,10 2,4 3,8 3,13 0,6 -1,12 -4,16 -3,5 -7,9 -11,12 -5,3 -10,5 -16,6 -6,2 -12,3 -19,3 -13,0 -24,-3 -33,-8z"/>
  <path id="56" class="fil6" d="M3020 14587l-89 0c0,14 4,25 11,32 8,8 17,12 30,12 14,0 27,-5 39,-14l0 19c-11,8 -26,12 -44,12 -18,0 -31,-6 -42,-17 -10,-12 -15,-28 -15,-49 0,-19 6,-35 17,-47 11,-13 25,-19 41,-19 16,0 29,6 38,16 9,11 14,26 14,44l0 11zm-21 -17c0,-12 -3,-21 -8,-27 -6,-7 -13,-10 -23,-10 -10,0 -18,4 -24,10 -7,7 -11,16 -13,27l68 0z"/>
  <path id="57" class="fil6" d="M3142 14519l-42 64 41 62 -23 0 -25 -41c-2,-3 -3,-6 -6,-10l0 0c-1,1 -2,4 -6,10l-25 41 -23 0 43 -62 -41 -64 23 0 24 43c2,3 4,7 6,10l0 0 31 -53 23 0z"/>
  <path id="58" class="fil6" d="M3223 14643c-4,3 -11,4 -18,4 -22,0 -33,-12 -33,-36l0 -75 -22 0 0 -17 22 0 0 -30 20 -7 0 37 31 0 0 17 -31 0 0 71c0,8 1,14 4,18 3,4 8,5 14,5 5,0 10,-1 13,-4l0 17z"/>
  <path id="59" class="fil6" d="M3340 14645l-20 0 0 -20 -1 0c-8,15 -21,23 -38,23 -13,0 -22,-4 -29,-10 -8,-7 -11,-16 -11,-27 0,-23 14,-37 41,-41l38 -5c0,-21 -9,-32 -26,-32 -15,0 -29,5 -41,16l0 -21c13,-8 27,-12 43,-12 29,0 44,16 44,47l0 82zm-20 -64l-30 4c-10,2 -17,4 -21,7 -5,4 -7,9 -7,18 0,6 2,11 6,15 4,4 10,6 18,6 9,0 18,-4 24,-11 7,-7 10,-16 10,-26l0 -13z"/>
  <path id="60" class="fil6" d="M1333 14926l-20 0 0 -21 0 0c-10,16 -24,24 -43,24 -16,0 -29,-5 -38,-17 -10,-11 -14,-26 -14,-46 0,-20 5,-37 15,-49 11,-13 25,-19 42,-19 17,0 30,7 38,20l0 0 0 -77 20 0 0 185zm-20 -56l0 -19c0,-10 -3,-19 -10,-26 -6,-7 -15,-10 -25,-10 -13,0 -22,4 -29,13 -7,9 -11,22 -11,38 0,14 4,25 10,34 7,8 16,12 28,12 11,0 20,-4 27,-12 7,-8 10,-18 10,-30z"/>
  <path id="61" class="fil6" d="M1464 14926l-20 0 0 -19 -1 0c-8,15 -21,22 -38,22 -13,0 -23,-3 -30,-10 -7,-6 -10,-15 -10,-26 0,-23 14,-37 41,-41l38 -5c0,-22 -9,-32 -26,-32 -15,0 -29,5 -41,15l0 -20c12,-8 27,-12 43,-12 29,0 44,15 44,47l0 81zm-20 -63l-31 4c-9,1 -16,4 -21,7 -4,3 -7,9 -7,17 0,7 2,12 7,15 4,4 10,6 17,6 10,0 19,-3 25,-10 7,-7 10,-16 10,-27l0 -12z"/>
  <path id="62" class="fil6" d="M1494 14922l0 -22c11,8 23,12 36,12 18,0 27,-6 27,-17 0,-4 -1,-7 -3,-9 -1,-2 -3,-4 -6,-6 -2,-2 -5,-3 -9,-5 -3,-1 -7,-3 -11,-4 -6,-3 -10,-5 -15,-7 -4,-2 -7,-5 -10,-8 -3,-2 -5,-6 -6,-9 -2,-4 -3,-8 -3,-13 0,-6 2,-11 4,-16 3,-4 7,-8 11,-11 5,-3 10,-5 16,-7 5,-1 11,-2 17,-2 11,0 21,2 30,5l0 21c-10,-6 -20,-9 -32,-9 -4,0 -7,0 -10,1 -4,1 -6,2 -8,4 -2,1 -4,3 -5,5 -1,2 -2,5 -2,7 0,4 1,6 2,9 1,2 3,4 5,6 2,1 5,3 8,4 4,2 7,3 11,5 6,2 11,4 15,6 5,2 9,5 12,8 3,3 5,6 7,10 1,3 2,8 2,13 0,6 -1,11 -4,16 -3,4 -6,8 -11,11 -4,3 -10,6 -16,7 -6,1 -12,2 -18,2 -13,0 -24,-2 -34,-7z"/>
  <path id="63" class="fil6" d="M1668 14877c0,-4 0,-9 2,-14 1,-4 3,-9 6,-13 3,-4 6,-8 10,-11 4,-3 9,-6 14,-8 -8,-4 -14,-10 -18,-16 -5,-7 -7,-14 -7,-23 0,-6 1,-12 4,-17 2,-6 6,-11 10,-15 5,-4 10,-7 16,-9 6,-2 13,-3 20,-3 7,0 13,1 19,3 6,2 12,5 16,9 4,5 8,9 10,15 3,5 4,11 4,17 0,9 -2,16 -7,23 -4,6 -10,12 -18,16 5,2 10,5 14,8 4,3 7,7 10,11 3,4 5,9 6,13 2,5 3,10 3,14 0,8 -2,15 -5,21 -2,7 -6,12 -11,17 -5,4 -11,8 -18,10 -7,3 -15,4 -23,4 -9,0 -16,-1 -23,-4 -7,-2 -13,-6 -18,-10 -5,-5 -9,-10 -12,-17 -3,-6 -4,-13 -4,-21zm21 -1c0,5 1,10 3,14 2,5 4,9 7,12 3,3 7,5 11,7 5,2 9,2 15,2 5,0 10,-1 14,-2 4,-2 8,-4 11,-7 3,-4 6,-7 8,-12 1,-4 2,-9 2,-14 0,-5 -1,-10 -2,-14 -2,-5 -4,-8 -8,-12 -3,-3 -6,-5 -11,-7 -4,-2 -9,-3 -14,-3 -5,0 -10,1 -14,3 -5,1 -8,4 -11,7 -4,3 -6,7 -8,11 -2,5 -3,9 -3,15zm7 -82c0,4 0,8 2,12 1,3 4,6 6,9 3,3 6,5 9,6 4,2 8,2 12,2 4,0 8,0 11,-2 4,-1 7,-4 9,-6 3,-3 5,-6 7,-9 1,-4 2,-8 2,-12 0,-4 -1,-8 -2,-12 -2,-3 -4,-6 -7,-9 -2,-3 -5,-5 -9,-6 -3,-2 -7,-2 -11,-2 -5,0 -9,0 -12,2 -4,1 -7,4 -9,6 -3,3 -5,6 -6,10 -2,3 -2,7 -2,11z"/>
  <path id="64" class="fil6" d="M1916 14926l-20 0 0 -72c0,-26 -9,-39 -29,-39 -10,0 -18,4 -25,11 -6,8 -10,17 -10,29l0 71 -20 0 0 -185 20 0 0 81 1 0c9,-16 23,-24 41,-24 28,0 42,17 42,51l0 77z"/>
  <path id="65" class="fil6" d="M2059 14838c0,14 -1,27 -4,39 -3,11 -7,21 -12,28 -5,8 -11,14 -18,18 -7,4 -16,6 -25,6 -9,0 -17,-2 -24,-5 -7,-4 -12,-10 -17,-17 -5,-8 -8,-17 -11,-28 -2,-11 -4,-23 -4,-37 0,-15 2,-29 4,-41 3,-11 7,-21 12,-29 5,-8 11,-14 18,-18 8,-4 16,-6 26,-6 36,0 55,30 55,90zm-21 2c0,-50 -12,-75 -35,-75 -25,0 -38,25 -38,76 0,47 12,71 37,71 24,0 36,-24 36,-72z"/>
  <path id="66" class="fil6" d="M2194 14838c0,14 -1,27 -4,39 -3,11 -6,21 -11,28 -5,8 -12,14 -19,18 -7,4 -16,6 -25,6 -9,0 -17,-2 -23,-5 -7,-4 -13,-10 -18,-17 -5,-8 -8,-17 -11,-28 -2,-11 -3,-23 -3,-37 0,-15 1,-29 4,-41 2,-11 6,-21 11,-29 5,-8 11,-14 18,-18 8,-4 16,-6 26,-6 37,0 55,30 55,90zm-20 2c0,-50 -12,-75 -36,-75 -25,0 -38,25 -38,76 0,47 13,71 37,71 24,0 37,-24 37,-72z"/>
  <path id="67" class="fil6" d="M2383 14926l-20 0 0 -19 0 0c-9,15 -22,22 -39,22 -12,0 -22,-3 -29,-10 -7,-6 -11,-15 -11,-26 0,-23 14,-37 42,-41l37 -5c0,-22 -8,-32 -26,-32 -15,0 -28,5 -41,15l0 -20c13,-8 27,-12 43,-12 30,0 44,15 44,47l0 81zm-20 -63l-30 4c-9,1 -16,4 -21,7 -5,3 -7,9 -7,17 0,7 2,12 6,15 5,4 10,6 18,6 10,0 18,-3 24,-10 7,-7 10,-16 10,-27l0 -12zm-7 -86l-16 0 -32 -40 21 0 27 40z"/>
  <path id="68" class="fil6" d="M2414 14922l0 -22c10,8 23,12 36,12 17,0 26,-6 26,-17 0,-4 -1,-7 -2,-9 -2,-2 -4,-4 -6,-6 -3,-2 -6,-3 -9,-5 -4,-1 -8,-3 -12,-4 -5,-3 -10,-5 -14,-7 -4,-2 -8,-5 -11,-8 -3,-2 -5,-6 -6,-9 -1,-4 -2,-8 -2,-13 0,-6 1,-11 4,-16 3,-4 6,-8 11,-11 4,-3 9,-5 15,-7 6,-1 12,-2 18,-2 11,0 20,2 29,5l0 21c-9,-6 -20,-9 -32,-9 -4,0 -7,0 -10,1 -3,1 -6,2 -8,4 -2,1 -4,3 -5,5 -1,2 -2,5 -2,7 0,4 1,6 2,9 1,2 3,4 5,6 3,1 5,3 9,4 3,2 7,3 11,5 5,2 10,4 15,6 4,2 8,5 11,8 3,3 6,6 7,10 2,3 3,8 3,13 0,6 -2,11 -4,16 -3,4 -7,8 -11,11 -5,3 -10,6 -16,7 -6,1 -12,2 -19,2 -13,0 -24,-2 -33,-7z"/>
  <path id="69" class="fil6" d="M2665 14926l-20 0 0 -152c-2,2 -4,4 -7,6 -3,2 -6,4 -10,6 -4,2 -8,4 -12,5 -4,2 -8,3 -12,4l0 -20c4,-1 9,-3 14,-5 5,-2 10,-4 15,-7 4,-3 9,-5 13,-8 4,-3 8,-6 11,-8l8 0 0 179z"/>
  <path id="70" class="fil6" d="M2722 14877c0,-4 1,-9 2,-14 2,-4 4,-9 7,-13 3,-4 6,-8 10,-11 4,-3 9,-6 14,-8 -8,-4 -14,-10 -18,-16 -5,-7 -7,-14 -7,-23 0,-6 1,-12 4,-17 2,-6 6,-11 10,-15 4,-4 10,-7 16,-9 6,-2 12,-3 19,-3 7,0 14,1 20,3 6,2 11,5 16,9 4,5 8,9 10,15 2,5 4,11 4,17 0,9 -3,16 -7,23 -5,6 -11,12 -18,16 5,2 10,5 14,8 4,3 7,7 10,11 2,4 5,9 6,13 2,5 2,10 2,14 0,8 -1,15 -4,21 -3,7 -7,12 -12,17 -5,4 -11,8 -18,10 -7,3 -14,4 -23,4 -8,0 -16,-1 -23,-4 -7,-2 -13,-6 -18,-10 -5,-5 -9,-10 -11,-17 -3,-6 -5,-13 -5,-21zm22 -1c0,5 1,10 3,14 1,5 4,9 7,12 3,3 7,5 11,7 4,2 9,2 14,2 6,0 10,-1 15,-2 4,-2 8,-4 11,-7 3,-4 5,-7 7,-12 2,-4 3,-9 3,-14 0,-5 -1,-10 -3,-14 -1,-5 -4,-8 -7,-12 -3,-3 -7,-5 -11,-7 -4,-2 -9,-3 -15,-3 -5,0 -9,1 -14,3 -4,1 -8,4 -11,7 -3,3 -5,7 -7,11 -2,5 -3,9 -3,15zm6 -82c0,4 1,8 3,12 1,3 3,6 6,9 3,3 6,5 9,6 4,2 7,2 11,2 4,0 8,0 12,-2 3,-1 6,-4 9,-6 3,-3 5,-6 6,-9 2,-4 3,-8 3,-12 0,-4 -1,-8 -3,-12 -1,-3 -3,-6 -6,-9 -2,-3 -6,-5 -9,-6 -4,-2 -7,-2 -12,-2 -4,0 -8,0 -11,2 -4,1 -7,4 -10,6 -2,3 -4,6 -6,10 -1,3 -2,7 -2,11z"/>
  <path id="71" class="fil6" d="M2971 14926l-20 0 0 -72c0,-26 -10,-39 -29,-39 -10,0 -18,4 -25,11 -7,8 -10,17 -10,29l0 71 -20 0 0 -185 20 0 0 81 0 0c10,-16 24,-24 42,-24 28,0 42,17 42,51l0 77z"/>
  <path id="72" class="fil6" d="M3114 14838c0,14 -2,27 -4,39 -3,11 -7,21 -12,28 -5,8 -11,14 -18,18 -8,4 -16,6 -25,6 -9,0 -17,-2 -24,-5 -7,-4 -13,-10 -17,-17 -5,-8 -9,-17 -11,-28 -3,-11 -4,-23 -4,-37 0,-15 1,-29 4,-41 3,-11 6,-21 11,-29 5,-8 11,-14 19,-18 7,-4 16,-6 25,-6 37,0 56,30 56,90zm-21 2c0,-50 -12,-75 -36,-75 -25,0 -37,25 -37,76 0,47 12,71 37,71 24,0 36,-24 36,-72z"/>
  <path id="73" class="fil6" d="M3249 14838c0,14 -2,27 -4,39 -3,11 -7,21 -12,28 -5,8 -11,14 -18,18 -8,4 -16,6 -25,6 -9,0 -17,-2 -24,-5 -7,-4 -12,-10 -17,-17 -5,-8 -9,-17 -11,-28 -2,-11 -4,-23 -4,-37 0,-15 2,-29 4,-41 3,-11 7,-21 12,-29 4,-8 11,-14 18,-18 7,-4 16,-6 26,-6 36,0 55,30 55,90zm-21 2c0,-50 -12,-75 -35,-75 -26,0 -38,25 -38,76 0,47 12,71 37,71 24,0 36,-24 36,-72z"/>
 </g>
</svg>
