<?xml version="1.0" encoding="UTF-8"?>
<!DOCTYPE svg PUBLIC "-//W3C//DTD SVG 1.1//EN" "http://www.w3.org/Graphics/SVG/1.1/DTD/svg11.dtd">
<!-- Creator: CorelDRAW X7 -->
<svg xmlns="http://www.w3.org/2000/svg" xml:space="preserve" width="1758.43mm" height="244.819mm" version="1.1" style="shape-rendering:geometricPrecision; text-rendering:geometricPrecision; image-rendering:optimizeQuality; fill-rule:evenodd; clip-rule:evenodd"
viewBox="0 0 128198 17848"
 xmlns:xlink="http://www.w3.org/1999/xlink">
 <defs>
  <style type="text/css">
   <![CDATA[
    .fil0 {fill:#0098DA;fill-rule:nonzero}
    .fil1 {fill:#3E4095;fill-rule:nonzero}
   ]]>
  </style>
 </defs>
 <g id="Camada_x0020_1">
  <metadata id="CorelCorpID_0Corel-Layer"/>
  <g id="_2414000487904">
   <path class="fil0" d="M12492 1261l0 16182 -3917 0 0 -1571c-439,652 -945,1132 -1523,1444 -574,311 -1245,465 -2018,465 -1493,0 -2708,-578 -3639,-1729 -930,-1156 -1395,-2667 -1395,-4536 0,-1883 469,-3417 1403,-4602 934,-1189 2131,-1782 3590,-1782 784,0 1482,157 2093,472 612,316 1118,784 1512,1400l0 -5743 3894 0zm-8441 10083c0,1073 199,1890 601,2457 397,566 971,851 1718,851 746,0 1313,-281 1695,-840 383,-559 578,-1384 578,-2468 0,-1002 -203,-1778 -604,-2326 -405,-551 -975,-825 -1714,-825 -694,0 -1250,281 -1658,848 -409,562 -616,1331 -616,2303z"/>
   <path class="fil0" d="M14445 17443l0 -11951 3762 0 0 2093c416,-821 938,-1422 1560,-1797 623,-379 1415,-574 2375,-589l0 3872c-169,-23 -334,-42 -499,-53 -165,-11 -323,-15 -469,-15 -600,0 -1095,90 -1489,270 -394,180 -705,454 -942,829 -146,248 -251,608 -311,1073 -64,465 -94,1215 -94,2258l0 4010 -3893 0z"/>
   <path class="fil1" d="M24066 17443l0 -16182 5694 0 2135 7877c187,694 360,1373 514,2026 154,656 289,1294 409,1917 138,-657 296,-1347 472,-2071 177,-720 375,-1497 604,-2322l2011 -7427 5694 0 0 16182 -3781 0 0 -7172c0,-506 11,-1215 38,-2127 26,-912 63,-1966 116,-3158l-3110 12457 -4111 0 -3046 -12457c52,1432 90,2727 120,3871 30,1148 45,2040 45,2686l0 5900 -3804 0z"/>
   <path class="fil1" d="M47280 10196l4453 -11c-15,-766 -218,-1366 -612,-1797 -390,-432 -926,-645 -1609,-645 -645,0 -1159,210 -1546,634 -386,424 -615,1031 -686,1819zm4254 3489l3759 0c-353,1309 -1043,2325 -2071,3042 -1028,716 -2307,1076 -3830,1076 -1853,0 -3316,-562 -4393,-1688 -1076,-1125 -1617,-2655 -1617,-4599 0,-1976 544,-3545 1628,-4700 1085,-1152 2544,-1729 4382,-1729 1898,0 3387,585 4471,1759 1084,1174 1628,2795 1628,4862 0,191 0,337 -3,435 -4,97 -12,184 -19,259l-8080 0c0,840 180,1481 544,1924 363,443 896,664 1601,664 518,0 949,-109 1287,-330 338,-218 574,-544 713,-975z"/>
   <path class="fil1" d="M68769 13009c-199,1520 -807,2701 -1827,3545 -1024,848 -2356,1272 -4003,1272 -1778,0 -3211,-570 -4295,-1711 -1084,-1136 -1624,-2644 -1624,-4520 0,-2025 548,-3620 1647,-4783 1099,-1166 2592,-1748 4479,-1748 1639,0 2959,413 3961,1238 998,822 1561,1962 1684,3421l-3938 0c-109,-555 -312,-971 -604,-1249 -293,-277 -672,-416 -1133,-416 -675,0 -1186,289 -1538,870 -353,578 -529,1429 -529,2551 0,1099 165,1917 499,2457 334,536 844,806 1523,806 514,0 923,-142 1226,-431 304,-285 514,-720 623,-1302l3849 0z"/>
   <path class="fil1" d="M83094 17443l0 -11951 3826 0 0 1643c413,-653 916,-1140 1508,-1459 593,-319 1302,-477 2120,-477 1399,0 2416,349 3042,1051 627,701 938,1842 938,3425l0 7768 -3916 0 0 -6009c0,-1407 -117,-2303 -353,-2686 -233,-386 -664,-578 -1294,-578 -690,0 -1189,229 -1504,687 -315,457 -473,1189 -473,2191l0 6395 -3894 0z"/>
   <polygon class="fil1" points="96458,17443 96458,5492 100352,5492 100352,17443 "/>
   <path class="fil1" d="M113849 13009c-199,1520 -807,2701 -1827,3545 -1024,848 -2356,1272 -4002,1272 -1779,0 -3212,-570 -4296,-1711 -1084,-1136 -1624,-2644 -1624,-4520 0,-2025 548,-3620 1647,-4783 1099,-1166 2592,-1748 4479,-1748 1639,0 2960,413 3961,1238 998,822 1561,1962 1684,3421l-3938 0c-109,-555 -312,-971 -604,-1249 -293,-277 -672,-416 -1133,-416 -675,0 -1186,289 -1538,870 -353,578 -529,1429 -529,2551 0,1099 165,1917 499,2457 334,536 844,806 1523,806 514,0 923,-142 1226,-431 304,-285 514,-720 623,-1302l3849 0z"/>
   <path class="fil1" d="M119533 11456c0,1092 202,1932 604,2517 405,589 975,882 1714,882 746,0 1324,-296 1729,-885 409,-589 612,-1430 612,-2514 0,-1076 -203,-1909 -612,-2494 -405,-589 -983,-882 -1729,-882 -747,0 -1320,293 -1718,874 -402,582 -600,1418 -600,2502zm-4007 -7c0,-2000 559,-3564 1681,-4693 1118,-1129 2667,-1692 4644,-1692 1984,0 3537,563 4663,1692 1121,1129 1684,2693 1684,4693 0,2003 -563,3567 -1684,4700 -1126,1133 -2679,1699 -4663,1699 -1992,0 -3541,-562 -4655,-1691 -1114,-1129 -1670,-2697 -1670,-4708z"/>
   <path class="fil1" d="M77422 11820c-300,191 -829,368 -1586,529 -368,71 -646,135 -837,188 -473,131 -803,300 -998,502 -195,207 -292,480 -292,826 0,423 131,769 397,1027 263,259 612,391 1047,391 668,0 1212,-192 1635,-578 424,-383 634,-889 634,-1512l0 -1373zm4299 5623l-3980 0c-45,-191 -82,-386 -116,-592 -34,-203 -64,-417 -94,-634 -547,547 -1133,952 -1755,1215 -619,263 -1298,394 -2041,394 -1152,0 -2063,-315 -2735,-949 -671,-634 -1005,-1489 -1005,-2566 0,-987 263,-1789 788,-2408 521,-619 1316,-1054 2378,-1302 589,-131 1332,-274 2236,-428 1350,-221 2025,-544 2025,-967l0 -289c0,-345 -131,-612 -390,-792 -262,-180 -649,-270 -1163,-270 -555,0 -997,113 -1324,341 -326,229 -529,567 -611,1010l-3601 0c191,-1351 750,-2356 1676,-3016 927,-661 2244,-991 3950,-991 1062,0 1959,128 2686,387 732,255 1302,645 1711,1166 285,372 488,818 604,1336 116,517 176,1346 176,2491l0 4527c0,540 49,968 146,1279 98,312 244,514 439,608l0 450zm-9430 -13392l2119 -4051 2817 0 2109 4051 -1681 0 -1827 -2179 -1845 2179 -1692 0z"/>
  </g>
 </g>
</svg>
