<?xml version="1.0" encoding="UTF-8"?>
<!DOCTYPE svg PUBLIC "-//W3C//DTD SVG 1.1//EN" "http://www.w3.org/Graphics/SVG/1.1/DTD/svg11.dtd">
<!-- Creator: CorelDRAW X7 -->
<svg xmlns="http://www.w3.org/2000/svg" xml:space="preserve" width="375.076mm" height="103.416mm" version="1.1" style="shape-rendering:geometricPrecision; text-rendering:geometricPrecision; image-rendering:optimizeQuality; fill-rule:evenodd; clip-rule:evenodd"
viewBox="0 0 2319 639"
 xmlns:xlink="http://www.w3.org/1999/xlink">
 <rect width="100%" height="100%" fill="white"/>
 <defs>
  <style type="text/css">
   <![CDATA[
    .str0 {stroke:#3E4095;stroke-width:0.47116}
    .fil2 {fill:none}
    .fil0 {fill:#0098DA;fill-rule:nonzero}
    .fil1 {fill:#3E4095;fill-rule:nonzero}
   ]]>
  </style>
 </defs>
 <g id="Camada_x0020_1">
  <metadata id="CorelCorpID_0Corel-Layer"/>
  <g id="_2413796417360">
   <path class="fil0" d="M334 246l0 161 -39 0 0 -16c-5,7 -10,11 -15,15 -6,3 -13,4 -21,4 -14,0 -26,-6 -36,-17 -9,-12 -14,-27 -14,-45 0,-19 5,-34 14,-46 10,-12 22,-18 36,-18 8,0 15,2 21,5 6,3 11,8 15,14l0 -57 39 0zm-84 100c0,11 2,19 6,25 4,5 9,8 17,8 7,0 13,-3 17,-8 3,-6 5,-14 5,-25 0,-10 -2,-18 -6,-23 -4,-6 -9,-8 -17,-8 -7,0 -12,3 -16,8 -4,6 -6,13 -6,23z"/>
   <path class="fil0" d="M353 407l0 -119 38 0 0 21c4,-8 9,-14 15,-18 6,-4 14,-6 24,-6l0 39c-2,-1 -4,-1 -5,-1 -2,0 -3,0 -5,0 -6,0 -11,1 -15,3 -4,1 -7,4 -9,8 -2,2 -3,6 -3,10 -1,5 -1,13 -1,23l0 40 -39 0z"/>
   <path class="fil1" d="M449 407l0 -161 57 0 21 78c2,7 3,14 5,20 1,7 3,13 4,19 1,-6 3,-13 5,-20 1,-7 3,-15 6,-23l20 -74 56 0 0 161 -37 0 0 -72c0,-5 0,-12 0,-21 0,-9 1,-19 1,-31l-31 124 -41 0 -30 -124c1,14 1,27 1,38 1,12 1,21 1,27l0 59 -38 0z"/>
   <path class="fil1" d="M680 335l44 0c0,-8 -2,-14 -6,-18 -4,-5 -9,-7 -16,-7 -6,0 -11,2 -15,7 -4,4 -6,10 -7,18zm42 34l38 0c-4,13 -11,24 -21,31 -10,7 -23,10 -38,10 -18,0 -33,-5 -44,-16 -10,-12 -16,-27 -16,-46 0,-20 6,-35 16,-47 11,-11 26,-17 44,-17 19,0 34,6 45,17 10,12 16,28 16,49 0,2 0,3 0,4 0,1 0,2 0,3l-81 0c0,8 2,14 5,19 4,4 9,6 16,6 6,0 10,-1 13,-3 4,-2 6,-5 7,-10z"/>
   <path class="fil1" d="M894 363c-2,15 -8,27 -18,35 -10,8 -24,13 -40,13 -18,0 -32,-6 -43,-17 -11,-12 -16,-27 -16,-45 0,-21 5,-36 16,-48 11,-12 26,-17 45,-17 16,0 29,4 39,12 10,8 16,19 17,34l-39 0c-1,-6 -3,-10 -6,-12 -3,-3 -7,-5 -11,-5 -7,0 -12,3 -16,9 -3,6 -5,14 -5,25 0,11 2,20 5,25 3,5 8,8 15,8 5,0 9,-1 12,-4 3,-3 6,-8 7,-13l38 0z"/>
   <path class="fil1" d="M1037 407l0 -119 38 0 0 16c4,-6 9,-11 15,-14 6,-3 13,-5 21,-5 14,0 24,3 30,10 6,7 9,19 9,35l0 77 -39 0 0 -60c0,-14 -1,-23 -3,-27 -2,-4 -7,-5 -13,-5 -7,0 -12,2 -15,6 -3,5 -5,12 -5,22l0 64 -38 0z"/>
   <polygon class="fil1" points="1170,407 1170,288 1208,288 1208,407 "/>
   <path class="fil1" d="M1343 363c-2,15 -8,27 -19,35 -10,8 -23,13 -39,13 -18,0 -32,-6 -43,-17 -11,-12 -16,-27 -16,-45 0,-21 5,-36 16,-48 11,-12 26,-17 45,-17 16,0 29,4 39,12 10,8 16,19 17,34l-39 0c-1,-6 -3,-10 -6,-12 -3,-3 -7,-5 -12,-5 -6,0 -11,3 -15,9 -3,6 -5,14 -5,25 0,11 1,20 5,25 3,5 8,8 15,8 5,0 9,-1 12,-4 3,-3 5,-8 6,-13l39 0z"/>
   <path class="fil1" d="M1399 347c0,11 2,19 6,25 4,6 10,9 17,9 8,0 14,-3 18,-9 4,-6 6,-14 6,-25 0,-10 -2,-19 -6,-25 -4,-5 -10,-8 -18,-8 -7,0 -13,3 -17,8 -4,6 -6,14 -6,25zm-40 0c0,-20 6,-35 17,-47 11,-11 27,-16 46,-16 20,0 36,5 47,16 11,12 17,27 17,47 0,20 -6,36 -17,47 -11,11 -27,17 -47,17 -20,0 -35,-6 -46,-17 -11,-11 -17,-27 -17,-47z"/>
   <path class="fil1" d="M980 351c-3,2 -8,4 -16,5 -3,1 -6,1 -8,2 -5,1 -8,3 -10,5 -2,2 -3,5 -3,8 0,4 1,8 4,10 3,3 6,4 10,4 7,0 13,-2 17,-5 4,-4 6,-9 6,-15l0 -14zm43 56l-40 0c0,-2 -1,-4 -1,-6 0,-2 -1,-4 -1,-6 -5,5 -11,9 -17,12 -6,2 -13,4 -21,4 -11,0 -20,-3 -27,-10 -7,-6 -10,-15 -10,-25 0,-10 3,-18 8,-24 5,-6 13,-11 24,-13 5,-2 13,-3 22,-5 13,-2 20,-5 20,-9l0 -3c0,-3 -1,-6 -4,-8 -2,-2 -6,-3 -11,-3 -6,0 -10,2 -14,4 -3,2 -5,5 -6,10l-36 0c2,-14 8,-24 17,-30 9,-7 23,-10 39,-10 11,0 20,1 27,4 8,2 13,6 17,11 3,4 5,9 6,14 1,5 2,13 2,25l0 45c0,5 1,9 1,12 1,3 3,5 5,6l0 5zm-94 -133l21 -41 28 0 21 41 -17 0 -18 -22 -18 22 -17 0z"/>
  </g>
  <polyline class="fil2 str0" points="2319,639 2319,0 0,0 0,639 "/>
 </g>
</svg>
